<?xml version="1.0" encoding="UTF-8" standalone="no"?>
<!-- Created with Inkscape (http://www.inkscape.org/) -->

<svg
   width="4in"
   height="4in"
   viewBox="0 0 101.6 101.6"
   version="1.1"
   id="svg5"
   sodipodi:docname="about.svg"
   inkscape:version="1.1 (c4e8f9e, 2021-05-24)"
   xmlns:inkscape="http://www.inkscape.org/namespaces/inkscape"
   xmlns:sodipodi="http://sodipodi.sourceforge.net/DTD/sodipodi-0.dtd"
   xmlns="http://www.w3.org/2000/svg"
   xmlns:svg="http://www.w3.org/2000/svg">
  <sodipodi:namedview
     id="namedview7"
     pagecolor="#ffffff"
     bordercolor="#666666"
     borderopacity="1.0"
     inkscape:pageshadow="2"
     inkscape:pageopacity="0.0"
     inkscape:pagecheckerboard="0"
     inkscape:document-units="mm"
     showgrid="false"
     units="in"
     inkscape:zoom="0.96970301"
     inkscape:cx="162.42086"
     inkscape:cy="148.49908"
     inkscape:window-width="1280"
     inkscape:window-height="800"
     inkscape:window-x="0"
     inkscape:window-y="0"
     inkscape:window-maximized="1"
     inkscape:current-layer="layer2"
     inkscape:object-nodes="false" />
  <defs
     id="defs2">
    <inkscape:path-effect
       effect="mirror_symmetry"
       start_point="50.8,13.105166"
       end_point="50.8,89.204297"
       center_point="50.8,51.154731"
       id="path-effect3784"
       is_visible="true"
       lpeversion="1.1"
       mode="vertical"
       discard_orig_path="false"
       fuse_paths="false"
       oposite_fuse="false"
       split_items="false"
       split_open="false" />
    <inkscape:path-effect
       effect="mirror_symmetry"
       start_point="53.633396,10.68638"
       end_point="53.633396,95.00827"
       center_point="53.633396,52.847325"
       id="path-effect5871"
       is_visible="true"
       lpeversion="1.1"
       mode="vertical"
       discard_orig_path="false"
       fuse_paths="false"
       oposite_fuse="false"
       split_items="false"
       split_open="false" />
  </defs>
  <g
     inkscape:groupmode="layer"
     id="layer2"
     inkscape:label="Layer 2"
     sodipodi:insensitive="true">
    <g
       id="g3782">
      <path
         style="opacity:1;fill:none;stroke:#000000;stroke-width:2.5;stroke-linecap:round;stroke-linejoin:round;stop-color:#000000"
         d="M 8.6789638,74.804402 C 11.785833,87.000439 29.166371,81.924875 26.833844,60.858709 26.054035,53.815878 24.646268,40.44335 39.091721,40.244148 28.484098,35.698024 30.225763,13.105166 50.8,13.105166 c 20.574237,0 22.315902,22.592858 11.708279,27.138982 14.445453,0.199202 13.037686,13.57173 12.257877,20.614561 -2.332527,21.066166 15.048011,26.14173 18.15488,13.945693"
         id="path1099"
         sodipodi:nodetypes="cscccsc" />
      <path
         id="path1744"
         transform="rotate(19.604855)"
         d="m 37.307748,27.133371 c 0,3.499841 -2.097046,6.337022 -4.683885,6.337022 -2.586838,0 -4.683885,-2.837181 -4.683885,-6.337022 0,-3.49984 2.097047,-6.337021 4.683885,-6.337021 2.586839,0 4.683885,2.837181 4.683885,6.337021 z M 83.95536,10.51845 c 2.212462,2.711807 5.630886,3.58449 7.635265,1.949193 C 93.595004,10.832346 93.42632,7.3083214 91.213859,4.5965143 89.001398,1.8847073 85.582973,1.0120238 83.578594,2.6473211 81.574215,4.2826185 81.742899,7.8066428 83.95536,10.51845 Z"
         style="opacity:1;fill:none;stroke:#000000;stroke-width:2.5;stroke-linecap:round;stroke-linejoin:round;stop-color:#000000" />
      <path
         style="opacity:1;fill:none;stroke:#000000;stroke-width:2.5;stroke-linecap:round;stroke-linejoin:round;stop-color:#000000"
         d="m 8.6789637,85.274263 c 5.9864453,6.898922 13.3802523,3.472129 17.0824053,-0.826568 m 67.159667,0.826568 c -5.986445,6.898922 -13.380252,3.472129 -17.082405,-0.826568"
         id="path2037"
         sodipodi:nodetypes="cc" />
      <path
         style="opacity:1;fill:none;stroke:#000000;stroke-width:2.5;stroke-linecap:round;stroke-linejoin:round;stop-color:#000000"
         d="m 31.960628,50.282885 c 0.667509,-1.72915 2.175728,-2.857794 5.407642,-2.755226 0,0 -8.232105,15.842553 13.43173,15.842553 21.663835,0 13.43173,-15.842553 13.43173,-15.842553 3.231914,-0.102568 4.740133,1.026076 5.407642,2.755226"
         id="path2297"
         sodipodi:nodetypes="ccccc" />
      <path
         style="opacity:1;fill:none;stroke:#000000;stroke-width:2.5;stroke-linecap:round;stroke-linejoin:round;stop-color:#000000"
         d="m 32.408863,74.115596 c 9.990354,2.295579 14.970056,5.426267 18.391137,8.816725 3.421081,-3.390458 8.400783,-6.521146 18.391137,-8.816725"
         id="path2744"
         sodipodi:nodetypes="ccc" />
      <path
         style="opacity:1;fill:none;stroke:#000000;stroke-width:2.5;stroke-linecap:round;stroke-linejoin:round;stop-color:#000000"
         d="M 41.870637,76.363533 50.8,70.947084 l 8.929363,5.416449"
         id="path3372"
         sodipodi:nodetypes="ccc" />
    </g>
    <path
       style="opacity:1;fill:none;stroke:#000000;stroke-width:2.5;stroke-linecap:round;stroke-linejoin:round;stop-color:#000000"
       d="M 59.705864,52.27983 50.8,23.010827 41.894135,52.27983 Z"
       id="path3895"
       sodipodi:nodetypes="ccc" />
    <g
       id="g4274"
       transform="translate(-1.3119995,1.5875)">
      <circle
         style="opacity:1;fill:#000000;fill-opacity:1;stroke:none;stroke-width:1.18818;stroke-linecap:round;stroke-linejoin:round;stop-color:#000000"
         id="path4106"
         cx="42.885372"
         cy="8.2040882"
         r="1.25" />
      <circle
         style="fill:#000000;fill-opacity:1;stroke:none;stroke-width:1.18818;stroke-linecap:round;stroke-linejoin:round;stop-color:#000000"
         id="path4106-3"
         cx="49.036457"
         cy="6.0874214"
         r="1.25" />
      <circle
         style="fill:#000000;fill-opacity:1;stroke:none;stroke-width:1.18818;stroke-linecap:round;stroke-linejoin:round;stop-color:#000000"
         id="path4106-2"
         cx="55.187538"
         cy="6.0874214"
         r="1.25" />
      <circle
         style="fill:#000000;fill-opacity:1;stroke:none;stroke-width:1.18818;stroke-linecap:round;stroke-linejoin:round;stop-color:#000000"
         id="path4106-6"
         cx="61.338627"
         cy="8.2040882"
         r="1.25" />
    </g>
  </g>
</svg>
