<?xml version="1.0" encoding="UTF-8" standalone="no"?>
<!-- Created with Inkscape (http://www.inkscape.org/) -->

<svg
   width="4in"
   height="4in"
   viewBox="0 0 101.6 101.6"
   version="1.1"
   id="svg5"
   sodipodi:docname="alone.svg"
   inkscape:version="1.3.2 (091e20e, 2023-11-25)"
   xml:space="preserve"
   xmlns:inkscape="http://www.inkscape.org/namespaces/inkscape"
   xmlns:sodipodi="http://sodipodi.sourceforge.net/DTD/sodipodi-0.dtd"
   xmlns="http://www.w3.org/2000/svg"
   xmlns:svg="http://www.w3.org/2000/svg"><sodipodi:namedview
     id="namedview7"
     pagecolor="#ffffff"
     bordercolor="#666666"
     borderopacity="1.0"
     inkscape:pageshadow="2"
     inkscape:pageopacity="0.0"
     inkscape:pagecheckerboard="0"
     inkscape:document-units="mm"
     showgrid="false"
     units="in"
     inkscape:zoom="0.39624963"
     inkscape:cx="249.8425"
     inkscape:cy="353.31263"
     inkscape:window-width="1280"
     inkscape:window-height="693"
     inkscape:window-x="0"
     inkscape:window-y="25"
     inkscape:window-maximized="0"
     inkscape:current-layer="layer2"
     inkscape:object-nodes="false"
     inkscape:showpageshadow="2"
     inkscape:deskcolor="#d1d1d1" /><defs
     id="defs2"><inkscape:path-effect
       effect="mirror_symmetry"
       start_point="50.8,0"
       end_point="50.8,101.6"
       center_point="50.8,50.8"
       id="path-effect7"
       is_visible="true"
       lpeversion="1.2"
       lpesatellites=""
       mode="vertical"
       discard_orig_path="false"
       fuse_paths="false"
       oposite_fuse="false"
       split_items="false"
       split_open="false"
       link_styles="false" /><inkscape:path-effect
       effect="mirror_symmetry"
       start_point="50.356101,2.2194948"
       end_point="50.356101,103.81949"
       center_point="50.356101,53.019495"
       id="path-effect6"
       is_visible="true"
       lpeversion="1.2"
       lpesatellites=""
       mode="vertical"
       discard_orig_path="false"
       fuse_paths="false"
       oposite_fuse="false"
       split_items="false"
       split_open="false"
       link_styles="false" /><inkscape:path-effect
       effect="mirror_symmetry"
       start_point="50.8,0"
       end_point="50.8,101.6"
       center_point="50.8,50.8"
       id="path-effect5"
       is_visible="true"
       lpeversion="1.2"
       lpesatellites=""
       mode="vertical"
       discard_orig_path="false"
       fuse_paths="false"
       oposite_fuse="false"
       split_items="false"
       split_open="false"
       link_styles="false" /><inkscape:path-effect
       effect="mirror_symmetry"
       start_point="49.298559,0.1585965"
       end_point="49.298559,101.7586"
       center_point="49.298559,50.958596"
       id="path-effect3"
       is_visible="true"
       lpeversion="1.2"
       lpesatellites=""
       mode="vertical"
       discard_orig_path="false"
       fuse_paths="false"
       oposite_fuse="false"
       split_items="false"
       split_open="false"
       link_styles="false" /><inkscape:path-effect
       effect="mirror_symmetry"
       start_point="49.645045,0"
       end_point="49.645045,101.6"
       center_point="49.645045,50.8"
       id="path-effect2"
       is_visible="true"
       lpeversion="1.2"
       lpesatellites=""
       mode="vertical"
       discard_orig_path="false"
       fuse_paths="false"
       oposite_fuse="false"
       split_items="false"
       split_open="false"
       link_styles="false" /><inkscape:path-effect
       effect="mirror_symmetry"
       start_point="53.633396,10.68638"
       end_point="53.633396,95.00827"
       center_point="53.633396,52.847325"
       id="path-effect5871"
       is_visible="true"
       lpeversion="1.1"
       mode="vertical"
       discard_orig_path="false"
       fuse_paths="false"
       oposite_fuse="false"
       split_items="false"
       split_open="false" /></defs><g
     inkscape:groupmode="layer"
     id="layer2"
     inkscape:label="Layer 2"><path
       id="path1"
       transform="translate(1.5014412,-0.1585965)"
       d="m 35.525572,24.661726 c 0,2.496324 -2.023671,4.519995 -4.519995,4.519995 -2.496324,0 -4.519995,-2.023671 -4.519995,-4.519995 0,-2.496324 2.023671,-4.519995 4.519995,-4.519995 2.496324,0 4.519995,2.023671 4.519995,4.519995 z m 27.545974,0 c 0,2.496324 2.02367,4.519995 4.519995,4.519995 2.496324,0 4.519994,-2.023671 4.519994,-4.519995 0,-2.496324 -2.02367,-4.519995 -4.519994,-4.519995 -2.496325,0 -4.519995,2.023671 -4.519995,4.519995 z"
       style="fill:none;stroke:#000000;stroke-width:2.5;stroke-linecap:round;stroke-linejoin:round" /><path
       id="path4106"
       d="m 39.701937,39.897617 c 0,0.690356 -0.559644,1.25 -1.25,1.25 -0.690356,0 -1.25,-0.559644 -1.25,-1.25 0,-0.690356 0.559644,-1.25 1.25,-1.25 0.690356,0 1.25,0.559644 1.25,1.25 z m 22.196127,0 c 0,0.690356 0.559644,1.25 1.25,1.25 0.690356,0 1.25,-0.559644 1.25,-1.25 0,-0.690356 -0.559644,-1.25 -1.25,-1.25 -0.690356,0 -1.25,0.559644 -1.25,1.25 z"
       style="fill:#000000;fill-opacity:1;stroke:none;stroke-width:1.18818;stroke-linecap:round;stroke-linejoin:round;stop-color:#000000" /><path
       style="fill:none;stroke:#000000;stroke-width:2.5;stroke-linecap:round;stroke-linejoin:round"
       d="m 40.169646,13.004897 c 0,0 2.484163,5.157112 2.484163,11.498232 0,6.341121 -2.484163,11.498233 -2.484163,11.498233 M 61.430354,13.004897 c 0,0 -2.484163,5.157112 -2.484163,11.498232 0,6.341121 2.484163,11.498233 2.484163,11.498233"
       id="path2"
       sodipodi:nodetypes="czc" /><path
       id="path4106-2"
       d="m 39.835985,9.1357536 c 0,0.690356 -0.559644,1.2500004 -1.25,1.2500004 -0.690356,0 -1.25,-0.5596444 -1.25,-1.2500004 0,-0.6903559 0.559644,-1.25 1.25,-1.25 0.690356,0 1.25,0.5596441 1.25,1.25 z m 21.92803,0 c 0,0.690356 0.559644,1.2500004 1.25,1.2500004 0.690356,0 1.25,-0.5596444 1.25,-1.2500004 0,-0.6903559 -0.559644,-1.25 -1.25,-1.25 -0.690356,0 -1.25,0.5596441 -1.25,1.25 z"
       style="fill:#000000;fill-opacity:1;stroke:none;stroke-width:1.18818;stroke-linecap:round;stroke-linejoin:round;stop-color:#000000" /><path
       style="fill:none;stroke:#000000;stroke-width:2.5;stroke-linecap:round;stroke-linejoin:round"
       d="M 42.848821,24.503129 H 58.6717"
       id="path3" /><path
       style="fill:none;stroke:#000000;stroke-width:2.5;stroke-linecap:round;stroke-linejoin:round"
       d="M 57.209999,47.69963 50.8,34.995128 44.39,47.69963 Z"
       id="path4"
       sodipodi:nodetypes="ccc" /><path
       style="fill:none;stroke:#000000;stroke-width:2.5;stroke-linecap:round;stroke-linejoin:round"
       d="m 13.081104,58.76277 c 14.379559,6.026547 21.217945,-6.408165 33.315935,-5.212004 M 88.518896,58.76277 C 74.139337,64.789317 67.300951,52.354605 55.202961,53.550766"
       id="path5"
       sodipodi:nodetypes="cc" /><path
       id="path4106-0"
       d="m 18.622613,65.854675 c 0,0.690356 -0.559644,1.25 -1.25,1.25 -0.690356,0 -1.25,-0.559644 -1.25,-1.25 0,-0.690356 0.559644,-1.25 1.25,-1.25 0.690356,0 1.25,0.559644 1.25,1.25 z m 64.354774,0 c 0,0.690356 0.559644,1.25 1.25,1.25 0.690356,0 1.25,-0.559644 1.25,-1.25 0,-0.690356 -0.559644,-1.25 -1.25,-1.25 -0.690356,0 -1.25,0.559644 -1.25,1.25 z"
       style="fill:#000000;fill-opacity:1;stroke:none;stroke-width:1.18818;stroke-linecap:round;stroke-linejoin:round;stop-color:#000000"
       sodipodi:nodetypes="sssss" /><path
       id="path4106-0-6"
       d="m 23.897862,65.854675 c 0,0.690356 -0.559644,1.25 -1.25,1.25 -0.690356,0 -1.25,-0.559644 -1.25,-1.25 0,-0.690356 0.559644,-1.25 1.25,-1.25 0.690356,0 1.25,0.559644 1.25,1.25 z m 53.804276,0 c 0,0.690356 0.559644,1.25 1.25,1.25 0.690356,0 1.25,-0.559644 1.25,-1.25 0,-0.690356 -0.559644,-1.25 -1.25,-1.25 -0.690356,0 -1.25,0.559644 -1.25,1.25 z"
       style="fill:#000000;fill-opacity:1;stroke:none;stroke-width:1.18818;stroke-linecap:round;stroke-linejoin:round;stop-color:#000000"
       sodipodi:nodetypes="sssss" /><path
       style="fill:none;stroke:#000000;stroke-width:2.5;stroke-linecap:round;stroke-linejoin:round"
       d="M 57.262966,77.460368 51.048381,59.935169 44.833796,77.460368 Z"
       id="path6"
       sodipodi:nodetypes="ccc" /><path
       style="fill:none;stroke:#000000;stroke-width:2.5;stroke-linecap:round;stroke-linejoin:round"
       d="M 39.406372,65.947424 35.962113,80.43357 c -7.489708,1.932828 -12.764018,13.270527 -12.764018,13.270527 0,0 -0.220759,-20.870974 16.208277,-27.756673 z m 22.787256,0 3.444259,14.486146 c 7.489708,1.932828 12.764018,13.270527 12.764018,13.270527 0,0 0.220759,-20.870974 -16.208277,-27.756673 z"
       id="path7"
       sodipodi:nodetypes="cccc" /></g></svg>
