<?xml version="1.0" encoding="UTF-8" standalone="no"?>
<!-- Created with Inkscape (http://www.inkscape.org/) -->

<svg
   width="4in"
   height="4in"
   viewBox="0 0 101.6 101.6"
   version="1.1"
   id="svg5"
   sodipodi:docname="as.svg"
   inkscape:version="1.3.2 (091e20e, 2023-11-25)"
   xmlns:inkscape="http://www.inkscape.org/namespaces/inkscape"
   xmlns:sodipodi="http://sodipodi.sourceforge.net/DTD/sodipodi-0.dtd"
   xmlns="http://www.w3.org/2000/svg"
   xmlns:svg="http://www.w3.org/2000/svg">
  <sodipodi:namedview
     id="namedview7"
     pagecolor="#ffffff"
     bordercolor="#666666"
     borderopacity="1.0"
     inkscape:pageshadow="2"
     inkscape:pageopacity="0.0"
     inkscape:pagecheckerboard="0"
     inkscape:document-units="mm"
     showgrid="false"
     units="in"
     inkscape:zoom="0.50112958"
     inkscape:cx="47.891804"
     inkscape:cy="157.64386"
     inkscape:window-width="1280"
     inkscape:window-height="449"
     inkscape:window-x="0"
     inkscape:window-y="25"
     inkscape:window-maximized="0"
     inkscape:current-layer="layer2"
     inkscape:object-nodes="false"
     inkscape:showpageshadow="2"
     inkscape:deskcolor="#d1d1d1" />
  <defs
     id="defs2">
    <inkscape:path-effect
       effect="mirror_symmetry"
       start_point="40.364465,21.719529"
       end_point="40.364465,75.569389"
       center_point="40.364465,48.644459"
       id="path-effect1153"
       is_visible="true"
       lpeversion="1.1"
       mode="vertical"
       discard_orig_path="false"
       fuse_paths="false"
       oposite_fuse="false"
       split_items="false"
       split_open="false" />
    <inkscape:path-effect
       effect="mirror_symmetry"
       start_point="53.633396,10.68638"
       end_point="53.633396,95.00827"
       center_point="53.633396,52.847325"
       id="path-effect5871"
       is_visible="true"
       lpeversion="1.1"
       mode="vertical"
       discard_orig_path="false"
       fuse_paths="false"
       oposite_fuse="false"
       split_items="false"
       split_open="false" />
  </defs>
  <g
     inkscape:groupmode="layer"
     id="layer2"
     inkscape:label="Layer 2"
     style="display:inline">
    <circle
       style="display:inline;fill:none;stroke:#000000;stroke-width:2.5;stroke-linecap:round;stroke-linejoin:round;stroke-opacity:1;stop-color:#000000"
       id="path971-2"
       cx="50.799999"
       cy="54.9571"
       r="5.7903819" />
    <g
       id="g1151">
      <path
         id="path971"
         d="m 36.50885,69.779007 c 0,3.19794 -2.592443,5.790382 -5.790382,5.790382 -3.19794,0 -5.790382,-2.592442 -5.790382,-5.790382 0,-3.19794 2.592442,-5.790382 5.790382,-5.790382 3.197939,0 5.790382,2.592442 5.790382,5.790382 z m 28.5823,0 c 0,3.19794 2.592443,5.790382 5.790382,5.790382 3.19794,0 5.790382,-2.592442 5.790382,-5.790382 0,-3.19794 -2.592442,-5.790382 -5.790382,-5.790382 -3.197939,0 -5.790382,2.592442 -5.790382,5.790382 z"
         style="opacity:1;fill:none;stroke:#000000;stroke-width:2.5;stroke-linecap:round;stroke-linejoin:round;stroke-opacity:1;stop-color:#000000" />
      <path
         id="path971-27"
         transform="rotate(19.041477)"
         d="m 50.15662,26.325768 c 0,9.377008 -4.35003,16.978576 -9.716064,16.978576 -5.366035,0 -9.716065,-7.601568 -9.716065,-16.978576 0,-9.377009 4.35003,-16.9785771 9.716065,-16.9785771 5.366034,0 9.716064,7.6015681 9.716064,16.9785771 z M 72.799289,18.510932 C 78.583044,25.89175 86.695694,29.191979 90.919399,25.8822 95.143104,22.57242 93.878434,13.905979 88.094678,6.5251614 82.310923,-0.85565638 74.198274,-4.1558852 69.974568,-0.84610607 65.750863,2.4636731 67.015534,11.130114 72.799289,18.510932 Z"
         style="display:inline;fill:none;stroke:#000000;stroke-width:2.50001;stroke-linecap:round;stroke-linejoin:round;stroke-opacity:1;stop-color:#000000" />
    </g>
  </g>
</svg>
