<?xml version="1.0" encoding="UTF-8" standalone="no"?>
<!-- Created with Inkscape (http://www.inkscape.org/) -->

<svg
   width="4in"
   height="4in"
   viewBox="0 0 101.6 101.6"
   version="1.1"
   id="svg5"
   sodipodi:docname="bear.svg"
   inkscape:version="1.1 (c4e8f9e, 2021-05-24)"
   xmlns:inkscape="http://www.inkscape.org/namespaces/inkscape"
   xmlns:sodipodi="http://sodipodi.sourceforge.net/DTD/sodipodi-0.dtd"
   xmlns="http://www.w3.org/2000/svg"
   xmlns:svg="http://www.w3.org/2000/svg">
  <sodipodi:namedview
     id="namedview7"
     pagecolor="#ffffff"
     bordercolor="#666666"
     borderopacity="1.0"
     inkscape:pageshadow="2"
     inkscape:pageopacity="0.0"
     inkscape:pagecheckerboard="0"
     inkscape:document-units="mm"
     showgrid="false"
     units="in"
     inkscape:zoom="1.4819524"
     inkscape:cx="-3.0365348"
     inkscape:cy="228.75229"
     inkscape:window-width="1920"
     inkscape:window-height="974"
     inkscape:window-x="0"
     inkscape:window-y="25"
     inkscape:window-maximized="1"
     inkscape:current-layer="g5869"
     inkscape:object-nodes="false" />
  <defs
     id="defs2">
    <inkscape:path-effect
       effect="mirror_symmetry"
       start_point="53.633396,10.68638"
       end_point="53.633396,95.00827"
       center_point="53.633396,52.847325"
       id="path-effect5871"
       is_visible="true"
       lpeversion="1.1"
       mode="vertical"
       discard_orig_path="false"
       fuse_paths="false"
       oposite_fuse="false"
       split_items="false"
       split_open="false" />
  </defs>
  <g
     inkscape:groupmode="layer"
     id="layer2"
     inkscape:label="Layer 2">
    <path
       id="path3934"
       style="stroke-width:1.62803;stroke-linecap:round;stroke-linejoin:round"
       d="m 59.614676,7.4423466 a 1.25,1.25 0 0 1 -1.25,1.25 1.25,1.25 0 0 1 -1.25,-1.25 1.25,1.25 0 0 1 1.25,-1.25 1.25,1.25 0 0 1 1.25,1.25 z" />
    <path
       id="path3934-5"
       style="stroke-width:1.62803;stroke-linecap:round;stroke-linejoin:round"
       d="m 54.571555,6.0586848 a 1.25,1.25 0 0 1 -1.25,1.25 1.25,1.25 0 0 1 -1.25,-1.25 1.25,1.25 0 0 1 1.25,-1.25 1.25,1.25 0 0 1 1.25,1.25 z" />
    <path
       id="path3934-8"
       style="stroke-width:1.62803;stroke-linecap:round;stroke-linejoin:round"
       d="m 49.528441,6.0586848 a 1.25,1.25 0 0 1 -1.25,1.25 1.25,1.25 0 0 1 -1.25,-1.25 1.25,1.25 0 0 1 1.25,-1.25 1.25,1.25 0 0 1 1.25,1.25 z" />
    <path
       id="path3934-5-2"
       style="stroke-width:1.62803;stroke-linecap:round;stroke-linejoin:round"
       d="m 44.485324,7.4423466 a 1.25,1.25 0 0 1 -1.25,1.25 1.25,1.25 0 0 1 -1.25,-1.25 1.25,1.25 0 0 1 1.25,-1.25 1.25,1.25 0 0 1 1.25,1.25 z" />
    <g
       id="g5869">
      <path
         style="fill:none;stroke:#000000;stroke-width:2.5;stroke-linecap:round;stroke-linejoin:round;stroke-miterlimit:4;stroke-dasharray:none;stroke-opacity:1"
         d="m 50.812849,15.188397 7.916609,27.803791 M 50.787151,15.188397 42.870542,42.992188 h 15.858916"
         id="path1129"
         sodipodi:nodetypes="cccc" />
      <path
         style="fill:none;stroke:#000000;stroke-width:2.5;stroke-linecap:round;stroke-linejoin:round;stroke-miterlimit:4;stroke-dasharray:none;stroke-opacity:1"
         d="m 7.819026,51.339038 c 4.77291,9.456529 14.81988,9.986074 19.762538,1.979114 C 30.365055,48.808979 23.656189,26.68032 39.366718,34.985609 31.031574,24.580624 36.741289,10.68638 50.8,10.68638 c 14.058711,0 19.768426,13.894244 11.433282,24.299229 15.710529,-8.305289 9.001663,13.82337 11.785154,18.332543 4.942658,8.00696 14.989628,7.477415 19.762538,-1.979114"
         id="path3431"
         sodipodi:nodetypes="csczcsc" />
      <path
         style="fill:none;stroke:#000000;stroke-width:2.5;stroke-linecap:round;stroke-linejoin:round;stroke-miterlimit:4;stroke-dasharray:none;stroke-opacity:1"
         d="M 8.8250103,85.12473 C 30.956114,97.724633 49.480903,85.233394 45.761797,60.236623 M 92.77499,85.12473 C 70.643886,97.724633 52.119097,85.233394 55.838203,60.236623"
         id="path4494"
         sodipodi:nodetypes="cc" />
      <path
         style="fill:none;stroke:#000000;stroke-width:2.5;stroke-linecap:round;stroke-linejoin:round;stroke-miterlimit:4;stroke-dasharray:none;stroke-opacity:1"
         d="m 39.748716,85.326702 c 0.507554,3.084368 8.316783,5.036105 11.051284,5.036105 2.734501,0 10.54373,-1.951737 11.051284,-5.036105"
         id="path4761"
         sodipodi:nodetypes="czc" />
      <path
         style="fill:none;stroke:#000000;stroke-width:2.5;stroke-linecap:round;stroke-linejoin:round;stroke-miterlimit:4;stroke-dasharray:none;stroke-opacity:1"
         d="M 26.184041,62.3733 C 21.439154,65.711664 14.074397,65.212744 9.9821239,61.63946 M 75.415959,62.3733 c 4.744887,3.338364 12.109644,2.839444 16.201917,-0.73384"
         id="path2309"
         sodipodi:nodetypes="cc" />
      <path
         style="fill:none;stroke:#000000;stroke-width:2.5;stroke-linecap:round;stroke-linejoin:round;stroke-miterlimit:4;stroke-dasharray:none;stroke-opacity:1"
         d="m 37.135696,42.84888 v 35.528862 h -21.42444 c 9.42668,-7.393631 20.291883,-16.763608 21.42444,-35.528862 z m 27.328608,0 v 35.528862 h 21.42444 C 76.462064,70.984111 65.596861,61.614134 64.464304,42.84888 Z"
         id="path3139"
         sodipodi:nodetypes="cccc" />
      <path
         id="path3838"
         d="m 48.026453,51.150848 c 0,1.824161 -1.478774,3.302935 -3.302935,3.302935 -1.82416,0 -3.302934,-1.478774 -3.302934,-3.302935 0,-1.82416 1.478774,-3.302934 3.302934,-3.302934 1.824161,0 3.302935,1.478774 3.302935,3.302934 z m 5.547094,0 c 0,1.824161 1.478774,3.302935 3.302935,3.302935 1.82416,0 3.302934,-1.478774 3.302934,-3.302935 0,-1.82416 -1.478774,-3.302934 -3.302934,-3.302934 -1.824161,0 -3.302935,1.478774 -3.302935,3.302934 z"
         style="fill:none;stroke:#000000;stroke-width:2.5;stroke-linecap:round;stroke-linejoin:round;stroke-miterlimit:4;stroke-dasharray:none;stroke-opacity:1" />
    </g>
  </g>
</svg>
