<?xml version="1.0" encoding="UTF-8" standalone="no"?>
<!-- Created with Inkscape (http://www.inkscape.org/) -->

<svg
   width="4in"
   height="4in"
   viewBox="0 0 101.6 101.6"
   version="1.1"
   id="svg5"
   sodipodi:docname="black.svg"
   inkscape:version="1.3.2 (091e20e, 2023-11-25)"
   xmlns:inkscape="http://www.inkscape.org/namespaces/inkscape"
   xmlns:sodipodi="http://sodipodi.sourceforge.net/DTD/sodipodi-0.dtd"
   xmlns="http://www.w3.org/2000/svg"
   xmlns:svg="http://www.w3.org/2000/svg">
  <sodipodi:namedview
     id="namedview7"
     pagecolor="#ffffff"
     bordercolor="#666666"
     borderopacity="1.0"
     inkscape:pageshadow="2"
     inkscape:pageopacity="0.0"
     inkscape:pagecheckerboard="0"
     inkscape:document-units="mm"
     showgrid="false"
     units="in"
     inkscape:zoom="0.88393647"
     inkscape:cx="192.88717"
     inkscape:cy="171.39241"
     inkscape:window-width="1280"
     inkscape:window-height="694"
     inkscape:window-x="0"
     inkscape:window-y="25"
     inkscape:window-maximized="0"
     inkscape:current-layer="layer2"
     inkscape:object-nodes="false"
     inkscape:showpageshadow="2"
     inkscape:deskcolor="#d1d1d1" />
  <defs
     id="defs2">
    <inkscape:path-effect
       effect="mirror_symmetry"
       start_point="50.8,0"
       end_point="50.8,101.6"
       center_point="50.8,50.8"
       id="path-effect9"
       is_visible="true"
       lpeversion="1.2"
       lpesatellites=""
       mode="vertical"
       discard_orig_path="false"
       fuse_paths="false"
       oposite_fuse="false"
       split_items="false"
       split_open="false"
       link_styles="false" />
    <inkscape:path-effect
       effect="mirror_symmetry"
       start_point="50.8,0"
       end_point="50.8,101.6"
       center_point="50.8,50.8"
       id="path-effect8"
       is_visible="true"
       lpeversion="1.2"
       lpesatellites=""
       mode="vertical"
       discard_orig_path="false"
       fuse_paths="false"
       oposite_fuse="false"
       split_items="false"
       split_open="false"
       link_styles="false" />
    <inkscape:path-effect
       effect="mirror_symmetry"
       start_point="50.142742,66.562726"
       end_point="50.142742,89.846973"
       center_point="50.142742,78.204849"
       id="path-effect7"
       is_visible="true"
       lpeversion="1.2"
       lpesatellites=""
       mode="free"
       discard_orig_path="false"
       fuse_paths="true"
       oposite_fuse="false"
       split_items="false"
       split_open="false"
       link_styles="false" />
    <inkscape:path-effect
       effect="mirror_symmetry"
       start_point="49.070295,-0.69188199"
       end_point="49.070295,100.90812"
       center_point="49.070295,50.108118"
       id="path-effect3"
       is_visible="true"
       lpeversion="1.2"
       lpesatellites=""
       mode="vertical"
       discard_orig_path="false"
       fuse_paths="false"
       oposite_fuse="false"
       split_items="false"
       split_open="false"
       link_styles="false" />
    <inkscape:path-effect
       effect="mirror_symmetry"
       start_point="49.811823,58.343014"
       end_point="49.811823,68.736744"
       center_point="49.811823,63.539879"
       id="path-effect2"
       is_visible="true"
       lpeversion="1.2"
       lpesatellites=""
       mode="free"
       discard_orig_path="false"
       fuse_paths="true"
       oposite_fuse="false"
       split_items="false"
       split_open="false"
       link_styles="false" />
    <inkscape:path-effect
       effect="mirror_symmetry"
       start_point="50.347432,44.991324"
       end_point="50.347432,65.166004"
       center_point="50.347432,55.078664"
       id="path-effect1"
       is_visible="true"
       lpeversion="1.2"
       lpesatellites=""
       mode="free"
       discard_orig_path="false"
       fuse_paths="true"
       oposite_fuse="false"
       split_items="false"
       split_open="false"
       link_styles="false" />
    <inkscape:path-effect
       effect="mirror_symmetry"
       start_point="51.597191,9.6409971"
       end_point="51.597191,64.482463"
       center_point="51.597191,37.06173"
       id="path-effect4"
       is_visible="true"
       lpeversion="1.2"
       lpesatellites=""
       mode="free"
       discard_orig_path="false"
       fuse_paths="true"
       oposite_fuse="false"
       split_items="false"
       split_open="false"
       link_styles="false" />
    <inkscape:path-effect
       effect="mirror_symmetry"
       start_point="53.633396,10.68638"
       end_point="53.633396,95.00827"
       center_point="53.633396,52.847325"
       id="path-effect5871"
       is_visible="true"
       lpeversion="1.1"
       mode="vertical"
       discard_orig_path="false"
       fuse_paths="false"
       oposite_fuse="false"
       split_items="false"
       split_open="false" />
  </defs>
  <g
     inkscape:groupmode="layer"
     id="layer2"
     inkscape:label="Layer 2">
    <path
       style="fill:none;stroke:#1c0000;stroke-width:2.5;stroke-linecap:round;stroke-linejoin:round"
       d="M 95.434248,62.309412 C 71.396017,74.7746 87.45543,29.392431 67.403939,32.850807 74.366882,23.388346 66.88135,9.6409971 50.8,9.6409971 34.71865,9.6409971 27.233118,23.388346 34.196061,32.850807 14.14457,29.392431 30.203983,74.7746 6.1657519,62.309412"
       id="path1"
       sodipodi:nodetypes="ccccc" />
    <path
       style="fill:none;stroke:#1c0000;stroke-width:2.5;stroke-linecap:round;stroke-linejoin:round"
       d="m 40.388541,22.252857 c 1.841258,12.914519 5.381507,18.902774 -8.30068,30.95735 m 25.664188,-30.95735 c -1.841258,12.914519 -5.381507,18.902774 8.30068,30.95735"
       id="path2"
       sodipodi:nodetypes="cc"
       inkscape:path-effect="#path-effect3"
       inkscape:original-d="m 40.388541,22.252857 c 1.841258,12.914519 5.381507,18.902774 -8.30068,30.95735"
       transform="translate(1.7297049,0.69188199)" />
    <path
       style="fill:none;stroke:#1c0000;stroke-width:2.5;stroke-linecap:round;stroke-linejoin:round"
       d="M 28.839952,65.166004 C 39.49825,61.522601 46.322669,54.340234 50.8,44.991324 c 4.477331,9.34891 11.30175,16.531277 21.960048,20.17468"
       id="path3"
       sodipodi:nodetypes="ccc" />
    <path
       style="fill:none;stroke:#1c0000;stroke-width:2.5;stroke-linecap:round;stroke-linejoin:round"
       d="m 41.834565,58.343014 c 4.43205,2.778323 7.383571,5.715284 8.965435,10.39373 1.581864,-4.678446 4.533385,-7.615407 8.965435,-10.39373"
       id="path4"
       sodipodi:nodetypes="ccc" />
    <path
       id="path4106"
       d="m 42.486984,17.647522 c 0,0.690356 -0.559644,1.25 -1.25,1.25 -0.690356,0 -1.25,-0.559644 -1.25,-1.25 0,-0.690356 0.559644,-1.25 1.25,-1.25 0.690356,0 1.25,0.559644 1.25,1.25 z m 16.626032,0 c 0,0.690356 0.559644,1.25 1.25,1.25 0.690356,0 1.25,-0.559644 1.25,-1.25 0,-0.690356 -0.559644,-1.25 -1.25,-1.25 -0.690356,0 -1.25,0.559644 -1.25,1.25 z"
       style="fill:#000000;fill-opacity:1;stroke:none;stroke-width:1.18818;stroke-linecap:round;stroke-linejoin:round;stop-color:#000000" />
    <path
       id="path4106-2"
       d="m 29.903484,56.168152 c 0,0.690356 -0.559644,1.25 -1.25,1.25 -0.690356,0 -1.25,-0.559644 -1.25,-1.25 0,-0.690356 0.559644,-1.25 1.25,-1.25 0.690356,0 1.25,0.559644 1.25,1.25 z m 41.793032,0 c 0,0.690356 0.559644,1.25 1.25,1.25 0.690356,0 1.25,-0.559644 1.25,-1.25 0,-0.690356 -0.559644,-1.25 -1.25,-1.25 -0.690356,0 -1.25,0.559644 -1.25,1.25 z"
       style="fill:#000000;fill-opacity:1;stroke:none;stroke-width:1.18818;stroke-linecap:round;stroke-linejoin:round;stop-color:#000000" />
    <path
       id="path5"
       d="m 36.933789,41.970459 c 0,2.465082 -1.998344,4.463425 -4.463425,4.463425 -2.465082,0 -4.463426,-1.998343 -4.463426,-4.463425 0,-2.465082 1.998344,-4.463425 4.463426,-4.463425 2.465081,0 4.463425,1.998343 4.463425,4.463425 z m 27.732422,0 c 0,2.465082 1.998344,4.463425 4.463425,4.463425 2.465082,0 4.463426,-1.998343 4.463426,-4.463425 0,-2.465082 -1.998344,-4.463425 -4.463426,-4.463425 -2.465081,0 -4.463425,1.998343 -4.463425,4.463425 z"
       style="fill:none;stroke:#1c0000;stroke-width:2.5;stroke-linecap:round;stroke-linejoin:round" />
    <g
       id="g9"
       transform="translate(0.04710655)">
      <circle
         style="fill:#000000;fill-opacity:1;stroke:none;stroke-width:1.18818;stroke-linecap:round;stroke-linejoin:round;stop-color:#000000"
         id="path4106-27"
         cx="41.400333"
         cy="7.0770345"
         r="1.25" />
      <circle
         style="fill:#000000;fill-opacity:1;stroke:none;stroke-width:1.18818;stroke-linecap:round;stroke-linejoin:round;stop-color:#000000"
         id="path4106-9"
         cx="47.635372"
         cy="4.9603677"
         r="1.25" />
      <circle
         style="fill:#000000;fill-opacity:1;stroke:none;stroke-width:1.18818;stroke-linecap:round;stroke-linejoin:round;stop-color:#000000"
         id="path4106-9-3"
         cx="60.105453"
         cy="7.0770345"
         r="1.25" />
      <circle
         style="fill:#000000;fill-opacity:1;stroke:none;stroke-width:1.18818;stroke-linecap:round;stroke-linejoin:round;stop-color:#000000"
         id="path4106-9-6"
         cx="53.870415"
         cy="4.9603677"
         r="1.25" />
    </g>
    <path
       style="fill:none;stroke:#1c0000;stroke-width:2.5;stroke-linecap:round;stroke-linejoin:round"
       d="M 5.2684716,67.963283 C 13.58134,71.637822 17.812261,69.712558 20.722655,67.787669 m 75.608873,0.175614 C 88.01866,71.637822 83.787739,69.712558 80.877345,67.787669"
       id="path6"
       sodipodi:nodetypes="cc" />
    <path
       style="fill:none;stroke:#1c0000;stroke-width:2.5;stroke-linecap:round;stroke-linejoin:round"
       d="M 95.089955,87.225411 C 77.030045,96.671612 70.039357,78.444762 60.510742,66.562726 54.33051,68.936107 53.007175,73.899832 50.8,78.392176 48.592825,73.899832 47.26949,68.936107 41.089258,66.562726 31.560643,78.444762 24.569955,96.671612 6.510045,87.225411"
       id="path7"
       sodipodi:nodetypes="ccccc" />
    <path
       style="fill:none;stroke:#1c0000;stroke-width:2.5;stroke-linecap:round;stroke-linejoin:round"
       d="M 50.8,78.022491 V 90.488152"
       id="path8"
       sodipodi:nodetypes="cc" />
    <path
       style="fill:none;stroke:#1c0000;stroke-width:2.5;stroke-linecap:round;stroke-linejoin:round"
       d="M 42.749006,27.215584 H 58.282429"
       id="path9" />
  </g>
</svg>
