<?xml version="1.0" encoding="UTF-8" standalone="no"?>
<!-- Created with Inkscape (http://www.inkscape.org/) -->

<svg
   width="4in"
   height="4in"
   viewBox="0 0 101.6 101.6"
   version="1.1"
   id="svg5"
   sodipodi:docname="brown.svg"
   inkscape:version="1.1 (c4e8f9e, 2021-05-24)"
   xmlns:inkscape="http://www.inkscape.org/namespaces/inkscape"
   xmlns:sodipodi="http://sodipodi.sourceforge.net/DTD/sodipodi-0.dtd"
   xmlns="http://www.w3.org/2000/svg"
   xmlns:svg="http://www.w3.org/2000/svg">
  <sodipodi:namedview
     id="namedview7"
     pagecolor="#ffffff"
     bordercolor="#666666"
     borderopacity="1.0"
     inkscape:pageshadow="2"
     inkscape:pageopacity="0.0"
     inkscape:pagecheckerboard="0"
     inkscape:document-units="mm"
     showgrid="false"
     units="in"
     inkscape:zoom="1.4819524"
     inkscape:cx="-21.593136"
     inkscape:cy="174.76945"
     inkscape:window-width="1920"
     inkscape:window-height="974"
     inkscape:window-x="0"
     inkscape:window-y="25"
     inkscape:window-maximized="1"
     inkscape:current-layer="g5869"
     inkscape:object-nodes="false" />
  <defs
     id="defs2">
    <inkscape:path-effect
       effect="mirror_symmetry"
       start_point="53.633396,10.68638"
       end_point="53.633396,95.00827"
       center_point="53.633396,52.847325"
       id="path-effect5871"
       is_visible="true"
       lpeversion="1.1"
       mode="vertical"
       discard_orig_path="false"
       fuse_paths="false"
       oposite_fuse="false"
       split_items="false"
       split_open="false" />
  </defs>
  <g
     inkscape:label="Layer 1"
     inkscape:groupmode="layer"
     id="layer1"
     style="display:none">
    <path
       style="fill:none;stroke:#e60000;stroke-width:0.264583px;stroke-linecap:butt;stroke-linejoin:miter;stroke-opacity:1"
       d="M 50.8,-3.6686403 V 116.66275"
       id="path2192" />
  </g>
  <g
     inkscape:groupmode="layer"
     id="layer2"
     inkscape:label="Layer 2">
    <g
       id="g5957"
       transform="translate(-0.08350487)">
      <circle
         style="opacity:1;fill:#000000;fill-opacity:1;stroke:none;stroke-width:1.62803;stroke-linecap:round;stroke-linejoin:round;stroke-miterlimit:4;stroke-dasharray:none;stroke-opacity:1"
         id="path3934"
         cx="58.448181"
         cy="7.4423466"
         r="1.25" />
      <circle
         style="fill:#000000;fill-opacity:1;stroke:none;stroke-width:1.62803;stroke-linecap:round;stroke-linejoin:round;stroke-miterlimit:4;stroke-dasharray:none;stroke-opacity:1"
         id="path3934-5"
         cx="53.40506"
         cy="6.0586848"
         r="1.25" />
      <circle
         style="fill:#000000;fill-opacity:1;stroke:none;stroke-width:1.62803;stroke-linecap:round;stroke-linejoin:round;stroke-miterlimit:4;stroke-dasharray:none;stroke-opacity:1"
         id="path3934-8"
         cx="48.361946"
         cy="6.0586848"
         r="1.25" />
      <circle
         style="fill:#000000;fill-opacity:1;stroke:none;stroke-width:1.62803;stroke-linecap:round;stroke-linejoin:round;stroke-miterlimit:4;stroke-dasharray:none;stroke-opacity:1"
         id="path3934-5-2"
         cx="43.318829"
         cy="7.4423466"
         r="1.25" />
    </g>
    <g
       id="g5869">
      <path
         style="fill:none;stroke:#000000;stroke-width:2.5;stroke-linecap:round;stroke-linejoin:round;stroke-miterlimit:4;stroke-dasharray:none;stroke-opacity:1"
         d="m 50.812849,38.21967 7.916609,7.986184 m -7.942307,-7.986184 -7.916609,7.986184 h 15.858916"
         id="path1129"
         sodipodi:nodetypes="cccc" />
      <path
         style="fill:none;stroke:#000000;stroke-width:2.5;stroke-linecap:round;stroke-linejoin:round;stroke-miterlimit:4;stroke-dasharray:none;stroke-opacity:1"
         d="M 42.044773,23.737778 C 36.744758,18.510366 36.741289,10.68638 50.8,10.68638 c 14.058711,0 14.055242,7.823986 8.755227,13.051398"
         sodipodi:nodetypes="czc"
         id="path3431" />
      <path
         style="fill:none;stroke:#000000;stroke-width:2.5;stroke-linecap:round;stroke-linejoin:round;stroke-miterlimit:4;stroke-dasharray:none;stroke-opacity:1"
         d="m 42.044773,23.737778 c -6.605142,1.692783 -8.466052,4.717983 -10.356858,7.084712 -5.873272,7.351596 -17.667683,6.941804 -21.369371,2.662848 m 49.236683,-9.74756 c 6.605142,1.692783 8.466052,4.717983 10.356858,7.084712 5.873272,7.351596 17.667683,6.941804 21.369371,2.662848"
         id="path3639"
         sodipodi:nodetypes="csc" />
      <path
         style="fill:none;stroke:#000000;stroke-width:2.5;stroke-linecap:round;stroke-linejoin:round;stroke-miterlimit:4;stroke-dasharray:none;stroke-opacity:1"
         d="m 29.847069,39.107237 c -4.403796,3.040777 -10.165785,3.509855 -14.274614,2.243612 m 56.180476,-2.243612 c 4.403796,3.040777 10.165785,3.509855 14.274614,2.243612"
         id="path3639-9"
         sodipodi:nodetypes="cc" />
      <path
         style="fill:none;stroke:#000000;stroke-width:2.5;stroke-linecap:round;stroke-linejoin:round;stroke-miterlimit:4;stroke-dasharray:none;stroke-opacity:1"
         d="m 40.426059,29.421187 c 5.884237,2.06622 8.175048,-3.997687 5.884238,-11.319295 M 61.173941,29.421187 C 55.289704,31.487407 52.998893,25.4235 55.289703,18.101892"
         id="path4494"
         sodipodi:nodetypes="cc" />
      <path
         style="fill:none;stroke:#000000;stroke-width:2.5;stroke-linecap:round;stroke-linejoin:round;stroke-miterlimit:4;stroke-dasharray:none;stroke-opacity:1"
         d="m 46.890196,26.58803 c 0.507554,3.084368 1.175303,6.285864 3.909804,6.285864 2.734501,0 3.40225,-3.201496 3.909804,-6.285864"
         id="path4761"
         sodipodi:nodetypes="czc" />
      <path
         style="fill:none;stroke:#000000;stroke-width:2.5;stroke-linecap:round;stroke-linejoin:round;stroke-miterlimit:4;stroke-dasharray:none;stroke-opacity:1"
         d="M 37.084052,58.287615 C 20.937407,44.270198 34.553667,42.49529 50.8,56.069117 67.046333,42.49529 80.662593,44.270198 64.515948,58.287615"
         id="path5261"
         sodipodi:nodetypes="ccc" />
      <path
         style="fill:none;stroke:#000000;stroke-width:2.5;stroke-linecap:round;stroke-linejoin:round;stroke-opacity:1;stroke-miterlimit:4;stroke-dasharray:none"
         d="m 32.203969,60.976927 c 4.341537,1.415723 8.097708,1.368031 10.632747,-1.732491 m 26.559315,1.732491 c -4.341537,1.415723 -8.097708,1.368031 -10.632747,-1.732491"
         id="path5447"
         sodipodi:nodetypes="cc" />
      <path
         style="fill:none;stroke:#000000;stroke-width:2.5;stroke-linecap:round;stroke-linejoin:round;stroke-opacity:1;stroke-miterlimit:4;stroke-dasharray:none"
         d="m 8.5612961,74.616124 c 3.7714429,16.88354 25.7971549,23.890939 33.3595329,-4.206843 0.984443,-3.657667 2.946817,-5.81356 5.904344,-5.092497 m 45.213531,9.29934 c -3.771443,16.88354 -25.797155,23.890939 -33.359533,-4.206843 -0.984443,-3.657667 -2.946817,-5.81356 -5.904344,-5.092497"
         id="path5596"
         sodipodi:nodetypes="csc" />
      <path
         id="path3934-8-3"
         d="m 28.252119,93.75827 c 0,0.690356 -0.559644,1.25 -1.25,1.25 -0.690356,0 -1.25,-0.559644 -1.25,-1.25 0,-0.690356 0.559644,-1.25 1.25,-1.25 0.690356,0 1.25,0.559644 1.25,1.25 z m 45.095762,0 c 0,0.690356 0.559644,1.25 1.25,1.25 0.690356,0 1.25,-0.559644 1.25,-1.25 0,-0.690356 -0.559644,-1.25 -1.25,-1.25 -0.690356,0 -1.25,0.559644 -1.25,1.25 z"
         style="fill:#000000;fill-opacity:1;stroke:none;stroke-width:1.62803;stroke-linecap:round;stroke-linejoin:round;stroke-miterlimit:4;stroke-dasharray:none;stroke-opacity:1" />
      <path
         id="path3934-5-2-0"
         d="m 23.073072,93.75827 c 0,0.690356 -0.559644,1.25 -1.25,1.25 -0.690356,0 -1.25,-0.559644 -1.25,-1.25 0,-0.690356 0.559644,-1.25 1.25,-1.25 0.690356,0 1.25,0.559644 1.25,1.25 z m 55.453856,0 c 0,0.690356 0.559644,1.25 1.25,1.25 0.690356,0 1.25,-0.559644 1.25,-1.25 0,-0.690356 -0.559644,-1.25 -1.25,-1.25 -0.690356,0 -1.25,0.559644 -1.25,1.25 z"
         style="fill:#000000;fill-opacity:1;stroke:none;stroke-width:1.62803;stroke-linecap:round;stroke-linejoin:round;stroke-miterlimit:4;stroke-dasharray:none;stroke-opacity:1" />
    </g>
  </g>
</svg>
