<?xml version="1.0" encoding="UTF-8" standalone="no"?>
<!-- Created with Inkscape (http://www.inkscape.org/) -->

<svg
   width="4in"
   height="4in"
   viewBox="0 0 101.6 101.6"
   version="1.1"
   id="svg5"
   sodipodi:docname="by.svg"
   inkscape:version="1.1 (c4e8f9e, 2021-05-24)"
   xmlns:inkscape="http://www.inkscape.org/namespaces/inkscape"
   xmlns:sodipodi="http://sodipodi.sourceforge.net/DTD/sodipodi-0.dtd"
   xmlns="http://www.w3.org/2000/svg"
   xmlns:svg="http://www.w3.org/2000/svg">
  <sodipodi:namedview
     id="namedview7"
     pagecolor="#ffffff"
     bordercolor="#666666"
     borderopacity="1.0"
     inkscape:pageshadow="2"
     inkscape:pageopacity="0.0"
     inkscape:pagecheckerboard="0"
     inkscape:document-units="mm"
     showgrid="false"
     units="in"
     inkscape:zoom="0.74280644"
     inkscape:cx="-11.443089"
     inkscape:cy="210.01433"
     inkscape:window-width="1280"
     inkscape:window-height="694"
     inkscape:window-x="0"
     inkscape:window-y="25"
     inkscape:window-maximized="1"
     inkscape:current-layer="layer2"
     inkscape:object-nodes="false" />
  <defs
     id="defs2">
    <inkscape:path-effect
       effect="mirror_symmetry"
       start_point="58.925536,21.685124"
       end_point="58.925536,38.558655"
       center_point="58.925536,30.12189"
       id="path-effect2902"
       is_visible="true"
       lpeversion="1.1"
       mode="Y"
       discard_orig_path="false"
       fuse_paths="false"
       oposite_fuse="false"
       split_items="false"
       split_open="false" />
    <inkscape:path-effect
       effect="mirror_symmetry"
       start_point="49.86597,18.778356"
       end_point="49.541276,51.518151"
       center_point="49.703623,35.148254"
       id="path-effect1531"
       is_visible="true"
       lpeversion="1.1"
       mode="free"
       discard_orig_path="false"
       fuse_paths="false"
       oposite_fuse="false"
       split_items="false"
       split_open="false" />
    <inkscape:path-effect
       effect="mirror_symmetry"
       start_point="41.826844,53.063907"
       end_point="41.826844,91.473004"
       center_point="41.826844,72.268456"
       id="path-effect3132"
       is_visible="true"
       lpeversion="1.1"
       mode="vertical"
       discard_orig_path="false"
       fuse_paths="false"
       oposite_fuse="false"
       split_items="false"
       split_open="false" />
    <inkscape:path-effect
       effect="mirror_symmetry"
       start_point="25.848901,69.376189"
       end_point="25.848901,72.355523"
       center_point="25.848901,70.865856"
       id="path-effect2381"
       is_visible="true"
       lpeversion="1.1"
       mode="vertical"
       discard_orig_path="false"
       fuse_paths="false"
       oposite_fuse="false"
       split_items="false"
       split_open="false" />
    <inkscape:path-effect
       effect="mirror_symmetry"
       start_point="49.840579,11.712085"
       end_point="49.840579,65.52547"
       center_point="49.840579,38.618777"
       id="path-effect2202"
       is_visible="true"
       lpeversion="1.1"
       mode="free"
       discard_orig_path="false"
       fuse_paths="false"
       oposite_fuse="false"
       split_items="false"
       split_open="false" />
    <inkscape:path-effect
       effect="mirror_symmetry"
       start_point="53.633396,10.68638"
       end_point="53.633396,95.00827"
       center_point="53.633396,52.847325"
       id="path-effect5871"
       is_visible="true"
       lpeversion="1.1"
       mode="vertical"
       discard_orig_path="false"
       fuse_paths="false"
       oposite_fuse="false"
       split_items="false"
       split_open="false" />
    <inkscape:path-effect
       effect="mirror_symmetry"
       start_point="112.51747,35.76696"
       end_point="112.51747,64.785102"
       center_point="112.51747,50.276031"
       id="path-effect2740"
       is_visible="true"
       lpeversion="1.1"
       mode="free"
       discard_orig_path="false"
       fuse_paths="false"
       oposite_fuse="false"
       split_items="false"
       split_open="false" />
  </defs>
  <g
     inkscape:groupmode="layer"
     id="layer2"
     inkscape:label="Layer 2"
     style="display:inline">
    <path
       id="path3934"
       style="display:inline;stroke-width:1.62803;stroke-linecap:round;stroke-linejoin:round"
       d="m 59.614675,8.4680513 a 1.25,1.25 0 0 1 -1.25,1.25 1.25,1.25 0 0 1 -1.25,-1.25 1.25,1.25 0 0 1 1.25,-1.25 1.25,1.25 0 0 1 1.25,1.25 z" />
    <path
       id="path3934-5"
       style="display:inline;stroke-width:1.62803;stroke-linecap:round;stroke-linejoin:round"
       d="m 54.571555,7.0843895 a 1.25,1.25 0 0 1 -1.25,1.25 1.25,1.25 0 0 1 -1.25,-1.25 1.25,1.25 0 0 1 1.25,-1.25 1.25,1.25 0 0 1 1.25,1.25 z" />
    <path
       id="path3934-8"
       style="display:inline;stroke-width:1.62803;stroke-linecap:round;stroke-linejoin:round"
       d="m 49.528445,7.0843895 a 1.25,1.25 0 0 1 -1.25,1.25 1.25,1.25 0 0 1 -1.25,-1.25 1.25,1.25 0 0 1 1.25,-1.25 1.25,1.25 0 0 1 1.25,1.25 z" />
    <path
       id="path3934-5-2"
       style="display:inline;stroke-width:1.62803;stroke-linecap:round;stroke-linejoin:round"
       d="m 44.485325,8.4680513 a 1.25,1.25 0 0 1 -1.25,1.25 1.25,1.25 0 0 1 -1.25,-1.25 1.25,1.25 0 0 1 1.25,-1.25 1.25,1.25 0 0 1 1.25,1.25 z" />
    <path
       style="fill:none;stroke:#000000;stroke-width:2.5;stroke-linecap:round;stroke-linejoin:round;stroke-miterlimit:4;stroke-dasharray:none;stroke-opacity:1"
       d="m 10.472221,60.79254 c 5.241121,7.895826 16.224513,5.460035 14.612218,-3.951558 C 24.189687,51.617967 23.344048,41.908424 35.46496,44.439111 21.043074,22.797063 36.741289,11.712085 50.8,11.712085 c 14.058711,0 29.756926,11.084978 15.33504,32.727026 12.120912,-2.530687 11.275273,7.178856 10.380521,12.401871 -1.612295,9.411593 9.371097,11.847384 14.612218,3.951558"
       id="path3431"
       sodipodi:nodetypes="cscccsc" />
    <path
       style="fill:none;stroke:#000000;stroke-width:2.5;stroke-linecap:round;stroke-linejoin:round;stroke-miterlimit:4;stroke-dasharray:none;stroke-opacity:1"
       d="m 25.848901,70.110029 c -4.744887,3.338364 -12.109644,2.839444 -16.2019168,-0.73384 m 66.1041148,0.73384 c 4.744887,3.338364 12.109644,2.839444 16.201917,-0.73384"
       id="path2309"
       sodipodi:nodetypes="cc" />
    <g
       id="g3130">
      <path
         id="path3934-5-2-7"
         style="display:inline;stroke-width:1.62803;stroke-linecap:round;stroke-linejoin:round"
         d="m 34.432317,72.887209 c 0,0.690356 -0.559644,1.25 -1.25,1.25 -0.690356,0 -1.25,-0.559644 -1.25,-1.25 0,-0.690356 0.559644,-1.25 1.25,-1.25 0.690356,0 1.25,0.559644 1.25,1.25 z m 32.735366,0 c 0,0.690356 0.559644,1.25 1.25,1.25 0.690356,0 1.25,-0.559644 1.25,-1.25 0,-0.690356 -0.559644,-1.25 -1.25,-1.25 -0.690356,0 -1.25,0.559644 -1.25,1.25 z" />
      <path
         id="path3934-5-2-2"
         style="display:inline;stroke-width:1.62803;stroke-linecap:round;stroke-linejoin:round"
         d="m 31.792226,79.875685 c 0,0.690356 -0.559644,1.25 -1.25,1.25 -0.690356,0 -1.25,-0.559644 -1.25,-1.25 0,-0.690356 0.559644,-1.25 1.25,-1.25 0.690356,0 1.25,0.559644 1.25,1.25 z m 38.015548,0 c 0,0.690356 0.559644,1.25 1.25,1.25 0.690356,0 1.25,-0.559644 1.25,-1.25 0,-0.690356 -0.559644,-1.25 -1.25,-1.25 -0.690356,0 -1.25,0.559644 -1.25,1.25 z" />
      <path
         style="opacity:1;fill:none;stroke:#000000;stroke-width:2.5;stroke-linecap:round;stroke-linejoin:round;stroke-opacity:1;stop-color:#000000"
         d="m 30.277641,55.404961 c 0,0 4.994248,3.589618 11.549203,-2.341054 -7.280487,12.958478 2.036418,23.275099 -1.905952,30.075202 -5.627286,9.706377 -17.425269,11.747198 -30.4006028,1.763142 M 71.322359,55.404961 c 0,0 -4.994248,3.589618 -11.549203,-2.341054 7.280487,12.958478 -2.036418,23.275099 1.905952,30.075202 5.627286,9.706377 17.425269,11.747198 30.400603,1.763142"
         id="path2473"
         sodipodi:nodetypes="ccsc" />
    </g>
    <path
       style="opacity:1;fill:none;stroke:#000000;stroke-width:2.5;stroke-linecap:round;stroke-linejoin:round;stroke-opacity:1;stop-color:#000000"
       d="m 39.732164,68.906566 c 0,0 4.280888,4.560453 11.088772,4.560453 6.807884,0 11.088772,-4.560453 11.088772,-4.560453"
       id="path3185"
       sodipodi:nodetypes="czc" />
    <path
       sodipodi:type="star"
       style="fill:none;fill-opacity:1;stroke:#1c0000;stroke-width:9.44882;stroke-linecap:round;stroke-linejoin:round;stop-color:#000000"
       id="path3270"
       inkscape:flatsided="false"
       sodipodi:sides="4"
       sodipodi:cx="166.81317"
       sodipodi:cy="87.06324"
       sodipodi:r1="41.183765"
       sodipodi:r2="13.590642"
       sodipodi:arg1="0.78539816"
       sodipodi:arg2="1.5707963"
       inkscape:rounded="0.15"
       inkscape:randomized="0"
       d="m 195.93449,116.18456 c -3.50058,3.50059 -24.17074,-15.53068 -29.12132,-15.53068 -4.95057,0 -25.62073,19.03127 -29.12132,15.53068 -3.50058,-3.50059 15.53068,-24.170744 15.53068,-29.12132 0,-4.950575 -19.03126,-25.620734 -15.53068,-29.12132 3.50059,-3.500585 24.17075,15.530678 29.12132,15.530678 4.95058,0 25.62074,-19.031263 29.12132,-15.530678 3.50059,3.500586 -15.53068,24.170744 -15.53068,29.12132 0,4.950575 19.03127,25.62073 15.53068,29.12132 z"
       transform="matrix(0.26458333,0,0,0.26458333,6.6640156,7.7846943)" />
  </g>
</svg>
