<?xml version="1.0" encoding="UTF-8" standalone="no"?>
<!-- Created with Inkscape (http://www.inkscape.org/) -->

<svg
   width="4in"
   height="4in"
   viewBox="0 0 101.6 101.6"
   version="1.1"
   id="svg5"
   sodipodi:docname="can.svg"
   inkscape:version="1.1 (c4e8f9e, 2021-05-24)"
   xmlns:inkscape="http://www.inkscape.org/namespaces/inkscape"
   xmlns:sodipodi="http://sodipodi.sourceforge.net/DTD/sodipodi-0.dtd"
   xmlns="http://www.w3.org/2000/svg"
   xmlns:svg="http://www.w3.org/2000/svg">
  <sodipodi:namedview
     id="namedview7"
     pagecolor="#ffffff"
     bordercolor="#666666"
     borderopacity="1.0"
     inkscape:pageshadow="2"
     inkscape:pageopacity="0.0"
     inkscape:pagecheckerboard="0"
     inkscape:document-units="mm"
     showgrid="false"
     units="in"
     inkscape:zoom="0.42297781"
     inkscape:cx="27.188187"
     inkscape:cy="151.30817"
     inkscape:window-width="1280"
     inkscape:window-height="694"
     inkscape:window-x="0"
     inkscape:window-y="25"
     inkscape:window-maximized="1"
     inkscape:current-layer="layer2"
     inkscape:object-nodes="false" />
  <defs
     id="defs2">
    <inkscape:path-effect
       effect="mirror_symmetry"
       start_point="24.409847,90.066071"
       end_point="24.409847,92.566071"
       center_point="24.409847,91.316071"
       id="path-effect2718"
       is_visible="true"
       lpeversion="1.1"
       mode="vertical"
       discard_orig_path="false"
       fuse_paths="false"
       oposite_fuse="false"
       split_items="false"
       split_open="false" />
    <inkscape:path-effect
       effect="mirror_symmetry"
       start_point="46.06114,62.446526"
       end_point="46.06114,84.669497"
       center_point="46.06114,73.558011"
       id="path-effect2693"
       is_visible="true"
       lpeversion="1.1"
       mode="vertical"
       discard_orig_path="false"
       fuse_paths="false"
       oposite_fuse="false"
       split_items="false"
       split_open="false" />
    <inkscape:path-effect
       effect="mirror_symmetry"
       start_point="48.835871,4.3321809"
       end_point="48.835871,55.169318"
       center_point="48.835871,29.750749"
       id="path-effect1783"
       is_visible="true"
       lpeversion="1.1"
       mode="free"
       discard_orig_path="false"
       fuse_paths="true"
       oposite_fuse="false"
       split_items="false"
       split_open="false" />
    <inkscape:path-effect
       effect="mirror_symmetry"
       start_point="53.633396,10.68638"
       end_point="53.633396,95.00827"
       center_point="53.633396,52.847325"
       id="path-effect5871"
       is_visible="true"
       lpeversion="1.1"
       mode="vertical"
       discard_orig_path="false"
       fuse_paths="false"
       oposite_fuse="false"
       split_items="false"
       split_open="false" />
  </defs>
  <g
     inkscape:groupmode="layer"
     id="layer2"
     inkscape:label="Layer 2"
     style="display:inline"
     sodipodi:insensitive="true">
    <g
       id="g1781"
       transform="translate(1.964129)">
      <path
         style="opacity:1;fill:none;stroke:#000000;stroke-width:2.5;stroke-linecap:round;stroke-linejoin:round;stroke-opacity:1;stop-color:#000000"
         d="M 74.284168,39.449948 C 60.890436,32.003391 51.516162,17.063562 48.835871,4.3321809 46.15558,17.063562 36.781306,32.003391 23.387574,39.449948"
         id="path1084"
         sodipodi:nodetypes="cc" />
      <path
         style="opacity:1;fill:none;stroke:#000000;stroke-width:2.5;stroke-linecap:round;stroke-linejoin:round;stroke-opacity:1;stop-color:#000000"
         d="m 31.270059,33.726993 c 8.152551,1.228467 17.565812,21.442325 17.565812,21.442325 0,0 9.413261,-20.213858 17.565812,-21.442325"
         id="path1564"
         sodipodi:nodetypes="cc" />
    </g>
    <g
       id="g2030"
       transform="translate(1.1422174,1.0583333)">
      <circle
         style="opacity:1;fill:none;stroke:#000000;stroke-width:2.5;stroke-linecap:round;stroke-linejoin:round;stroke-opacity:1;stop-color:#000000"
         id="path1924"
         cx="31.953421"
         cy="50.430576"
         r="5.2337942" />
      <circle
         style="display:inline;fill:none;stroke:#000000;stroke-width:2.5;stroke-linecap:round;stroke-linejoin:round;stroke-opacity:1;stop-color:#000000"
         id="path1924-7"
         cx="67.362144"
         cy="50.430576"
         r="5.2337942" />
    </g>
    <path
       style="opacity:1;fill:none;stroke:#000000;stroke-width:2.5;stroke-linecap:round;stroke-linejoin:round;stroke-opacity:1;stop-color:#000000"
       d="m 46.06114,73.370116 c 0,-16.910549 -14.371419,-11.84536 -15.66173,-0.552319 C 28.253041,91.603212 4.2336692,87.99206 10.013291,62.446526 m 45.525569,10.92359 c 0,-16.910549 14.371419,-11.84536 15.66173,-0.552319 2.146369,18.785415 26.165741,15.174263 20.386119,-10.371271"
       id="path2080"
       sodipodi:nodetypes="csc" />
    <g
       id="g2716">
      <path
         id="path2545"
         d="m 18.844036,91.316071 c 0,0.690355 -0.559644,1.25 -1.25,1.25 -0.690356,0 -1.25,-0.559645 -1.25,-1.25 0,-0.690356 0.559644,-1.25 1.25,-1.25 0.690356,0 1.25,0.559644 1.25,1.25 z m 63.911928,0 c 0,0.690355 0.559644,1.25 1.25,1.25 0.690356,0 1.25,-0.559645 1.25,-1.25 0,-0.690356 -0.559644,-1.25 -1.25,-1.25 -0.690356,0 -1.25,0.559644 -1.25,1.25 z"
         style="opacity:1;fill:#000000;fill-opacity:1;stroke:none;stroke-width:2.5;stroke-linecap:round;stroke-linejoin:round;stroke-opacity:1;stop-color:#000000" />
      <path
         id="path2545-5"
         d="m 24.409847,91.316071 c 0,0.690355 -0.559644,1.25 -1.25,1.25 -0.690356,0 -1.25,-0.559645 -1.25,-1.25 0,-0.690356 0.559644,-1.25 1.25,-1.25 0.690356,0 1.25,0.559644 1.25,1.25 z m 52.780306,0 c 0,0.690355 0.559644,1.25 1.25,1.25 0.690356,0 1.25,-0.559645 1.25,-1.25 0,-0.690356 -0.559644,-1.25 -1.25,-1.25 -0.690356,0 -1.25,0.559644 -1.25,1.25 z"
         style="display:inline;fill:#000000;fill-opacity:1;stroke:none;stroke-width:2.5;stroke-linecap:round;stroke-linejoin:round;stroke-opacity:1;stop-color:#000000" />
    </g>
  </g>
</svg>
