<?xml version="1.0" encoding="UTF-8" standalone="no"?>
<!-- Created with Inkscape (http://www.inkscape.org/) -->

<svg
   width="4in"
   height="4in"
   viewBox="0 0 101.6 101.6"
   version="1.1"
   id="svg5"
   sodipodi:docname="forbidden.svg"
   inkscape:version="1.3.2 (091e20e, 2023-11-25)"
   xml:space="preserve"
   xmlns:inkscape="http://www.inkscape.org/namespaces/inkscape"
   xmlns:sodipodi="http://sodipodi.sourceforge.net/DTD/sodipodi-0.dtd"
   xmlns="http://www.w3.org/2000/svg"
   xmlns:svg="http://www.w3.org/2000/svg"><sodipodi:namedview
     id="namedview7"
     pagecolor="#ffffff"
     bordercolor="#666666"
     borderopacity="1.0"
     inkscape:pageshadow="2"
     inkscape:pageopacity="0.0"
     inkscape:pagecheckerboard="0"
     inkscape:document-units="mm"
     showgrid="false"
     units="in"
     inkscape:zoom="4.6123534"
     inkscape:cx="114.9088"
     inkscape:cy="206.40222"
     inkscape:window-width="1280"
     inkscape:window-height="693"
     inkscape:window-x="0"
     inkscape:window-y="25"
     inkscape:window-maximized="0"
     inkscape:current-layer="layer2"
     inkscape:object-nodes="false"
     inkscape:showpageshadow="2"
     inkscape:deskcolor="#d1d1d1" /><defs
     id="defs2"><inkscape:path-effect
       effect="mirror_symmetry"
       start_point="50.8,0"
       end_point="50.8,101.6"
       center_point="50.8,50.8"
       id="path-effect10"
       is_visible="true"
       lpeversion="1.2"
       lpesatellites=""
       mode="vertical"
       discard_orig_path="false"
       fuse_paths="false"
       oposite_fuse="false"
       split_items="false"
       split_open="false"
       link_styles="false" /><inkscape:path-effect
       effect="mirror_symmetry"
       start_point="57.317336,2.0932468"
       end_point="57.317336,103.69325"
       center_point="57.317336,52.893247"
       id="path-effect9"
       is_visible="true"
       lpeversion="1.2"
       lpesatellites=""
       mode="vertical"
       discard_orig_path="false"
       fuse_paths="false"
       oposite_fuse="false"
       split_items="false"
       split_open="false"
       link_styles="false" /><inkscape:path-effect
       effect="mirror_symmetry"
       start_point="51.159679,50.415537"
       end_point="51.159679,86.28249"
       center_point="51.159679,68.349013"
       id="path-effect6"
       is_visible="true"
       lpeversion="1.2"
       lpesatellites=""
       mode="free"
       discard_orig_path="false"
       fuse_paths="true"
       oposite_fuse="false"
       split_items="false"
       split_open="false"
       link_styles="false" /><inkscape:path-effect
       effect="mirror_symmetry"
       start_point="50.8,0"
       end_point="50.8,101.6"
       center_point="50.8,50.8"
       id="path-effect5"
       is_visible="true"
       lpeversion="1.2"
       lpesatellites=""
       mode="vertical"
       discard_orig_path="false"
       fuse_paths="false"
       oposite_fuse="false"
       split_items="false"
       split_open="false"
       link_styles="false" /><inkscape:path-effect
       effect="mirror_symmetry"
       start_point="35.921024,-35.921024"
       end_point="107.76307,35.921024"
       center_point="71.842049,7.1054274e-15"
       id="path-effect4"
       is_visible="true"
       lpeversion="1.2"
       lpesatellites=""
       mode="vertical"
       discard_orig_path="false"
       fuse_paths="true"
       oposite_fuse="false"
       split_items="false"
       split_open="false"
       link_styles="false" /><inkscape:path-effect
       effect="mirror_symmetry"
       start_point="50.8,0"
       end_point="50.8,101.6"
       center_point="50.8,50.8"
       id="path-effect3"
       is_visible="true"
       lpeversion="1.2"
       lpesatellites=""
       mode="vertical"
       discard_orig_path="false"
       fuse_paths="false"
       oposite_fuse="false"
       split_items="false"
       split_open="false"
       link_styles="false" /><inkscape:path-effect
       effect="mirror_symmetry"
       start_point="50.8,0"
       end_point="50.8,101.6"
       center_point="50.8,50.8"
       id="path-effect2"
       is_visible="true"
       lpeversion="1.2"
       lpesatellites=""
       mode="vertical"
       discard_orig_path="false"
       fuse_paths="false"
       oposite_fuse="false"
       split_items="false"
       split_open="false"
       link_styles="false" /><inkscape:path-effect
       effect="mirror_symmetry"
       start_point="48.050403,0.36661291"
       end_point="48.050403,101.96661"
       center_point="48.050403,51.166613"
       id="path-effect1"
       is_visible="true"
       lpeversion="1.2"
       lpesatellites=""
       mode="vertical"
       discard_orig_path="false"
       fuse_paths="false"
       oposite_fuse="false"
       split_items="false"
       split_open="false"
       link_styles="false" /><inkscape:path-effect
       effect="mirror_symmetry"
       start_point="53.633396,10.68638"
       end_point="53.633396,95.00827"
       center_point="53.633396,52.847325"
       id="path-effect5871"
       is_visible="true"
       lpeversion="1.1"
       mode="vertical"
       discard_orig_path="false"
       fuse_paths="false"
       oposite_fuse="false"
       split_items="false"
       split_open="false" /><inkscape:path-effect
       effect="mirror_symmetry"
       start_point="45.649896,-24.298218"
       end_point="45.649896,77.301782"
       center_point="45.649896,26.501782"
       id="path-effect1-3"
       is_visible="true"
       lpeversion="1.2"
       lpesatellites=""
       mode="vertical"
       discard_orig_path="false"
       fuse_paths="false"
       oposite_fuse="false"
       split_items="false"
       split_open="false"
       link_styles="false" /></defs><g
     inkscape:groupmode="layer"
     id="layer2"
     inkscape:label="Layer 2"
     style="display:inline"><path
       id="path4106"
       d="m 63.237318,91.084866 c 0,0.690355 -0.559644,1.25 -1.25,1.25 -0.690356,0 -1.25,-0.559645 -1.25,-1.25 0,-0.690356 0.559644,-1.25 1.25,-1.25 0.690356,0 1.25,0.559644 1.25,1.25 z"
       style="fill:#000000;fill-opacity:1;stroke:none;stroke-width:1.18818;stroke-linecap:round;stroke-linejoin:round;stop-color:#000000"
       sodipodi:nodetypes="sssss" /><path
       id="path4106-9"
       d="m 66.894447,91.084866 c 0,0.690355 -0.559644,1.25 -1.25,1.25 -0.690356,0 -1.25,-0.559645 -1.25,-1.25 0,-0.690356 0.559644,-1.25 1.25,-1.25 0.690356,0 1.25,0.559644 1.25,1.25 z"
       style="fill:#000000;fill-opacity:1;stroke:none;stroke-width:1.18818;stroke-linecap:round;stroke-linejoin:round;stop-color:#000000"
       sodipodi:nodetypes="sssss" /><path
       id="path4106-7"
       d="m 92.21412,91.084866 c 0,0.690355 -0.559644,1.25 -1.25,1.25 -0.690356,0 -1.25,-0.559645 -1.25,-1.25 0,-0.690356 0.559644,-1.25 1.25,-1.25 0.690356,0 1.25,0.559644 1.25,1.25 z"
       style="display:inline;fill:#000000;fill-opacity:1;stroke:none;stroke-width:1.18818;stroke-linecap:round;stroke-linejoin:round;stop-color:#000000"
       sodipodi:nodetypes="sssss" /><path
       id="path4106-9-0"
       d="m 95.871249,91.084866 c 0,0.690355 -0.559644,1.25 -1.25,1.25 -0.690356,0 -1.25,-0.559645 -1.25,-1.25 0,-0.690356 0.559644,-1.25 1.25,-1.25 0.690356,0 1.25,0.559644 1.25,1.25 z"
       style="display:inline;fill:#000000;fill-opacity:1;stroke:none;stroke-width:1.18818;stroke-linecap:round;stroke-linejoin:round;stop-color:#000000"
       sodipodi:nodetypes="sssss" /><path
       id="path4106-9-0-3"
       d="m 23.061469,47.739937 c 0,0.690355 -0.559644,1.25 -1.25,1.25 -0.690356,0 -1.25,-0.559645 -1.25,-1.25 0,-0.690356 0.559644,-1.25 1.25,-1.25 0.690356,0 1.25,0.559644 1.25,1.25 z"
       style="display:inline;fill:#000000;fill-opacity:1;stroke:none;stroke-width:1.18818;stroke-linecap:round;stroke-linejoin:round;stop-color:#000000"
       sodipodi:nodetypes="sssss" /><path
       id="path4106-9-0-3-9"
       d="m 29.326112,46.681606 c 0,0.690355 -0.559643,1.25 -1.25,1.25 -0.690356,0 -1.25,-0.559645 -1.25,-1.25 0,-0.690356 0.559644,-1.25 1.25,-1.25 0.690357,0 1.25,0.559644 1.25,1.25 z"
       style="display:inline;fill:#000000;fill-opacity:1;stroke:none;stroke-width:1.18818;stroke-linecap:round;stroke-linejoin:round;stop-color:#000000"
       sodipodi:nodetypes="sssss" /><path
       id="path4106-9-0-3-97"
       d="m 35.590755,46.681606 c 0,0.690355 -0.559643,1.25 -1.25,1.25 -0.690356,0 -1.25,-0.559645 -1.25,-1.25 0,-0.690356 0.559644,-1.25 1.25,-1.25 0.690357,0 1.25,0.559644 1.25,1.25 z"
       style="display:inline;fill:#000000;fill-opacity:1;stroke:none;stroke-width:1.18818;stroke-linecap:round;stroke-linejoin:round;stop-color:#000000"
       sodipodi:nodetypes="sssss" /><path
       id="path4106-9-0-3-0"
       d="m 41.855398,47.739937 c 0,0.690355 -0.559644,1.25 -1.25,1.25 -0.690356,0 -1.25,-0.559645 -1.25,-1.25 0,-0.690356 0.559644,-1.25 1.25,-1.25 0.690356,0 1.25,0.559644 1.25,1.25 z"
       style="display:inline;fill:#000000;fill-opacity:1;stroke:none;stroke-width:1.18818;stroke-linecap:round;stroke-linejoin:round;stop-color:#000000"
       sodipodi:nodetypes="sssss" /><path
       id="rect1"
       style="display:inline;fill:none;stroke:#000000;stroke-width:2.5;stroke-linecap:round;stroke-linejoin:round"
       d="M 78.304282,6.180683 85.817786,24.806687 78.304282,40.786858 70.790778,24.806686 Z"
       sodipodi:nodetypes="ccccc" /><path
       style="fill:none;stroke:#000000;stroke-width:2.5;stroke-linecap:round;stroke-linejoin:round"
       d="M 72.212229,48.378246 66.291018,33.821561 60.369806,48.378246 Z"
       id="path1"
       sodipodi:nodetypes="cccc" /><path
       style="display:inline;fill:none;stroke:#000000;stroke-width:2.5;stroke-linecap:round;stroke-linejoin:round"
       d="M 96.238761,48.378246 90.31755,33.821561 84.396338,48.378246 Z"
       id="path1-2"
       sodipodi:nodetypes="cccc" /><path
       style="display:inline;fill:none;stroke:#000000;stroke-width:2.5;stroke-linecap:round;stroke-linejoin:round"
       d="m 82.352859,58.764887 -4.048577,-9.794184 -4.048577,9.794184 z"
       id="path1-7"
       sodipodi:nodetypes="cccc" /><path
       style="fill:none;stroke:#000000;stroke-width:2.5;stroke-linecap:round;stroke-linejoin:round"
       d="m 71.050941,61.562734 c -1.25209,-6.278743 -7.811745,-4.534125 -5.78174,9.913983 2.308367,16.429284 -0.919502,18.426058 -4.275398,13.37731"
       id="path2"
       sodipodi:nodetypes="csc" /><path
       style="display:inline;fill:none;stroke:#000000;stroke-width:2.5;stroke-linecap:round;stroke-linejoin:round"
       d="m 85.557626,61.562734 c 1.25209,-6.278743 7.811745,-4.534125 5.78174,9.913983 -2.308367,16.429284 0.919502,18.426058 4.275398,13.37731"
       id="path2-9"
       sodipodi:nodetypes="csc" /><path
       style="display:inline;fill:none;stroke:#000000;stroke-width:4.4;stroke-linecap:round;stroke-linejoin:round;stroke-dasharray:none"
       d="m 72.061432,66.953399 12.4857,12.485699"
       id="path3" /><path
       style="display:inline;fill:none;stroke:#000000;stroke-width:4.4;stroke-linecap:round;stroke-linejoin:round;stroke-dasharray:none"
       d="m 84.547132,66.953399 -12.4857,12.485699"
       id="path3-5" /><path
       id="rect4"
       style="fill:none;stroke:#000000;stroke-width:2.5;stroke-linecap:round;stroke-linejoin:round;stroke-dasharray:none"
       d="M 22.306808,22.738266 17.979115,18.410574 31.208433,5.1812542 44.437753,18.410574 40.11006,22.738266"
       sodipodi:nodetypes="ccccc" /><path
       id="rect4-0"
       style="fill:none;stroke:#000000;stroke-width:2.5;stroke-linecap:round;stroke-linejoin:round;stroke-dasharray:none"
       d="m 31.208434,22.686749 8.45161,8.45161 h -16.90322 z"
       sodipodi:nodetypes="cccc" /><path
       id="rect4-3"
       style="fill:none;stroke:#000000;stroke-width:2.5;stroke-linecap:round;stroke-linejoin:round;stroke-dasharray:none"
       d="M 12.552583,33.923967 31.208434,15.268116 49.864285,33.923967"
       sodipodi:nodetypes="ccc" /><path
       style="fill:none;stroke:#000000;stroke-width:2.5;stroke-linecap:round;stroke-linejoin:round;stroke-dasharray:none"
       d="m 20.01763,34.095427 c 0,0 -1.51104,4.916364 -7.328165,4.916364 -5.817125,0 -7.328165,-4.916364 -7.328165,-4.916364 m 37.037938,0 c 0,0 1.51104,4.916364 7.328165,4.916364 5.817125,0 7.328165,-4.916364 7.328165,-4.916364"
       id="path4"
       sodipodi:nodetypes="czc" /><path
       style="fill:none;stroke:#000000;stroke-width:2.5;stroke-linecap:round;stroke-linejoin:round;stroke-dasharray:none"
       d="m 17.294198,37.991411 c 0,0 4.767237,4.851005 13.914236,4.851005 9.146999,0 13.914236,-4.851005 13.914236,-4.851005"
       id="path5"
       sodipodi:nodetypes="czc" /><path
       style="fill:none;stroke:#000000;stroke-width:2.5;stroke-linecap:round;stroke-linejoin:round;stroke-dasharray:none"
       d="m 54.64887,80.747458 c -1.887044,10.586895 -8.731802,4.850915 -7.26518,-3.658337 1.994385,-11.571299 0.940526,-15.27329 -6.23429,-15.807164 8.571198,-7.265475 -0.791825,-11.573438 -9.940966,-11.573438 -9.149141,0 -18.512164,4.307963 -9.940966,11.573438 -7.174816,0.533874 -8.228675,4.235865 -6.23429,15.807164 1.466622,8.509252 -5.378136,14.245232 -7.26518,3.658337"
       id="path6"
       sodipodi:nodetypes="ccsc" /><path
       style="fill:none;stroke:#000000;stroke-width:2.5;stroke-linecap:round;stroke-linejoin:round;stroke-dasharray:none"
       d="m 27.333147,56.828082 c 0,0 1.683299,0.999988 3.875286,0.999988 2.191988,0 3.875288,-0.999988 3.875288,-0.999988"
       id="path7"
       sodipodi:nodetypes="czc" /><path
       style="fill:none;stroke:#000000;stroke-width:2.5;stroke-linecap:round;stroke-linejoin:round;stroke-dasharray:none"
       d="M 31.208434,58.761699 V 77.381727"
       id="path8" /><path
       style="fill:none;stroke:#000000;stroke-width:2.5;stroke-linecap:round;stroke-linejoin:round;stroke-dasharray:none"
       d="m 27.333147,84.860883 c 0,0 1.683299,0.999988 3.875286,0.999988 2.191988,0 3.875288,-0.999988 3.875288,-0.999988"
       id="path7-3"
       sodipodi:nodetypes="czc" /><path
       style="fill:none;stroke:#000000;stroke-width:2.5;stroke-linecap:round;stroke-linejoin:round;stroke-dasharray:none"
       d="m 27.333147,80.639234 c 0,0 1.683299,0.999988 3.875286,0.999988 2.191988,0 3.875288,-0.999988 3.875288,-0.999988"
       id="path7-3-0"
       sodipodi:nodetypes="czc" /><path
       style="fill:none;stroke:#000000;stroke-width:2.5;stroke-linecap:round;stroke-linejoin:round;stroke-dasharray:none"
       d="m 7.746192,88.732965 c 0,0 1.683299,2.587488 3.875286,2.587488 2.191988,0 3.875288,-2.587488 3.875288,-2.587488 m 39.17391,0 c 0,0 -1.683299,2.587488 -3.875286,2.587488 -2.191988,0 -3.875288,-2.587488 -3.875288,-2.587488"
       id="path7-3-0-1"
       sodipodi:nodetypes="czc" /><path
       style="fill:none;stroke:#000000;stroke-width:2.5;stroke-linecap:round;stroke-linejoin:round;stroke-dasharray:none"
       d="m 31.208434,86.7945 v 6.978361"
       id="path8-0"
       sodipodi:nodetypes="cc" /><path
       style="fill:none;stroke:#000000;stroke-width:2.5;stroke-linecap:round;stroke-linejoin:round;stroke-dasharray:none"
       d="m 19.684826,66.491052 c 0,0 1.683299,0.999988 3.875286,0.999988 2.191988,0 3.875288,-0.999988 3.875288,-0.999988 m 15.296642,0 c 0,0 -1.683299,0.999988 -3.875286,0.999988 -2.191988,0 -3.875288,-0.999988 -3.875288,-0.999988"
       id="path7-0"
       sodipodi:nodetypes="czc" /><path
       style="fill:none;stroke:#000000;stroke-width:2.5;stroke-linecap:round;stroke-linejoin:round;stroke-dasharray:none"
       d="M 23.560113,68.424669 V 87.044697 M 38.856755,68.424669 v 18.620028"
       id="path8-9" /></g></svg>
