<?xml version="1.0" encoding="UTF-8" standalone="no"?>
<!-- Created with Inkscape (http://www.inkscape.org/) -->

<svg
   width="4in"
   height="4in"
   viewBox="0 0 101.6 101.6"
   version="1.1"
   id="svg5"
   sodipodi:docname="human.svg"
   inkscape:version="1.3.2 (091e20e, 2023-11-25)"
   xml:space="preserve"
   xmlns:inkscape="http://www.inkscape.org/namespaces/inkscape"
   xmlns:sodipodi="http://sodipodi.sourceforge.net/DTD/sodipodi-0.dtd"
   xmlns="http://www.w3.org/2000/svg"
   xmlns:svg="http://www.w3.org/2000/svg"><sodipodi:namedview
     id="namedview7"
     pagecolor="#ffffff"
     bordercolor="#666666"
     borderopacity="1.0"
     inkscape:pageshadow="2"
     inkscape:pageopacity="0.0"
     inkscape:pagecheckerboard="0"
     inkscape:document-units="mm"
     showgrid="false"
     units="in"
     inkscape:zoom="1.148778"
     inkscape:cx="184.54392"
     inkscape:cy="210.65863"
     inkscape:window-width="1280"
     inkscape:window-height="693"
     inkscape:window-x="0"
     inkscape:window-y="25"
     inkscape:window-maximized="0"
     inkscape:current-layer="layer2"
     inkscape:object-nodes="false"
     inkscape:showpageshadow="2"
     inkscape:deskcolor="#d1d1d1" /><defs
     id="defs2"><inkscape:path-effect
       effect="mirror_symmetry"
       start_point="50.8,-3.1750001"
       end_point="50.8,98.425"
       center_point="50.8,47.625"
       id="path-effect9"
       is_visible="true"
       lpeversion="1.2"
       lpesatellites=""
       mode="vertical"
       discard_orig_path="false"
       fuse_paths="false"
       oposite_fuse="false"
       split_items="false"
       split_open="false"
       link_styles="false" /><inkscape:path-effect
       effect="mirror_symmetry"
       start_point="50.8,-3.1750001"
       end_point="50.8,98.425"
       center_point="50.8,47.625"
       id="path-effect8"
       is_visible="true"
       lpeversion="1.2"
       lpesatellites=""
       mode="vertical"
       discard_orig_path="false"
       fuse_paths="false"
       oposite_fuse="false"
       split_items="false"
       split_open="false"
       link_styles="false" /><inkscape:path-effect
       effect="mirror_symmetry"
       start_point="50.8,-3.1750001"
       end_point="50.8,98.425"
       center_point="50.8,47.625"
       id="path-effect7"
       is_visible="true"
       lpeversion="1.2"
       lpesatellites=""
       mode="vertical"
       discard_orig_path="false"
       fuse_paths="false"
       oposite_fuse="false"
       split_items="false"
       split_open="false"
       link_styles="false" /><inkscape:path-effect
       effect="mirror_symmetry"
       start_point="50.088231,24.042351"
       end_point="50.088231,40.261398"
       center_point="50.088231,32.151874"
       id="path-effect6"
       is_visible="true"
       lpeversion="1.2"
       lpesatellites=""
       mode="free"
       discard_orig_path="false"
       fuse_paths="true"
       oposite_fuse="false"
       split_items="false"
       split_open="false"
       link_styles="false" /><inkscape:path-effect
       effect="mirror_symmetry"
       start_point="53.633396,10.68638"
       end_point="53.633396,95.00827"
       center_point="53.633396,52.847325"
       id="path-effect5871"
       is_visible="true"
       lpeversion="1.1"
       mode="vertical"
       discard_orig_path="false"
       fuse_paths="false"
       oposite_fuse="false"
       split_items="false"
       split_open="false" /></defs><g
     inkscape:groupmode="layer"
     id="layer2"
     inkscape:label="Layer 2"><path
       id="path4106"
       d="m 28.730453,88.965756 c 0,0.690356 -0.559644,1.25 -1.25,1.25 -0.690355,0 -1.25,-0.559644 -1.25,-1.25 0,-0.690356 0.559645,-1.25 1.25,-1.25 0.690356,0 1.25,0.559644 1.25,1.25 z m 44.139094,0 c 0,0.690356 0.559644,1.25 1.25,1.25 0.690355,0 1.25,-0.559644 1.25,-1.25 0,-0.690356 -0.559645,-1.25 -1.25,-1.25 -0.690356,0 -1.25,0.559644 -1.25,1.25 z"
       style="fill:#000000;fill-opacity:1;stroke:none;stroke-width:1.18818;stroke-linecap:round;stroke-linejoin:round;stop-color:#000000" /><path
       id="path4106-6"
       d="m 33.170998,88.965756 c 0,0.690356 -0.559644,1.25 -1.25,1.25 -0.690356,0 -1.25,-0.559644 -1.25,-1.25 0,-0.690356 0.559644,-1.25 1.25,-1.25 0.690356,0 1.25,0.559644 1.25,1.25 z m 35.258004,0 c 0,0.690356 0.559644,1.25 1.25,1.25 0.690356,0 1.25,-0.559644 1.25,-1.25 0,-0.690356 -0.559644,-1.25 -1.25,-1.25 -0.690356,0 -1.25,0.559644 -1.25,1.25 z"
       style="fill:#000000;fill-opacity:1;stroke:none;stroke-width:1.18818;stroke-linecap:round;stroke-linejoin:round;stop-color:#000000" /><path
       id="path1"
       style="fill:none;stroke:#000000;stroke-width:2.5;stroke-linecap:round;stroke-linejoin:round"
       d="m 60.722239,23.973545 a 9.9222403,9.9222403 0 0 1 -9.92224,9.92224 9.9222403,9.9222403 0 0 1 -9.92224,-9.92224 9.9222403,9.9222403 0 0 1 9.92224,-9.92224 9.9222403,9.9222403 0 0 1 9.92224,9.92224 z" /><path
       id="path2"
       transform="translate(0,3.1750001)"
       d="m 32.628906,50.183636 c 0,2.529185 -2.05031,4.579496 -4.579496,4.579496 -2.529186,0 -4.579496,-2.050311 -4.579496,-4.579496 0,-2.529186 2.05031,-4.579496 4.579496,-4.579496 2.529186,0 4.579496,2.05031 4.579496,4.579496 z m 36.342188,0 c 0,2.529185 2.05031,4.579496 4.579496,4.579496 2.529186,0 4.579496,-2.050311 4.579496,-4.579496 0,-2.529186 -2.05031,-4.579496 -4.579496,-4.579496 -2.529186,0 -4.579496,2.05031 -4.579496,4.579496 z"
       style="fill:none;stroke:#000000;stroke-width:2.5;stroke-linecap:round;stroke-linejoin:round" /><path
       style="fill:none;stroke:#000000;stroke-width:2.5;stroke-linecap:round;stroke-linejoin:round"
       d="m 79.050719,30.478627 c -0.739533,-3.26203 -3.061258,-5.441507 -7.114479,-6.436276 0,0 -5.145462,16.219047 -21.848009,16.219047 -16.702547,0 -21.848009,-16.219047 -21.848009,-16.219047 -4.053221,0.994769 -6.374946,3.174246 -7.114479,6.436276"
       id="path3"
       sodipodi:nodetypes="ccccc"
       transform="translate(0.711769,3.1750001)" /><path
       style="fill:none;stroke:#000000;stroke-width:2.5;stroke-linecap:round;stroke-linejoin:round"
       d="m 37.639819,47.495096 c 0,0 5.527791,2.847269 13.16018,2.847269 7.63239,0 13.160181,-2.847269 13.160181,-2.847269"
       id="path4"
       sodipodi:nodetypes="czc" /><path
       style="fill:none;stroke:#000000;stroke-width:2.5;stroke-linecap:round;stroke-linejoin:round"
       d="m 63.96018,59.17879 c 0,0 -5.527791,-2.847269 -13.16018,-2.847269 -7.63239,0 -13.160181,2.847269 -13.160181,2.847269"
       id="path4-3"
       sodipodi:nodetypes="czc" /><path
       style="fill:none;stroke:#000000;stroke-width:2.5;stroke-linecap:round;stroke-linejoin:round"
       d="m 17.743476,62.702508 c -2.537754,17.966848 17.763517,20.436151 18.93817,9.521868 0.560406,-5.207013 3.106385,-9.975556 9.611483,-10.589144 m 37.563395,1.067276 C 86.394278,80.669356 66.093007,83.138659 64.918354,72.224376 64.357948,67.017363 61.811969,62.24882 55.306871,61.635232"
       id="path5"
       sodipodi:nodetypes="csc"
       transform="translate(0,3.1750001)" /><path
       style="fill:none;stroke:#000000;stroke-width:2.5;stroke-linecap:round;stroke-linejoin:round"
       d="m 50.8,51.296005 v 3.920588"
       id="path6"
       sodipodi:nodetypes="cc" /></g></svg>
