<?xml version="1.0" encoding="UTF-8" standalone="no"?>
<!-- Created with Inkscape (http://www.inkscape.org/) -->

<svg
   width="4in"
   height="4in"
   viewBox="0 0 101.6 101.6"
   version="1.1"
   id="svg5"
   sodipodi:docname="know.svg"
   inkscape:version="1.3.2 (091e20e, 2023-11-25)"
   xml:space="preserve"
   xmlns:inkscape="http://www.inkscape.org/namespaces/inkscape"
   xmlns:sodipodi="http://sodipodi.sourceforge.net/DTD/sodipodi-0.dtd"
   xmlns="http://www.w3.org/2000/svg"
   xmlns:svg="http://www.w3.org/2000/svg"><sodipodi:namedview
     id="namedview7"
     pagecolor="#ffffff"
     bordercolor="#666666"
     borderopacity="1.0"
     inkscape:pageshadow="2"
     inkscape:pageopacity="0.0"
     inkscape:pagecheckerboard="0"
     inkscape:document-units="mm"
     showgrid="false"
     units="in"
     inkscape:zoom="0.88903356"
     inkscape:cx="183.34516"
     inkscape:cy="220.46412"
     inkscape:window-width="1280"
     inkscape:window-height="693"
     inkscape:window-x="0"
     inkscape:window-y="25"
     inkscape:window-maximized="0"
     inkscape:current-layer="layer2"
     inkscape:object-nodes="false"
     inkscape:showpageshadow="2"
     inkscape:deskcolor="#d1d1d1" /><defs
     id="defs2"><inkscape:path-effect
       effect="mirror_symmetry"
       start_point="50.8,0"
       end_point="50.8,101.6"
       center_point="50.8,50.8"
       id="path-effect10"
       is_visible="true"
       lpeversion="1.2"
       lpesatellites=""
       mode="vertical"
       discard_orig_path="false"
       fuse_paths="false"
       oposite_fuse="false"
       split_items="false"
       split_open="false"
       link_styles="false" /><inkscape:path-effect
       effect="mirror_symmetry"
       start_point="48.701357,-0.14990305"
       end_point="48.701357,101.4501"
       center_point="48.701357,50.650097"
       id="path-effect9"
       is_visible="true"
       lpeversion="1.2"
       lpesatellites=""
       mode="vertical"
       discard_orig_path="false"
       fuse_paths="false"
       oposite_fuse="false"
       split_items="false"
       split_open="false"
       link_styles="false" /><inkscape:path-effect
       effect="mirror_symmetry"
       start_point="48.850753,72.008048"
       end_point="48.850753,85.448512"
       center_point="48.850753,78.72828"
       id="path-effect8"
       is_visible="true"
       lpeversion="1.2"
       lpesatellites=""
       mode="free"
       discard_orig_path="false"
       fuse_paths="true"
       oposite_fuse="false"
       split_items="false"
       split_open="false"
       link_styles="false" /><inkscape:path-effect
       effect="mirror_symmetry"
       start_point="50.8,0"
       end_point="50.8,101.6"
       center_point="50.8,50.8"
       id="path-effect7"
       is_visible="true"
       lpeversion="1.2"
       lpesatellites=""
       mode="vertical"
       discard_orig_path="false"
       fuse_paths="false"
       oposite_fuse="false"
       split_items="false"
       split_open="false"
       link_styles="false" /><inkscape:path-effect
       effect="mirror_symmetry"
       start_point="46.017113,8.9918497"
       end_point="46.017113,23.537489"
       center_point="46.017113,16.264669"
       id="path-effect6"
       is_visible="true"
       lpeversion="1.2"
       lpesatellites=""
       mode="free"
       discard_orig_path="false"
       fuse_paths="true"
       oposite_fuse="false"
       split_items="false"
       split_open="false"
       link_styles="false" /><inkscape:path-effect
       effect="mirror_symmetry"
       start_point="53.633396,10.68638"
       end_point="53.633396,95.00827"
       center_point="53.633396,52.847325"
       id="path-effect5871"
       is_visible="true"
       lpeversion="1.1"
       mode="vertical"
       discard_orig_path="false"
       fuse_paths="false"
       oposite_fuse="false"
       split_items="false"
       split_open="false" /></defs><g
     inkscape:groupmode="layer"
     id="layer2"
     inkscape:label="Layer 2"><g
       id="g9"
       inkscape:path-effect="#path-effect10"><circle
         style="fill:#000000;fill-opacity:1;stroke:none;stroke-width:1.18818;stroke-linecap:round;stroke-linejoin:round;stop-color:#000000"
         id="path4106"
         cx="6.4924998"
         cy="91.384758"
         r="1.25"
         d="m 7.7424998,91.384758 c 0,0.690356 -0.559644,1.25 -1.25,1.25 -0.6903559,0 -1.25,-0.559644 -1.25,-1.25 0,-0.690356 0.5596441,-1.25 1.25,-1.25 0.690356,0 1.25,0.559644 1.25,1.25 z m 86.1150002,0 c 0,0.690356 0.559644,1.25 1.25,1.25 0.690356,0 1.25,-0.559644 1.25,-1.25 0,-0.690356 -0.559644,-1.25 -1.25,-1.25 -0.690356,0 -1.25,0.559644 -1.25,1.25 z" /><circle
         style="fill:#000000;fill-opacity:1;stroke:none;stroke-width:1.18818;stroke-linecap:round;stroke-linejoin:round;stop-color:#000000"
         id="path4106-5"
         cx="11.068295"
         cy="91.384758"
         r="1.25"
         d="m 12.318295,91.384758 c 0,0.690356 -0.559645,1.25 -1.25,1.25 -0.690356,0 -1.2500005,-0.559644 -1.2500005,-1.25 0,-0.690356 0.5596445,-1.25 1.2500005,-1.25 0.690355,0 1.25,0.559644 1.25,1.25 z m 76.96341,0 c 0,0.690356 0.559645,1.25 1.25,1.25 0.690356,0 1.25,-0.559644 1.25,-1.25 0,-0.690356 -0.559644,-1.25 -1.25,-1.25 -0.690355,0 -1.25,0.559644 -1.25,1.25 z" /></g><path
       style="fill:none;stroke:#000000;stroke-width:2.5;stroke-linecap:round;stroke-linejoin:round"
       d="M 61.091684,23.537489 V 8.9918497 L 46.017113,16.132436 30.942542,8.9918497 V 23.537489"
       id="path1"
       inkscape:path-effect="#path-effect6"
       inkscape:original-d="M 46.017113,16.132436 30.942542,8.9918497 V 23.537489"
       transform="translate(4.782887)" /><path
       style="fill:none;stroke:#000000;stroke-width:2.5;stroke-linecap:round;stroke-linejoin:round"
       d="M 50.8,32.582085 V 16.394807"
       id="path2" /><path
       style="fill:none;stroke:#000000;stroke-width:2.5;stroke-linecap:round;stroke-linejoin:round"
       d="M 40.144678,35.952863 C 36.834808,29.177669 14.884312,28.919684 16.397424,56.783189 17.652083,79.887379 12.315597,89.305106 4.514261,85.609736 M 61.455322,35.952863 c 3.30987,-6.775194 25.260366,-7.033179 23.747254,20.830326 -1.254659,23.10419 4.081827,32.521917 11.883163,28.826547"
       id="path3"
       sodipodi:nodetypes="csc"
       inkscape:path-effect="#path-effect7"
       inkscape:original-d="M 40.144678,35.952863 C 36.834808,29.177669 14.884312,28.919684 16.397424,56.783189 17.652083,79.887379 12.315597,89.305106 4.514261,85.609736" /><path
       style="fill:none;stroke:#000000;stroke-width:2.5;stroke-linecap:round;stroke-linejoin:round"
       d="M 61.440757,69.648597 50.8,41.273242 40.159243,69.648597 Z"
       id="path4"
       sodipodi:nodetypes="ccc" /><path
       style="fill:none;stroke:#000000;stroke-width:2.5;stroke-linecap:round;stroke-linejoin:round"
       d="M 65.61801,85.448512 C 74.902416,72.234178 76.210633,65.020313 48.850753,81.740369 21.490873,65.020313 22.79909,72.234178 32.083496,85.448512"
       id="path5"
       sodipodi:nodetypes="cc"
       inkscape:path-effect="#path-effect8"
       inkscape:original-d="M 48.850753,81.740369 C 21.490873,65.020313 22.79909,72.234178 32.083496,85.448512"
       transform="translate(1.949247)" /><path
       style="fill:none;stroke:#000000;stroke-width:2.5;stroke-linecap:round;stroke-linejoin:round"
       d="m 25.957001,88.834208 c 0,0 3.552061,2.439316 7.714278,1.460767 4.162217,-0.978549 4.861163,-4.362794 4.861163,-4.362794 m 32.913272,2.902027 c 0,0 -3.552061,2.439316 -7.714278,1.460767 -4.162217,-0.978549 -4.861163,-4.362794 -4.861163,-4.362794"
       id="path6"
       sodipodi:nodetypes="czc"
       inkscape:path-effect="#path-effect9"
       inkscape:original-d="m 25.957001,88.834208 c 0,0 3.552061,2.439316 7.714278,1.460767 4.162217,-0.978549 4.861163,-4.362794 4.861163,-4.362794"
       transform="translate(2.0986427,0.14990305)" /></g></svg>
