<?xml version="1.0" encoding="UTF-8" standalone="no"?>
<!-- Created with Inkscape (http://www.inkscape.org/) -->

<svg
   width="4in"
   height="4in"
   viewBox="0 0 101.6 101.6"
   version="1.1"
   id="svg5"
   sodipodi:docname="like.svg"
   inkscape:version="1.3.2 (091e20e, 2023-11-25)"
   xml:space="preserve"
   xmlns:inkscape="http://www.inkscape.org/namespaces/inkscape"
   xmlns:sodipodi="http://sodipodi.sourceforge.net/DTD/sodipodi-0.dtd"
   xmlns="http://www.w3.org/2000/svg"
   xmlns:svg="http://www.w3.org/2000/svg"><sodipodi:namedview
     id="namedview7"
     pagecolor="#ffffff"
     bordercolor="#666666"
     borderopacity="1.0"
     inkscape:pageshadow="2"
     inkscape:pageopacity="0.0"
     inkscape:pagecheckerboard="0"
     inkscape:document-units="mm"
     showgrid="false"
     units="in"
     inkscape:zoom="0.50361886"
     inkscape:cx="168.77843"
     inkscape:cy="188.63471"
     inkscape:window-width="1280"
     inkscape:window-height="693"
     inkscape:window-x="0"
     inkscape:window-y="25"
     inkscape:window-maximized="0"
     inkscape:current-layer="layer2"
     inkscape:object-nodes="false"
     inkscape:showpageshadow="2"
     inkscape:deskcolor="#d1d1d1" /><defs
     id="defs2"><inkscape:path-effect
       effect="mirror_symmetry"
       start_point="45.483886,2.0802186"
       end_point="45.483886,103.68022"
       center_point="45.483886,52.880219"
       id="path-effect15"
       is_visible="true"
       lpeversion="1.2"
       lpesatellites=""
       mode="vertical"
       discard_orig_path="false"
       fuse_paths="false"
       oposite_fuse="false"
       split_items="false"
       split_open="false"
       link_styles="false" /><inkscape:path-effect
       effect="mirror_symmetry"
       start_point="47.192479,50.123687"
       end_point="47.192479,69.909353"
       center_point="47.192479,60.01652"
       id="path-effect14"
       is_visible="true"
       lpeversion="1.2"
       lpesatellites=""
       mode="free"
       discard_orig_path="false"
       fuse_paths="true"
       oposite_fuse="false"
       split_items="false"
       split_open="false"
       link_styles="false" /><inkscape:path-effect
       effect="mirror_symmetry"
       start_point="49.875458,-1.1921251"
       end_point="49.875458,100.40787"
       center_point="49.875458,49.607875"
       id="path-effect13"
       is_visible="true"
       lpeversion="1.2"
       lpesatellites=""
       mode="vertical"
       discard_orig_path="false"
       fuse_paths="false"
       oposite_fuse="false"
       split_items="false"
       split_open="false"
       link_styles="false" /><inkscape:path-effect
       effect="mirror_symmetry"
       start_point="48.488646,0.72385393"
       end_point="48.488646,102.32385"
       center_point="48.488646,51.523854"
       id="path-effect12"
       is_visible="true"
       lpeversion="1.2"
       lpesatellites=""
       mode="vertical"
       discard_orig_path="false"
       fuse_paths="false"
       oposite_fuse="false"
       split_items="false"
       split_open="false"
       link_styles="false" /><inkscape:path-effect
       effect="mirror_symmetry"
       start_point="47.231147,-0.75307771"
       end_point="47.231147,100.84692"
       center_point="47.231147,50.046922"
       id="path-effect11"
       is_visible="true"
       lpeversion="1.2"
       lpesatellites=""
       mode="vertical"
       discard_orig_path="false"
       fuse_paths="false"
       oposite_fuse="false"
       split_items="false"
       split_open="false"
       link_styles="false" /><inkscape:path-effect
       effect="mirror_symmetry"
       start_point="47.384419,0.8019354"
       end_point="47.384419,102.40194"
       center_point="47.384419,51.601935"
       id="path-effect10"
       is_visible="true"
       lpeversion="1.2"
       lpesatellites=""
       mode="vertical"
       discard_orig_path="false"
       fuse_paths="false"
       oposite_fuse="false"
       split_items="false"
       split_open="false"
       link_styles="false" /><inkscape:path-effect
       effect="mirror_symmetry"
       start_point="46.0375,0"
       end_point="46.0375,101.6"
       center_point="46.0375,50.8"
       id="path-effect9"
       is_visible="true"
       lpeversion="1.2"
       lpesatellites=""
       mode="vertical"
       discard_orig_path="false"
       fuse_paths="false"
       oposite_fuse="false"
       split_items="false"
       split_open="false"
       link_styles="false" /><inkscape:path-effect
       effect="mirror_symmetry"
       start_point="53.633396,10.68638"
       end_point="53.633396,95.00827"
       center_point="53.633396,52.847325"
       id="path-effect5871"
       is_visible="true"
       lpeversion="1.1"
       mode="vertical"
       discard_orig_path="false"
       fuse_paths="false"
       oposite_fuse="false"
       split_items="false"
       split_open="false" /></defs><g
     inkscape:groupmode="layer"
     id="layer2"
     inkscape:label="Layer 2"
     style="display:inline"><path
       id="path4106"
       d="m 29.263923,12.639501 c 0,0.690355 -0.559644,1.249999 -1.25,1.249999 -0.690356,0 -1.25,-0.559644 -1.25,-1.249999 0,-0.690356 0.559644,-1.250001 1.25,-1.250001 0.690356,0 1.25,0.559645 1.25,1.250001 z m 43.072153,0 c 0,0.690355 0.559644,1.249999 1.25,1.249999 0.690356,0 1.25,-0.559644 1.25,-1.249999 0,-0.690356 -0.559644,-1.250001 -1.25,-1.250001 -0.690356,0 -1.25,0.559645 -1.25,1.250001 z"
       style="fill:#000000;fill-opacity:1;stroke:none;stroke-width:1.18818;stroke-linecap:round;stroke-linejoin:round;stop-color:#000000" /><path
       id="path4106-6"
       d="m 28.969145,37.136933 c 0,0.690356 -0.559644,1.25 -1.25,1.25 -0.690356,0 -1.25,-0.559644 -1.25,-1.25 0,-0.690356 0.559644,-1.25 1.25,-1.25 0.690356,0 1.25,0.559644 1.25,1.25 z m 43.661711,0 c 0,0.690356 0.559644,1.25 1.25,1.25 0.690355,0 1.25,-0.559644 1.25,-1.25 0,-0.690356 -0.559645,-1.25 -1.25,-1.25 -0.690356,0 -1.25,0.559644 -1.25,1.25 z"
       style="fill:#000000;fill-opacity:1;stroke:none;stroke-width:1.18818;stroke-linecap:round;stroke-linejoin:round;stop-color:#000000" /><path
       style="fill:none;stroke:#000000;stroke-width:2.5;stroke-linecap:round;stroke-linejoin:round"
       d="m 31.457542,15.628974 c 0,0 4.28439,3.157444 4.28439,9.145524 0,5.988079 -4.28439,9.145523 -4.28439,9.145523 M 70.142458,15.628974 c 0,0 -4.28439,3.157444 -4.28439,9.145524 0,5.988079 4.28439,9.145523 4.28439,9.145523"
       id="path1"
       sodipodi:nodetypes="czc" /><path
       style="fill:none;stroke:#000000;stroke-width:2.5;stroke-linecap:round;stroke-linejoin:round"
       d="M 36.520638,24.032969 H 65.079362"
       id="path2"
       sodipodi:nodetypes="cc" /><path
       style="fill:none;stroke:#000000;stroke-width:2.5;stroke-linecap:round;stroke-linejoin:round"
       d="M 44.058217,32.45469 H 57.541783"
       id="path3" /><path
       style="fill:none;stroke:#000000;stroke-width:2.5;stroke-linecap:round;stroke-linejoin:round"
       d="M 50.8,33.073341 V 49.748827"
       id="path4"
       sodipodi:nodetypes="cc" /><path
       style="fill:none;stroke:#000000;stroke-width:2.5;stroke-linecap:round;stroke-linejoin:round"
       d="m 26.933517,43.748795 c 6.907748,1.174488 10.936806,-1.169421 14.362929,-4.250253 m 33.370037,4.250253 C 67.758735,44.923283 63.729677,42.579374 60.303554,39.498542"
       id="path5"
       sodipodi:nodetypes="cc" /><path
       style="fill:none;stroke:#000000;stroke-width:2.5;stroke-linecap:round;stroke-linejoin:round"
       d="M 33.021289,45.518213 C 35.116646,57.768869 15.854724,52.267501 8.8388082,60.760505 M 68.578711,45.518213 c -2.095357,12.250656 17.166565,6.749288 24.182481,15.242292"
       id="path6"
       sodipodi:nodetypes="cc" /><path
       style="fill:none;stroke:#000000;stroke-width:2.5;stroke-linecap:round;stroke-linejoin:round"
       d="M 11.375227,72.026021 C 24.004866,68.424254 35.869709,63.930225 41.566688,52.240355 l 9.233312,8.50051 9.233312,-8.50051 c 5.696979,11.68987 17.561822,16.183899 30.191461,19.785666"
       id="path7"
       sodipodi:nodetypes="ccccc" /><path
       style="fill:none;stroke:#000000;stroke-width:2.5;stroke-linecap:round;stroke-linejoin:round"
       d="M 50.8,60.447743 V 73.198506"
       id="path8" /><path
       style="fill:none;stroke:#000000;stroke-width:2.5;stroke-linecap:round;stroke-linejoin:round"
       d="M 36.760036,70.899202 V 88.444 H 13.063167 c 4.78015,-8.424671 11.503285,-15.244268 23.696869,-17.544798 z m 28.079928,0 V 88.444 H 88.536833 C 83.756683,80.019329 77.033548,73.199732 64.839964,70.899202 Z"
       id="path9"
       sodipodi:nodetypes="cccc" /><path
       style="fill:none;stroke:#000000;stroke-width:2.5;stroke-linecap:round;stroke-linejoin:round"
       d="M 59.195699,88.444 50.8,77.848358 42.404301,88.444 Z"
       id="path15"
       sodipodi:nodetypes="ccc" /></g></svg>
