<?xml version="1.0" encoding="UTF-8" standalone="no"?>
<!-- Created with Inkscape (http://www.inkscape.org/) -->

<svg
   width="4in"
   height="4in"
   viewBox="0 0 101.6 101.6"
   version="1.1"
   id="svg5"
   sodipodi:docname="mystery.svg"
   inkscape:version="1.3.2 (091e20e, 2023-11-25)"
   xml:space="preserve"
   xmlns:inkscape="http://www.inkscape.org/namespaces/inkscape"
   xmlns:sodipodi="http://sodipodi.sourceforge.net/DTD/sodipodi-0.dtd"
   xmlns="http://www.w3.org/2000/svg"
   xmlns:svg="http://www.w3.org/2000/svg"><sodipodi:namedview
     id="namedview7"
     pagecolor="#ffffff"
     bordercolor="#666666"
     borderopacity="1.0"
     inkscape:pageshadow="2"
     inkscape:pageopacity="0.0"
     inkscape:pagecheckerboard="0"
     inkscape:document-units="mm"
     showgrid="false"
     units="in"
     inkscape:zoom="0.4375625"
     inkscape:cx="22.853878"
     inkscape:cy="228.53878"
     inkscape:window-width="1280"
     inkscape:window-height="693"
     inkscape:window-x="0"
     inkscape:window-y="25"
     inkscape:window-maximized="0"
     inkscape:current-layer="g18"
     inkscape:object-nodes="false"
     inkscape:showpageshadow="2"
     inkscape:deskcolor="#d1d1d1" /><defs
     id="defs2"><inkscape:path-effect
       effect="mirror_symmetry"
       start_point="50.8,0"
       end_point="50.8,101.6"
       center_point="50.8,50.8"
       id="path-effect18"
       is_visible="true"
       lpeversion="1.2"
       lpesatellites=""
       mode="vertical"
       discard_orig_path="false"
       fuse_paths="false"
       oposite_fuse="false"
       split_items="false"
       split_open="false"
       link_styles="false" /><inkscape:path-effect
       effect="mirror_symmetry"
       start_point="50.8,0"
       end_point="50.8,101.6"
       center_point="50.8,50.8"
       id="path-effect17"
       is_visible="true"
       lpeversion="1.2"
       lpesatellites=""
       mode="vertical"
       discard_orig_path="false"
       fuse_paths="false"
       oposite_fuse="false"
       split_items="false"
       split_open="false"
       link_styles="false" /><inkscape:path-effect
       effect="mirror_symmetry"
       start_point="55.990124,-0.18364519"
       end_point="55.990124,101.41635"
       center_point="55.990124,50.616355"
       id="path-effect16"
       is_visible="true"
       lpeversion="1.2"
       lpesatellites=""
       mode="vertical"
       discard_orig_path="false"
       fuse_paths="false"
       oposite_fuse="false"
       split_items="false"
       split_open="false"
       link_styles="false" /><inkscape:path-effect
       effect="mirror_symmetry"
       start_point="50.8,0"
       end_point="50.8,101.6"
       center_point="50.8,50.8"
       id="path-effect15"
       is_visible="true"
       lpeversion="1.2"
       lpesatellites=""
       mode="vertical"
       discard_orig_path="false"
       fuse_paths="false"
       oposite_fuse="false"
       split_items="false"
       split_open="false"
       link_styles="false" /><inkscape:path-effect
       effect="mirror_symmetry"
       start_point="49.741523,64.954565"
       end_point="49.741523,83.073469"
       center_point="49.741523,74.014017"
       id="path-effect10"
       is_visible="true"
       lpeversion="1.2"
       lpesatellites=""
       mode="free"
       discard_orig_path="false"
       fuse_paths="true"
       oposite_fuse="false"
       split_items="false"
       split_open="false"
       link_styles="false" /><inkscape:path-effect
       effect="mirror_symmetry"
       start_point="49.05779,49.570589"
       end_point="49.05779,93.500386"
       center_point="49.05779,71.535488"
       id="path-effect9"
       is_visible="true"
       lpeversion="1.2"
       lpesatellites=""
       mode="free"
       discard_orig_path="false"
       fuse_paths="true"
       oposite_fuse="false"
       split_items="false"
       split_open="false"
       link_styles="false" /><inkscape:path-effect
       effect="mirror_symmetry"
       start_point="48.277049,0.3290805"
       end_point="48.277049,101.92908"
       center_point="48.277049,51.12908"
       id="path-effect8"
       is_visible="true"
       lpeversion="1.2"
       lpesatellites=""
       mode="vertical"
       discard_orig_path="false"
       fuse_paths="false"
       oposite_fuse="false"
       split_items="false"
       split_open="false"
       link_styles="false" /><inkscape:path-effect
       effect="mirror_symmetry"
       start_point="50.8,0"
       end_point="50.8,101.6"
       center_point="50.8,50.8"
       id="path-effect7"
       is_visible="true"
       lpeversion="1.2"
       lpesatellites=""
       mode="vertical"
       discard_orig_path="false"
       fuse_paths="false"
       oposite_fuse="false"
       split_items="false"
       split_open="false"
       link_styles="false" /><inkscape:path-effect
       effect="mirror_symmetry"
       start_point="53.633396,10.68638"
       end_point="53.633396,95.00827"
       center_point="53.633396,52.847325"
       id="path-effect5871"
       is_visible="true"
       lpeversion="1.1"
       mode="vertical"
       discard_orig_path="false"
       fuse_paths="false"
       oposite_fuse="false"
       split_items="false"
       split_open="false" /></defs><g
     inkscape:groupmode="layer"
     id="layer2"
     inkscape:label="Layer 2"><g
       id="g10"
       style="display:inline"
       transform="translate(3.1750001)"><path
         id="path4106"
         d="m 15.513358,34.617418 c 0,0.690356 -0.559645,1.25 -1.25,1.25 -0.690356,0 -1.25,-0.559644 -1.25,-1.25 0,-0.690356 0.559644,-1.25 1.25,-1.25 0.690355,0 1.25,0.559644 1.25,1.25 z m 25.064947,0 c 0,0.690356 0.559645,1.25 1.25,1.25 0.690356,0 1.25,-0.559644 1.25,-1.25 0,-0.690356 -0.559644,-1.25 -1.25,-1.25 -0.690355,0 -1.25,0.559644 -1.25,1.25 z"
         style="fill:#000000;fill-opacity:1;stroke:none;stroke-width:1.18818;stroke-linecap:round;stroke-linejoin:round;stop-color:#000000" /><path
         id="path4106-8"
         d="m 11.778008,36.901598 c 0,0.690355 -0.559644,1.25 -1.25,1.25 -0.690356,0 -1.25,-0.559645 -1.25,-1.25 0,-0.690356 0.559644,-1.25 1.25,-1.25 0.690356,0 1.25,0.559644 1.25,1.25 z m 32.535647,0 c 0,0.690355 0.559644,1.25 1.25,1.25 0.690356,0 1.25,-0.559645 1.25,-1.25 0,-0.690356 -0.559644,-1.25 -1.25,-1.25 -0.690356,0 -1.25,0.559644 -1.25,1.25 z"
         style="fill:#000000;fill-opacity:1;stroke:none;stroke-width:1.18818;stroke-linecap:round;stroke-linejoin:round;stop-color:#000000" /><path
         style="fill:none;stroke:#000000;stroke-width:2.5;stroke-linecap:round;stroke-linejoin:round"
         d="m 21.601104,9.017101 c 0,0 2.771468,2.508605 6.444726,2.508606 3.673257,0 6.444727,-2.508606 6.444727,-2.508606"
         id="path1"
         sodipodi:nodetypes="czc" /><path
         style="fill:none;stroke:#000000;stroke-width:2.49999;stroke-linecap:round;stroke-linejoin:round"
         d="m 20.180805,37.451014 c 0,0 3.382249,3.433096 7.865026,3.433097 4.482775,0 7.865026,-3.433097 7.865026,-3.433097"
         id="path1-5"
         sodipodi:nodetypes="czc" /><path
         style="fill:none;stroke:#000000;stroke-width:2.5;stroke-linecap:round;stroke-linejoin:round"
         d="m 17.79335,23.694623 c 0,0 3.241686,-3.645327 10.252481,-3.645327 7.010795,0 10.252481,3.645327 10.252481,3.645327"
         id="path2"
         sodipodi:nodetypes="czc" /><path
         style="fill:none;stroke:#000000;stroke-width:2.5;stroke-linecap:round;stroke-linejoin:round"
         d="m 28.045831,11.504609 v 8.036308"
         id="path3" /><path
         style="fill:none;stroke:#000000;stroke-width:2.5;stroke-linecap:round;stroke-linejoin:round"
         d="m 9.7294333,23.516775 c 0,0 0.7613347,9.220606 12.9426857,6.513639 C 17.791932,44.148968 11.371357,36.773836 5.5843922,46.103031 M 46.362229,23.516775 c 0,0 -0.761335,9.220606 -12.942686,6.513639 4.880187,14.118554 11.300762,6.743422 17.087728,16.072617"
         id="path4"
         sodipodi:nodetypes="ccc" /><circle
         style="fill:none;stroke:#000000;stroke-width:2.5;stroke-linecap:round;stroke-linejoin:round"
         id="path5"
         cx="17.684269"
         cy="50.090893"
         r="2.7852979" /><circle
         style="fill:none;stroke:#000000;stroke-width:2.5;stroke-linecap:round;stroke-linejoin:round"
         id="path5-9"
         cx="28.045834"
         cy="50.090893"
         r="2.7852979" /><circle
         style="fill:none;stroke:#000000;stroke-width:2.5;stroke-linecap:round;stroke-linejoin:round"
         id="path5-4"
         cx="38.407394"
         cy="50.090893"
         r="2.7852979" /><path
         style="fill:none;stroke:#000000;stroke-width:2.5;stroke-linecap:round;stroke-linejoin:round"
         d="m 10.309405,49.243362 c -8.4980245,17.26424 17.736426,44.257024 17.736426,44.257024 0,0 26.234452,-26.992784 17.736426,-44.257024"
         id="path6"
         sodipodi:nodetypes="ccc" /><path
         style="fill:none;stroke:#000000;stroke-width:2.5;stroke-linecap:round;stroke-linejoin:round"
         d="m 19.67011,83.073469 8.375721,-18.118904 8.375721,18.118904"
         id="path7"
         sodipodi:nodetypes="ccc" /></g><g
       id="g18"
       transform="matrix(1,0,0,1.0808416,19.757945,-2.7044602)"
       style="stroke-width:0.961876"><g
         id="g17"
         style="stroke-width:0.961876"
         transform="translate(3.1750001)"><path
           id="path4106-5"
           d="m 36.151217,66.11397 c 0,0.690356 -0.559645,1.25 -1.25,1.25 -0.690356,0 -1.25,-0.559644 -1.25,-1.25 0,-0.690356 0.559644,-1.25 1.25,-1.25 0.690355,0 1.25,0.559644 1.25,1.25 z m 29.297566,0 c 0,0.690356 0.559645,1.25 1.25,1.25 0.690356,0 1.25,-0.559644 1.25,-1.25 0,-0.690356 -0.559644,-1.25 -1.25,-1.25 -0.690355,0 -1.25,0.559644 -1.25,1.25 z"
           style="display:inline;fill:#000000;fill-opacity:1;stroke:none;stroke-width:1.14288;stroke-linecap:round;stroke-linejoin:round;stop-color:#000000"
           sodipodi:nodetypes="sssss" /><path
           id="path4106-5-4"
           d="m 35.421337,72.019338 c 0,0.690356 -0.559645,1.25 -1.25,1.25 -0.690356,0 -1.25,-0.559644 -1.25,-1.25 0,-0.690356 0.559644,-1.25 1.25,-1.25 0.690355,0 1.25,0.559644 1.25,1.25 z m 30.757326,0 c 0,0.690356 0.559645,1.25 1.25,1.25 0.690356,0 1.25,-0.559644 1.25,-1.25 0,-0.690356 -0.559644,-1.25 -1.25,-1.25 -0.690355,0 -1.25,0.559644 -1.25,1.25 z"
           style="display:inline;fill:#000000;fill-opacity:1;stroke:none;stroke-width:1.14288;stroke-linecap:round;stroke-linejoin:round;stop-color:#000000"
           sodipodi:nodetypes="sssss" /></g><path
         style="fill:none;stroke:#000000;stroke-width:2.40469;stroke-linecap:round;stroke-linejoin:round"
         d="m 43.219133,28.320005 c 0,0 1.357539,14.820273 10.755869,14.820273 9.39833,0 10.755869,-14.820273 10.755869,-14.820273"
         id="path10"
         sodipodi:nodetypes="czc" /><path
         style="fill:none;stroke:#000000;stroke-width:2.40469;stroke-linecap:round;stroke-linejoin:round"
         d="m 38.058901,22.093136 c 0,0 0.710918,6.046542 4.941885,6.046542 4.230967,0 4.941885,-6.046542 4.941885,-6.046542 m 21.948432,0 c 0,0 -0.710918,6.046542 -4.941885,6.046542 -4.230967,0 -4.941885,-6.046542 -4.941885,-6.046542"
         id="path11"
         sodipodi:nodetypes="czc" /><path
         style="fill:none;stroke:#000000;stroke-width:2.40469;stroke-linecap:round;stroke-linejoin:round"
         d="m 40.068367,37.514466 c 2.484402,12.546229 8.198527,11.800909 8.198527,11.800909 -2.828,2.566424 -5.005136,9.744699 -4.669172,18.301052 0.482667,12.292621 -4.48052,28.675932 -11.72788,18.840753 M 67.881637,37.514466 c -2.484402,12.546229 -8.198527,11.800909 -8.198527,11.800909 2.828,2.566424 5.005136,9.744699 4.669172,18.301052 -0.482667,12.292621 4.48052,28.675932 11.72788,18.840753"
         id="path12"
         sodipodi:nodetypes="ccsc" /><path
         style="fill:none;stroke:#000000;stroke-width:2.40469;stroke-linecap:round;stroke-linejoin:round"
         d="m 44.033816,65.225718 c 0,0 2.770876,5.887821 9.941185,5.887821 7.170311,0 9.941186,-5.887821 9.941186,-5.887821"
         id="path13"
         sodipodi:nodetypes="czc" /><path
         style="fill:none;stroke:#000000;stroke-width:2.40469;stroke-linecap:round;stroke-linejoin:round"
         d="M 58.482052,32.731851 53.975002,7.995918 49.467951,32.731851 Z"
         id="path14"
         sodipodi:nodetypes="ccc" /><g
         id="g19"
         transform="translate(2.9930176)"><path
           style="fill:none;stroke:#000000;stroke-width:2.40469;stroke-linecap:round;stroke-linejoin:round;stroke-dasharray:none"
           d="M 42.234497,18.984682 39.923116,9.9371741 37.611734,18.984682 Z"
           id="path18"
           sodipodi:nodetypes="ccc" /><path
           style="fill:none;stroke:#000000;stroke-width:2.40469;stroke-linecap:round;stroke-linejoin:round;stroke-dasharray:none"
           d="M 64.35223,18.984682 62.040849,9.9371742 59.729467,18.984682 Z"
           id="path18-8"
           sodipodi:nodetypes="ccc" /></g></g></g></svg>
