<?xml version="1.0" encoding="UTF-8" standalone="no"?>
<!-- Created with Inkscape (http://www.inkscape.org/) -->

<svg
   width="4in"
   height="4in"
   viewBox="0 0 101.6 101.6"
   version="1.1"
   id="svg5"
   sodipodi:docname="ocean.svg"
   inkscape:version="1.3.2 (091e20e, 2023-11-25)"
   xml:space="preserve"
   xmlns:inkscape="http://www.inkscape.org/namespaces/inkscape"
   xmlns:sodipodi="http://sodipodi.sourceforge.net/DTD/sodipodi-0.dtd"
   xmlns="http://www.w3.org/2000/svg"
   xmlns:svg="http://www.w3.org/2000/svg"><sodipodi:namedview
     id="namedview7"
     pagecolor="#ffffff"
     bordercolor="#666666"
     borderopacity="1.0"
     inkscape:pageshadow="2"
     inkscape:pageopacity="0.0"
     inkscape:pagecheckerboard="0"
     inkscape:document-units="mm"
     showgrid="false"
     units="in"
     inkscape:zoom="1.0005102"
     inkscape:cx="184.90566"
     inkscape:cy="136.93014"
     inkscape:window-width="1280"
     inkscape:window-height="693"
     inkscape:window-x="0"
     inkscape:window-y="25"
     inkscape:window-maximized="0"
     inkscape:current-layer="layer2"
     inkscape:object-nodes="false"
     inkscape:showpageshadow="2"
     inkscape:deskcolor="#d1d1d1" /><defs
     id="defs2"><inkscape:path-effect
       effect="mirror_symmetry"
       start_point="52.936948,0.35615808"
       end_point="52.936948,101.95616"
       center_point="52.936948,51.156158"
       id="path-effect13"
       is_visible="true"
       lpeversion="1.2"
       lpesatellites=""
       mode="vertical"
       discard_orig_path="false"
       fuse_paths="false"
       oposite_fuse="false"
       split_items="false"
       split_open="false"
       link_styles="false" /><inkscape:path-effect
       effect="mirror_symmetry"
       start_point="52.350461,0.2584101"
       end_point="52.350461,101.85841"
       center_point="52.350461,51.05841"
       id="path-effect12"
       is_visible="true"
       lpeversion="1.2"
       lpesatellites=""
       mode="vertical"
       discard_orig_path="false"
       fuse_paths="false"
       oposite_fuse="false"
       split_items="false"
       split_open="false"
       link_styles="false" /><inkscape:path-effect
       effect="mirror_symmetry"
       start_point="51.631036,0.23743872"
       end_point="51.631036,101.83744"
       center_point="51.631036,51.037439"
       id="path-effect11"
       is_visible="true"
       lpeversion="1.2"
       lpesatellites=""
       mode="vertical"
       discard_orig_path="false"
       fuse_paths="false"
       oposite_fuse="false"
       split_items="false"
       split_open="false"
       link_styles="false" /><inkscape:path-effect
       effect="mirror_symmetry"
       start_point="53.024728,50.175912"
       end_point="53.024728,60.284613"
       center_point="53.024728,55.230262"
       id="path-effect10"
       is_visible="true"
       lpeversion="1.2"
       lpesatellites=""
       mode="free"
       discard_orig_path="false"
       fuse_paths="true"
       oposite_fuse="false"
       split_items="false"
       split_open="false"
       link_styles="false" /><inkscape:path-effect
       effect="mirror_symmetry"
       start_point="50.8,0"
       end_point="50.8,101.6"
       center_point="50.8,50.8"
       id="path-effect9"
       is_visible="true"
       lpeversion="1.2"
       lpesatellites=""
       mode="vertical"
       discard_orig_path="false"
       fuse_paths="false"
       oposite_fuse="false"
       split_items="false"
       split_open="false"
       link_styles="false" /><inkscape:path-effect
       effect="mirror_symmetry"
       start_point="51.235721,37.215187"
       end_point="51.235721,46.043331"
       center_point="51.235721,41.629259"
       id="path-effect8"
       is_visible="true"
       lpeversion="1.2"
       lpesatellites=""
       mode="free"
       discard_orig_path="false"
       fuse_paths="true"
       oposite_fuse="false"
       split_items="false"
       split_open="false"
       link_styles="false" /><inkscape:path-effect
       effect="mirror_symmetry"
       start_point="51.235721,23.614818"
       end_point="51.235721,37.439208"
       center_point="51.235721,30.527013"
       id="path-effect7"
       is_visible="true"
       lpeversion="1.2"
       lpesatellites=""
       mode="free"
       discard_orig_path="false"
       fuse_paths="true"
       oposite_fuse="false"
       split_items="false"
       split_open="false"
       link_styles="false" /><inkscape:path-effect
       effect="mirror_symmetry"
       start_point="53.633396,10.68638"
       end_point="53.633396,95.00827"
       center_point="53.633396,52.847325"
       id="path-effect5871"
       is_visible="true"
       lpeversion="1.1"
       mode="vertical"
       discard_orig_path="false"
       fuse_paths="false"
       oposite_fuse="false"
       split_items="false"
       split_open="false" /></defs><g
     inkscape:groupmode="layer"
     id="layer2"
     inkscape:label="Layer 2"><path
       id="path4106"
       d="m 21.605377,89.58447 c 0,0.690356 -0.559644,1.25 -1.25,1.25 -0.690357,0 -1.25,-0.559644 -1.25,-1.25 0,-0.690356 0.559643,-1.25 1.25,-1.25 0.690356,0 1.25,0.559644 1.25,1.25 z m 58.389247,0 c 0,0.690356 0.559644,1.25 1.25,1.25 0.690355,0 1.25,-0.559644 1.25,-1.25 0,-0.690356 -0.559645,-1.25 -1.25,-1.25 -0.690356,0 -1.25,0.559644 -1.25,1.25 z"
       style="fill:#000000;fill-opacity:1;stroke:none;stroke-width:1.18818;stroke-linecap:round;stroke-linejoin:round;stop-color:#000000" /><path
       id="path4106-3"
       d="m 25.737332,89.58447 c 0,0.690356 -0.559643,1.25 -1.25,1.25 -0.690356,0 -1.25,-0.559644 -1.25,-1.25 0,-0.690356 0.559644,-1.25 1.25,-1.25 0.690357,0 1.25,0.559644 1.25,1.25 z m 50.125335,0 c 0,0.690356 0.559645,1.25 1.25,1.25 0.690356,0 1.25,-0.559644 1.25,-1.25 0,-0.690356 -0.559644,-1.25 -1.25,-1.25 -0.690355,0 -1.25,0.559644 -1.25,1.25 z"
       style="fill:#000000;fill-opacity:1;stroke:none;stroke-width:1.18818;stroke-linecap:round;stroke-linejoin:round;stop-color:#000000" /><path
       style="fill:none;stroke:#000000;stroke-width:2.5;stroke-linecap:round;stroke-linejoin:round"
       d="M 86.328019,24.817308 C 79.689116,40.022939 59.932104,37.672223 50.799999,27.719365 41.667895,37.672223 21.910882,40.022939 15.27198,24.817308"
       id="path1"
       sodipodi:nodetypes="ccc" /><path
       style="fill:none;stroke:#000000;stroke-width:2.5;stroke-linecap:round;stroke-linejoin:round"
       d="m 40.411585,37.215187 c 5.244317,2.16936 8.619245,4.632501 10.824136,8.828144 2.204891,-4.195643 5.579819,-6.658784 10.824136,-8.828144"
       id="path2"
       sodipodi:nodetypes="ccc"
       transform="translate(-0.435721,-2.1166667)" /><path
       style="fill:none;stroke:#000000;stroke-width:2.5;stroke-linecap:round;stroke-linejoin:round"
       d="m 59.36564,60.284613 c -3.046485,-2.33307 -5.489422,-5.336748 -6.340912,-10.108701 -0.85149,4.771953 -3.294427,7.775631 -6.340912,10.108701 z"
       id="path3"
       sodipodi:nodetypes="ccc"
       transform="translate(-2.224728)" /><path
       style="fill:none;stroke:#000000;stroke-width:2.5;stroke-linecap:round;stroke-linejoin:round"
       d="m 15.131689,51.297498 c 10.445297,-0.286598 20.419206,-1.476687 27.473135,-8.263406 -1.055005,5.429916 0.169838,10.669845 -7.297552,16.634127 z m 71.336622,0 C 76.023014,51.0109 66.049105,49.820811 58.995176,43.034092 c 1.055005,5.429916 -0.169838,10.669845 7.297552,16.634127 z"
       id="path4"
       sodipodi:nodetypes="cccc" /><path
       style="fill:none;stroke:#000000;stroke-width:2.5;stroke-linecap:round;stroke-linejoin:round"
       d="m 19.317049,65.677967 c -8.876052,19.083618 9.172565,24.068192 15.020006,13.290575 3.599585,-6.634517 13.349205,-6.026119 12.882399,9.03135 M 85.383872,65.677967 c 8.876052,19.083618 -9.172565,24.068192 -15.020006,13.290575 -3.599585,-6.634517 -13.349205,-6.026119 -12.882399,9.03135"
       id="path5"
       sodipodi:nodetypes="csc"
       transform="translate(-1.5504606,-0.2584101)" /><path
       id="path6"
       transform="translate(-0.83103553,-0.23743872)"
       d="m 46.038969,68.03894 c 0,1.481738 -2.666633,2.682924 -5.956091,2.682924 -3.289458,0 -5.95609,-1.201186 -5.95609,-2.682924 0,-1.481737 2.666632,-2.682923 5.95609,-2.682923 3.289458,0 5.956091,1.201186 5.956091,2.682923 z m 11.184133,0 c 0,1.481738 2.666633,2.682924 5.956091,2.682924 3.289458,0 5.95609,-1.201186 5.95609,-2.682924 0,-1.481737 -2.666632,-2.682923 -5.95609,-2.682923 -3.289458,0 -5.956091,1.201186 -5.956091,2.682923 z"
       style="fill:none;stroke:#000000;stroke-width:2.5;stroke-linecap:round;stroke-linejoin:round" /><path
       style="fill:none;stroke:#000000;stroke-width:2.5;stroke-linecap:round;stroke-linejoin:round"
       d="M 59.325131,23.134584 50.8,8.6312516 42.27487,23.134584 Z"
       id="path7"
       sodipodi:nodetypes="ccc" /></g></svg>
