<?xml version="1.0" encoding="UTF-8" standalone="no"?>
<!-- Created with Inkscape (http://www.inkscape.org/) -->

<svg
   width="4in"
   height="4in"
   viewBox="0 0 101.6 101.6"
   version="1.1"
   id="svg5"
   sodipodi:docname="orange.svg"
   inkscape:version="1.3.2 (091e20e, 2023-11-25)"
   xmlns:inkscape="http://www.inkscape.org/namespaces/inkscape"
   xmlns:sodipodi="http://sodipodi.sourceforge.net/DTD/sodipodi-0.dtd"
   xmlns="http://www.w3.org/2000/svg"
   xmlns:svg="http://www.w3.org/2000/svg">
  <sodipodi:namedview
     id="namedview7"
     pagecolor="#ffffff"
     bordercolor="#666666"
     borderopacity="1.0"
     inkscape:pageshadow="2"
     inkscape:pageopacity="0.0"
     inkscape:pagecheckerboard="0"
     inkscape:document-units="mm"
     showgrid="false"
     units="in"
     inkscape:zoom="0.5646646"
     inkscape:cx="182.40917"
     inkscape:cy="179.75272"
     inkscape:window-width="1280"
     inkscape:window-height="800"
     inkscape:window-x="0"
     inkscape:window-y="0"
     inkscape:window-maximized="0"
     inkscape:current-layer="layer2"
     inkscape:object-nodes="false"
     inkscape:showpageshadow="2"
     inkscape:deskcolor="#d1d1d1" />
  <defs
     id="defs2">
    <inkscape:path-effect
       effect="mirror_symmetry"
       start_point="50.8,0"
       end_point="50.8,101.6"
       center_point="50.8,50.8"
       id="path-effect2694"
       is_visible="true"
       lpeversion="1.1"
       mode="vertical"
       discard_orig_path="false"
       fuse_paths="false"
       oposite_fuse="false"
       split_items="false"
       split_open="false"
       lpesatellites="" />
    <inkscape:path-effect
       effect="mirror_symmetry"
       start_point="52.01363,63.11208"
       end_point="52.01363,78.718873"
       center_point="52.01363,70.915477"
       id="path-effect2460"
       is_visible="true"
       lpeversion="1.1"
       mode="free"
       discard_orig_path="false"
       fuse_paths="false"
       oposite_fuse="false"
       split_items="false"
       split_open="false" />
    <inkscape:path-effect
       effect="mirror_symmetry"
       start_point="44.559447,58.179312"
       end_point="44.559447,85.752426"
       center_point="44.559447,71.965869"
       id="path-effect2440"
       is_visible="true"
       lpeversion="1.1"
       mode="vertical"
       discard_orig_path="false"
       fuse_paths="false"
       oposite_fuse="false"
       split_items="false"
       split_open="false" />
    <inkscape:path-effect
       effect="mirror_symmetry"
       start_point="30.976271,21.534305"
       end_point="30.976271,40.888522"
       center_point="30.976271,31.211414"
       id="path-effect2282"
       is_visible="true"
       lpeversion="1.1"
       mode="vertical"
       discard_orig_path="false"
       fuse_paths="false"
       oposite_fuse="false"
       split_items="false"
       split_open="false" />
    <inkscape:path-effect
       effect="mirror_symmetry"
       start_point="56.592003,23.475681"
       end_point="56.592003,35.402374"
       center_point="56.592003,29.439028"
       id="path-effect2280"
       is_visible="true"
       lpeversion="1.1"
       mode="vertical"
       discard_orig_path="false"
       fuse_paths="false"
       oposite_fuse="false"
       split_items="false"
       split_open="false" />
    <inkscape:path-effect
       effect="mirror_symmetry"
       start_point="53.633396,10.68638"
       end_point="53.633396,95.00827"
       center_point="53.633396,52.847325"
       id="path-effect5871"
       is_visible="true"
       lpeversion="1.1"
       mode="vertical"
       discard_orig_path="false"
       fuse_paths="false"
       oposite_fuse="false"
       split_items="false"
       split_open="false" />
  </defs>
  <g
     inkscape:groupmode="layer"
     id="layer2"
     inkscape:label="Layer 2"
     style="display:inline">
    <path
       style="opacity:1;fill:none;stroke:#1c0000;stroke-width:2.5;stroke-linecap:round;stroke-linejoin:round;stop-color:#000000"
       d="M 30.976271,21.534305 C 29.512279,40.670144 21.340383,46.339734 13.417529,35.283132 m 57.2062,-13.748827 c 1.463992,19.135839 9.635888,24.805429 17.558742,13.748827"
       id="path1076"
       sodipodi:nodetypes="cc" />
    <path
       id="path1190"
       transform="rotate(38.547719)"
       d="m 56.592003,29.439028 c 0,3.293465 -1.891166,5.963346 -4.224037,5.963346 -2.332872,0 -4.224037,-2.669881 -4.224037,-5.963346 0,-3.293466 1.891165,-5.963347 4.224037,-5.963347 2.332871,0 4.224037,2.669881 4.224037,5.963347 z M 95.51722,-1.5764545 c 3.210284,0.73552215 6.23508,-0.5116208 6.75608,-2.7855718 0.52099,-2.2739509 -1.65911,-4.7136109 -4.86939,-5.449133 -3.210284,-0.7355217 -6.235083,0.5116208 -6.756078,2.7855718 -0.520995,2.2739509 1.659105,4.7136109 4.869388,5.449133 z"
       style="opacity:1;fill:none;stroke:#1c0000;stroke-width:2.5;stroke-linecap:round;stroke-linejoin:round;stop-color:#000000" />
    <g
       id="g2278"
       transform="translate(-0.7166852,32.043687)">
      <path
         sodipodi:type="star"
         style="opacity:1;fill:none;stroke:#1c0000;stroke-width:9.44882;stroke-linecap:round;stroke-linejoin:round;stop-color:#000000"
         id="path1313"
         inkscape:flatsided="true"
         sodipodi:sides="3"
         sodipodi:cx="108.93672"
         sodipodi:cy="346.21841"
         sodipodi:r1="21.705873"
         sodipodi:r2="10.852937"
         sodipodi:arg1="0.52359878"
         sodipodi:arg2="1.5707963"
         inkscape:rounded="-3.46945e-18"
         inkscape:randomized="0"
         d="m 127.73456,357.07135 -37.595676,0 18.797836,-32.55881 z"
         transform="matrix(0.26458333,0,0,0.26458333,5.9633462,-39.36793)"
         inkscape:transform-center-y="-1.4357542" />
      <path
         sodipodi:type="star"
         style="display:inline;opacity:1;fill:none;stroke:#1c0000;stroke-width:9.44882;stroke-linecap:round;stroke-linejoin:round;stop-color:#000000"
         id="path1313-2"
         inkscape:flatsided="true"
         sodipodi:sides="3"
         sodipodi:cx="108.93672"
         sodipodi:cy="346.21841"
         sodipodi:r1="21.705873"
         sodipodi:r2="10.852937"
         sodipodi:arg1="0.52359878"
         sodipodi:arg2="1.5707963"
         inkscape:rounded="-3.46945e-18"
         inkscape:randomized="0"
         transform="matrix(0.26458333,0,0,0.26458333,22.693847,-39.36793)"
         inkscape:transform-center-y="-1.4357542"
         d="m 127.73456,357.07135 -37.595676,0 18.797836,-32.55881 z" />
      <path
         sodipodi:type="star"
         style="display:inline;opacity:1;fill:none;stroke:#1c0000;stroke-width:9.44882;stroke-linecap:round;stroke-linejoin:round;stop-color:#000000"
         id="path1313-3"
         inkscape:flatsided="true"
         sodipodi:sides="3"
         sodipodi:cx="108.93672"
         sodipodi:cy="346.21841"
         sodipodi:r1="21.705873"
         sodipodi:r2="10.852937"
         sodipodi:arg1="0.52359878"
         sodipodi:arg2="1.5707963"
         inkscape:rounded="-3.46945e-18"
         inkscape:randomized="0"
         transform="matrix(0.26458333,0,0,0.26458333,39.424343,-39.36793)"
         inkscape:transform-center-y="-1.4357542"
         d="m 127.73456,357.07135 -37.595676,0 18.797836,-32.55881 z" />
    </g>
    <path
       style="opacity:1;fill:none;stroke:#1c0000;stroke-width:2.5;stroke-linecap:round;stroke-linejoin:round;stop-color:#000000"
       d="M 42.971947,65.596806 C 39.779132,51.364364 30.686499,59.48011 27.610882,74.212641 25.764888,83.05515 13.549763,92.47959 9.1106675,79.014336 M 58.628053,65.596806 c 3.192815,-14.232442 12.285448,-6.116696 15.361065,8.615835 1.845994,8.842509 14.061119,18.266949 18.500214,4.801695"
       id="path1458"
       sodipodi:nodetypes="csccsc" />
    <path
       style="opacity:1;fill:none;stroke:#1c0000;stroke-width:2.5;stroke-linecap:round;stroke-linejoin:round;stop-color:#000000"
       d="M 37.216824,71.003305 C 38.863078,76.244776 50.488645,75.923584 50.8,55.703744 c 0.311355,20.21984 11.936922,20.541032 13.583176,15.299561"
       id="path1778"
       sodipodi:nodetypes="ccc" />
    <path
       style="opacity:1;fill:none;stroke:#1c0000;stroke-width:2.5;stroke-linecap:round;stroke-linejoin:round;stop-color:#000000"
       d="m 26.118373,40.086938 c 0,0 6.307263,10.435856 24.681626,10.435856 18.374364,0 24.681627,-10.435856 24.681627,-10.435856"
       id="path1946"
       sodipodi:nodetypes="czc" />
    <path
       sodipodi:type="star"
       style="opacity:1;fill:none;stroke:#1c0000;stroke-width:7.60479;stroke-linecap:round;stroke-linejoin:round;stop-color:#000000"
       id="path2502"
       inkscape:flatsided="true"
       sodipodi:sides="3"
       sodipodi:cx="144.54671"
       sodipodi:cy="132.50114"
       sodipodi:r1="55.664341"
       sodipodi:r2="27.83217"
       sodipodi:arg1="-1.5707963"
       sodipodi:arg2="-0.52359878"
       inkscape:rounded="-3.46945e-18"
       inkscape:randomized="0"
       d="m 144.54671,76.836803 48.20673,83.496517 -96.413467,-10e-6 z"
       transform="matrix(0.26458333,0,0,0.40845434,12.555351,-25.079524)"
       inkscape:transform-center-y="-5.684085" />
    <g
       id="g2692">
      <path
         id="path4106-3"
         d="m 14.587717,91.82505 c 0,0.690356 -0.559644,1.25 -1.25,1.25 -0.690356,0 -1.25,-0.559644 -1.25,-1.25 0,-0.690356 0.559644,-1.25 1.25,-1.25 0.690356,0 1.25,0.559644 1.25,1.25 z m 72.424566,0 c 0,0.690356 0.559644,1.25 1.25,1.25 0.690356,0 1.25,-0.559644 1.25,-1.25 0,-0.690356 -0.559644,-1.25 -1.25,-1.25 -0.690356,0 -1.25,0.559644 -1.25,1.25 z"
         style="fill:#000000;fill-opacity:1;stroke:none;stroke-width:1.18818;stroke-linecap:round;stroke-linejoin:round;stop-color:#000000" />
      <path
         id="path4106-3-3"
         d="m 21.359175,91.82505 c 0,0.690356 -0.559644,1.25 -1.25,1.25 -0.690356,0 -1.25,-0.559644 -1.25,-1.25 0,-0.690356 0.559644,-1.25 1.25,-1.25 0.690356,0 1.25,0.559644 1.25,1.25 z m 58.88165,0 c 0,0.690356 0.559644,1.25 1.25,1.25 0.690356,0 1.25,-0.559644 1.25,-1.25 0,-0.690356 -0.559644,-1.25 -1.25,-1.25 -0.690356,0 -1.25,0.559644 -1.25,1.25 z"
         style="fill:#000000;fill-opacity:1;stroke:none;stroke-width:1.18818;stroke-linecap:round;stroke-linejoin:round;stop-color:#000000" />
    </g>
  </g>
</svg>
