<?xml version="1.0" encoding="UTF-8" standalone="no"?>
<!-- Created with Inkscape (http://www.inkscape.org/) -->

<svg
   width="4in"
   height="4in"
   viewBox="0 0 101.6 101.6"
   version="1.1"
   id="svg5"
   sodipodi:docname="pink.svg"
   inkscape:version="1.3.2 (091e20e, 2023-11-25)"
   xmlns:inkscape="http://www.inkscape.org/namespaces/inkscape"
   xmlns:sodipodi="http://sodipodi.sourceforge.net/DTD/sodipodi-0.dtd"
   xmlns="http://www.w3.org/2000/svg"
   xmlns:svg="http://www.w3.org/2000/svg">
  <sodipodi:namedview
     id="namedview7"
     pagecolor="#ffffff"
     bordercolor="#666666"
     borderopacity="1.0"
     inkscape:pageshadow="2"
     inkscape:pageopacity="0.0"
     inkscape:pagecheckerboard="0"
     inkscape:document-units="mm"
     showgrid="false"
     units="in"
     inkscape:zoom="1.1414612"
     inkscape:cx="190.10721"
     inkscape:cy="184.41275"
     inkscape:window-width="1280"
     inkscape:window-height="694"
     inkscape:window-x="0"
     inkscape:window-y="25"
     inkscape:window-maximized="0"
     inkscape:current-layer="layer2"
     inkscape:object-nodes="false"
     inkscape:showpageshadow="2"
     inkscape:deskcolor="#d1d1d1" />
  <defs
     id="defs2">
    <inkscape:path-effect
       effect="mirror_symmetry"
       start_point="50.8,0"
       end_point="50.8,101.6"
       center_point="50.8,50.8"
       id="path-effect13"
       is_visible="true"
       lpeversion="1.2"
       lpesatellites=""
       mode="vertical"
       discard_orig_path="false"
       fuse_paths="false"
       oposite_fuse="false"
       split_items="false"
       split_open="false"
       link_styles="false" />
    <inkscape:path-effect
       effect="mirror_symmetry"
       start_point="50.048644,58.277667"
       end_point="50.048644,94.836111"
       center_point="50.048644,76.556889"
       id="path-effect12"
       is_visible="true"
       lpeversion="1.2"
       lpesatellites=""
       mode="free"
       discard_orig_path="false"
       fuse_paths="true"
       oposite_fuse="false"
       split_items="false"
       split_open="false"
       link_styles="false" />
    <inkscape:path-effect
       effect="mirror_symmetry"
       start_point="50.8,0"
       end_point="50.8,101.6"
       center_point="50.8,50.8"
       id="path-effect11"
       is_visible="true"
       lpeversion="1.2"
       lpesatellites=""
       mode="vertical"
       discard_orig_path="false"
       fuse_paths="false"
       oposite_fuse="false"
       split_items="false"
       split_open="false"
       link_styles="false" />
    <inkscape:path-effect
       effect="mirror_symmetry"
       start_point="47.78885,-3.7385071"
       end_point="47.78885,97.861493"
       center_point="47.78885,47.061493"
       id="path-effect10"
       is_visible="true"
       lpeversion="1.2"
       lpesatellites=""
       mode="vertical"
       discard_orig_path="false"
       fuse_paths="false"
       oposite_fuse="false"
       split_items="false"
       split_open="false"
       link_styles="false" />
    <inkscape:path-effect
       effect="mirror_symmetry"
       start_point="53.869789,-3.1881591"
       end_point="43.615941,97.893088"
       center_point="48.742865,47.352465"
       id="path-effect9"
       is_visible="true"
       lpeversion="1.2"
       lpesatellites=""
       mode="vertical"
       discard_orig_path="false"
       fuse_paths="false"
       oposite_fuse="false"
       split_items="false"
       split_open="false"
       link_styles="false" />
    <inkscape:path-effect
       effect="mirror_symmetry"
       start_point="50.52674,4.7267956"
       end_point="50.52674,24.435809"
       center_point="50.52674,14.581302"
       id="path-effect8"
       is_visible="true"
       lpeversion="1.2"
       lpesatellites=""
       mode="free"
       discard_orig_path="false"
       fuse_paths="false"
       oposite_fuse="false"
       split_items="false"
       split_open="false"
       link_styles="false" />
    <inkscape:path-effect
       effect="mirror_symmetry"
       start_point="53.633396,10.68638"
       end_point="53.633396,95.00827"
       center_point="53.633396,52.847325"
       id="path-effect5871"
       is_visible="true"
       lpeversion="1.1"
       mode="vertical"
       discard_orig_path="false"
       fuse_paths="false"
       oposite_fuse="false"
       split_items="false"
       split_open="false" />
  </defs>
  <g
     inkscape:groupmode="layer"
     id="layer2"
     inkscape:label="Layer 2">
    <path
       style="fill:none;stroke:#1c0000;stroke-width:2.5;stroke-linecap:round;stroke-linejoin:round"
       d="M 50.52674,4.7267956 C 49.813241,8.3858985 44.01429,18.480728 36.712623,15.020825 30.692225,12.168052 18.841377,20.468745 24.517265,28.668813 M 50.52674,4.7267956 c 0.713499,3.6591029 6.51245,13.7539324 13.814117,10.2940294 6.020398,-2.852773 17.871246,5.44792 12.195358,13.647988"
       id="path1"
       sodipodi:nodetypes="csc"
       inkscape:path-effect="#path-effect8"
       inkscape:original-d="M 50.52674,4.7267956 C 49.813241,8.3858985 44.01429,18.480728 36.712623,15.020825 30.692225,12.168052 18.841377,20.468745 24.517265,28.668813"
       transform="translate(0.27326)" />
    <path
       style="fill:none;stroke:#1c0000;stroke-width:2.5;stroke-linecap:round;stroke-linejoin:round"
       d="m 15.955172,28.343894 c 8.027553,2.852983 13.278743,0.15324 17.832252,-3.941866 M 84.679875,35.315441 C 76.242926,36.498238 71.640863,32.798964 68.00248,27.87286"
       id="path2"
       sodipodi:nodetypes="cc"
       inkscape:path-effect="#path-effect9"
       inkscape:original-d="m 15.955172,28.343894 c 8.027553,2.852983 13.278743,0.15324 17.832252,-3.941866"
       transform="rotate(-5.7923637,83.844045,28.745201)" />
    <g
       id="g9"
       inkscape:path-effect="#path-effect10"
       transform="translate(3.01115,3.7385071)">
      <path
         style="fill:none;stroke:#1c0000;stroke-width:2.5;stroke-linecap:round;stroke-linejoin:round"
         d="M 18.583083,38.66783 C 24.5435,39.367149 30.388921,38.226518 35.852211,30.971804 M 76.994617,38.66783 C 71.0342,39.367149 65.188779,38.226518 59.725489,30.971804"
         id="path3"
         sodipodi:nodetypes="cc"
         inkscape:original-d="M 18.583083,38.66783 C 24.5435,39.367149 30.388921,38.226518 35.852211,30.971804" />
      <path
         style="fill:none;stroke:#1c0000;stroke-width:2.5;stroke-linecap:round;stroke-linejoin:round"
         d="M 28.473325,37.4413 C 25.765101,45.227772 21.818455,65.4374 7.2995006,56.182275 M 67.104375,37.4413 c 2.708224,7.786472 6.65487,27.9961 21.173824,18.740975"
         id="path4"
         sodipodi:nodetypes="cc"
         inkscape:original-d="M 28.473325,37.4413 C 25.765101,45.227772 21.818455,65.4374 7.2995006,56.182275" />
    </g>
    <path
       style="fill:none;stroke:#1c0000;stroke-width:2.5;stroke-linecap:round;stroke-linejoin:round"
       d="m 44.328495,23.514481 c 0,0 2.059751,2.142528 6.471505,2.142528 4.411754,0 6.471505,-2.142528 6.471505,-2.142528"
       id="path5"
       sodipodi:nodetypes="czc" />
    <path
       style="fill:none;stroke:#1c0000;stroke-width:2.5;stroke-linecap:round;stroke-linejoin:round"
       d="M 50.8,26.38325 V 43.968797"
       id="path6"
       sodipodi:nodetypes="cc" />
    <path
       style="fill:none;stroke:#1c0000;stroke-width:2.5;stroke-linecap:round;stroke-linejoin:round"
       d="M 44.746698,51.429647 C 25.894753,39.255181 32.14085,114.57268 5.5206965,86.297205 M 56.853302,51.429647 C 75.705247,39.255181 69.45915,114.57268 96.079303,86.297205"
       id="path7"
       sodipodi:nodetypes="cc"
       inkscape:path-effect="#path-effect11"
       inkscape:original-d="M 44.746698,51.429647 C 25.894753,39.255181 32.14085,114.57268 5.5206965,86.297205" />
    <path
       style="fill:none;stroke:#1c0000;stroke-width:2.5;stroke-linecap:round;stroke-linejoin:round"
       d="M 33.127839,94.836111 C 40.70033,93.383146 41.99808,75.894734 43.245487,58.277667 L 50.8,64.213356 58.354513,58.277667 c 1.247407,17.617067 2.545157,35.105479 10.117648,36.558444"
       id="path8"
       sodipodi:nodetypes="ccccc" />
    <g
       id="g12">
      <path
         id="path4106"
         d="m 13.612499,96.76458 c 0,0.690356 -0.559644,1.25 -1.25,1.25 -0.690356,0 -1.25,-0.559644 -1.25,-1.25 0,-0.690356 0.559644,-1.25 1.25,-1.25 0.690356,0 1.25,0.559644 1.25,1.25 z m 74.375002,0 c 0,0.690356 0.559644,1.25 1.25,1.25 0.690356,0 1.25,-0.559644 1.25,-1.25 0,-0.690356 -0.559644,-1.25 -1.25,-1.25 -0.690356,0 -1.25,0.559644 -1.25,1.25 z"
         style="fill:#000000;fill-opacity:1;stroke:none;stroke-width:1.18818;stroke-linecap:round;stroke-linejoin:round;stop-color:#000000" />
      <path
         id="path4106-3"
         d="m 18.904165,96.76458 c 0,0.690356 -0.559644,1.25 -1.25,1.25 -0.690356,0 -1.25,-0.559644 -1.25,-1.25 0,-0.690356 0.559644,-1.25 1.25,-1.25 0.690356,0 1.25,0.559644 1.25,1.25 z m 63.79167,0 c 0,0.690356 0.559644,1.25 1.25,1.25 0.690356,0 1.25,-0.559644 1.25,-1.25 0,-0.690356 -0.559644,-1.25 -1.25,-1.25 -0.690356,0 -1.25,0.559644 -1.25,1.25 z"
         style="fill:#000000;fill-opacity:1;stroke:none;stroke-width:1.18818;stroke-linecap:round;stroke-linejoin:round;stop-color:#000000" />
    </g>
    <path
       style="fill:none;stroke:#1c0000;stroke-width:2.5;stroke-linecap:round;stroke-linejoin:round"
       d="M 50.8,64.01595 V 93.181521"
       id="path13" />
  </g>
</svg>
