<?xml version="1.0" encoding="UTF-8" standalone="no"?>
<!-- Created with Inkscape (http://www.inkscape.org/) -->

<svg
   width="4in"
   height="4in"
   viewBox="0 0 101.6 101.6"
   version="1.1"
   id="svg5"
   sodipodi:docname="purple.svg"
   inkscape:version="1.3.2 (091e20e, 2023-11-25)"
   xml:space="preserve"
   xmlns:inkscape="http://www.inkscape.org/namespaces/inkscape"
   xmlns:sodipodi="http://sodipodi.sourceforge.net/DTD/sodipodi-0.dtd"
   xmlns="http://www.w3.org/2000/svg"
   xmlns:svg="http://www.w3.org/2000/svg"><sodipodi:namedview
     id="namedview7"
     pagecolor="#ffffff"
     bordercolor="#666666"
     borderopacity="1.0"
     inkscape:pageshadow="2"
     inkscape:pageopacity="0.0"
     inkscape:pagecheckerboard="0"
     inkscape:document-units="mm"
     showgrid="false"
     units="in"
     inkscape:zoom="0.67041497"
     inkscape:cx="181.97684"
     inkscape:cy="42.510984"
     inkscape:window-width="1280"
     inkscape:window-height="694"
     inkscape:window-x="0"
     inkscape:window-y="25"
     inkscape:window-maximized="0"
     inkscape:current-layer="layer2"
     inkscape:object-nodes="false"
     inkscape:showpageshadow="2"
     inkscape:deskcolor="#d1d1d1" /><defs
     id="defs2"><inkscape:path-effect
       effect="mirror_symmetry"
       start_point="50.8,0"
       end_point="50.8,101.6"
       center_point="50.8,50.8"
       id="path-effect12"
       is_visible="true"
       lpeversion="1.2"
       lpesatellites=""
       mode="vertical"
       discard_orig_path="false"
       fuse_paths="false"
       oposite_fuse="false"
       split_items="false"
       split_open="false"
       link_styles="false" /><inkscape:path-effect
       effect="mirror_symmetry"
       start_point="50.352769,46.425532"
       end_point="50.352769,57.926723"
       center_point="50.352769,52.176127"
       id="path-effect11"
       is_visible="true"
       lpeversion="1.2"
       lpesatellites=""
       mode="free"
       discard_orig_path="false"
       fuse_paths="false"
       oposite_fuse="false"
       split_items="false"
       split_open="false"
       link_styles="false" /><inkscape:path-effect
       effect="mirror_symmetry"
       start_point="51.054061,19.636177"
       end_point="51.054061,31.417883"
       center_point="51.054061,25.52703"
       id="path-effect10"
       is_visible="true"
       lpeversion="1.2"
       lpesatellites=""
       mode="free"
       discard_orig_path="false"
       fuse_paths="false"
       oposite_fuse="false"
       split_items="false"
       split_open="false"
       link_styles="false" /><inkscape:path-effect
       effect="mirror_symmetry"
       start_point="50.493027,2.1038761"
       end_point="50.493027,21.740053"
       center_point="50.493027,11.921965"
       id="path-effect9"
       is_visible="true"
       lpeversion="1.2"
       lpesatellites=""
       mode="free"
       discard_orig_path="false"
       fuse_paths="false"
       oposite_fuse="false"
       split_items="false"
       split_open="false"
       link_styles="false" /><inkscape:path-effect
       effect="mirror_symmetry"
       start_point="53.633396,10.68638"
       end_point="53.633396,95.00827"
       center_point="53.633396,52.847325"
       id="path-effect5871"
       is_visible="true"
       lpeversion="1.1"
       mode="vertical"
       discard_orig_path="false"
       fuse_paths="false"
       oposite_fuse="false"
       split_items="false"
       split_open="false" /></defs><g
     inkscape:groupmode="layer"
     id="layer2"
     inkscape:label="Layer 2"><path
       style="fill:none;stroke:#1c0000;stroke-width:2.5;stroke-linecap:round;stroke-linejoin:round"
       d="M 29.87504,21.740053 C 26.573265,14.953201 34.066193,12.650862 40.288916,14.867095 47.64021,17.485272 50.108388,6.020367 50.493027,2.1038761 M 71.111014,21.740053 C 74.412789,14.953201 66.919861,12.650862 60.697138,14.867095 53.345844,17.485272 50.877666,6.020367 50.493027,2.1038761"
       id="path3"
       sodipodi:nodetypes="csc" /><path
       style="fill:none;stroke:#1c0000;stroke-width:2.5;stroke-linecap:round;stroke-linejoin:round"
       d="m 35.485377,34.643826 c 0,0 3.819722,6.76427 15.989459,6.76427 12.169737,0 15.989458,-6.76427 15.989458,-6.76427"
       id="path4"
       sodipodi:nodetypes="czc" /><path
       style="fill:none;stroke:#1c0000;stroke-width:2.5;stroke-linecap:round;stroke-linejoin:round"
       d="m 50.352769,46.425532 c -2.934103,6.389806 -6.878943,4.659976 -11.917707,2.621713 -3.815122,-1.543279 -14.461691,0.921542 -4.913304,8.879478 M 50.352769,46.425532 c 2.934103,6.389806 6.878943,4.659976 11.917707,2.621713 3.815122,-1.543279 14.461691,0.921542 4.913304,8.879478"
       id="path5"
       sodipodi:nodetypes="csc" /><path
       id="path4106"
       d="m 45.332024,57.042137 c 0,0.690356 -0.559644,1.25 -1.25,1.25 -0.690356,0 -1.25,-0.559644 -1.25,-1.25 0,-0.690356 0.559644,-1.25 1.25,-1.25 0.690356,0 1.25,0.559644 1.25,1.25 z m 10.935952,0 c 0,0.690356 0.559644,1.25 1.25,1.25 0.690356,0 1.25,-0.559644 1.25,-1.25 0,-0.690356 -0.559644,-1.25 -1.25,-1.25 -0.690356,0 -1.25,0.559644 -1.25,1.25 z"
       style="fill:#000000;fill-opacity:1;stroke:none;stroke-width:1.18818;stroke-linecap:round;stroke-linejoin:round;stop-color:#000000" /><path
       id="path4106-0"
       d="m 36.494354,90.037811 c 0,0.690356 -0.559644,1.25 -1.25,1.25 -0.690356,0 -1.25,-0.559644 -1.25,-1.25 0,-0.690356 0.559644,-1.25 1.25,-1.25 0.690356,0 1.25,0.559644 1.25,1.25 z m 28.611292,0 c 0,0.690356 0.559644,1.25 1.25,1.25 0.690356,0 1.25,-0.559644 1.25,-1.25 0,-0.690356 -0.559644,-1.25 -1.25,-1.25 -0.690356,0 -1.25,0.559644 -1.25,1.25 z"
       style="fill:#000000;fill-opacity:1;stroke:none;stroke-width:1.18818;stroke-linecap:round;stroke-linejoin:round;stop-color:#000000" /><path
       style="fill:none;stroke:#1c0000;stroke-width:2.5;stroke-linecap:round;stroke-linejoin:round"
       d="m 38.851578,29.87504 c -2.587955,5.104209 -14.247219,7.98188 -21.459535,2.66491 m 45.356379,-2.66491 c 2.587955,5.104209 14.247219,7.98188 21.459535,2.66491"
       id="path1"
       sodipodi:nodetypes="cc" /><path
       style="fill:none;stroke:#1c0000;stroke-width:2.5;stroke-linecap:round;stroke-linejoin:round"
       d="m 26.649098,26.929614 c 4.060677,1.628563 11.080028,-0.0031 10.799897,-6.17137 m 37.501907,6.17137 c -4.060677,1.628563 -11.080028,-0.0031 -10.799897,-6.17137"
       id="path2"
       sodipodi:nodetypes="cc" /><path
       style="fill:none;stroke:#1c0000;stroke-width:2.5;stroke-linecap:round;stroke-linejoin:round"
       d="m 17.392043,64.799384 c 5.517971,5.052922 21.172767,0.597055 22.441345,-6.872661 m 44.374569,6.872661 C 78.689986,69.852306 63.03519,65.396439 61.766612,57.926723"
       id="path6"
       sodipodi:nodetypes="cc" /><path
       style="fill:none;stroke:#1c0000;stroke-width:2.5;stroke-linecap:round;stroke-linejoin:round"
       d="M 43.900881,60.451372 C 45.733864,74.905977 41.895509,81.208035 37.86977,87.240728 M 57.699119,60.451372 c -1.832983,14.454605 2.005372,20.756663 6.031111,26.789356"
       id="path7"
       sodipodi:nodetypes="cc" /><path
       style="fill:none;stroke:#1c0000;stroke-width:2.5;stroke-linecap:round;stroke-linejoin:round"
       d="m 14.025841,88.783572 h 15.00765 l 7.854471,-15.147909 z m 73.548318,0 H 72.566509 L 64.712038,73.635663 Z"
       id="path8" /><path
       style="fill:none;stroke:#1c0000;stroke-width:2.5;stroke-linecap:round;stroke-linejoin:round"
       d="m 51.054061,31.417883 c -8.79871,0 -4.207754,-11.781706 -4.207754,-11.781706 0,0 -4.488268,0.561034 -5.18956,2.805168 m 9.397314,8.976538 c 8.79871,0 4.207754,-11.781706 4.207754,-11.781706 0,0 4.488268,0.561034 5.18956,2.805168"
       id="path9"
       sodipodi:nodetypes="ccc" /><path
       style="fill:none;stroke:#1c0000;stroke-width:2.5;stroke-linecap:round;stroke-linejoin:round"
       d="m 44.12692,71.927529 c 0,0 3.45427,-0.870747 6.67308,-0.888125 3.21881,-0.01738 6.67308,0.888125 6.67308,0.888125"
       id="path12"
       sodipodi:nodetypes="czc" /><path
       id="path13"
       style="fill:none;stroke:#1c0000;stroke-width:2.5;stroke-linecap:round;stroke-linejoin:round"
       inkscape:transform-center-y="-2.3416351"
       transform="translate(6.0588501,-3.5694395)"
       d="M 51.265308,92.459338 H 38.216992 L 44.74115,78.409534 Z"
       sodipodi:nodetypes="cccc" /></g></svg>
