<?xml version="1.0" encoding="UTF-8" standalone="no"?>
<!-- Created with Inkscape (http://www.inkscape.org/) -->

<svg
   width="4in"
   height="4in"
   viewBox="0 0 101.6 101.6"
   version="1.1"
   id="svg5"
   sodipodi:docname="say.svg"
   inkscape:version="1.3.2 (091e20e, 2023-11-25)"
   xml:space="preserve"
   xmlns:inkscape="http://www.inkscape.org/namespaces/inkscape"
   xmlns:sodipodi="http://sodipodi.sourceforge.net/DTD/sodipodi-0.dtd"
   xmlns="http://www.w3.org/2000/svg"
   xmlns:svg="http://www.w3.org/2000/svg"><sodipodi:namedview
     id="namedview7"
     pagecolor="#ffffff"
     bordercolor="#666666"
     borderopacity="1.0"
     inkscape:pageshadow="2"
     inkscape:pageopacity="0.0"
     inkscape:pagecheckerboard="0"
     inkscape:document-units="mm"
     showgrid="false"
     units="in"
     inkscape:zoom="0.47312412"
     inkscape:cx="124.70301"
     inkscape:cy="307.53029"
     inkscape:window-width="1280"
     inkscape:window-height="800"
     inkscape:window-x="0"
     inkscape:window-y="0"
     inkscape:window-maximized="0"
     inkscape:current-layer="layer2"
     inkscape:object-nodes="false"
     inkscape:showpageshadow="2"
     inkscape:deskcolor="#d1d1d1" /><defs
     id="defs2"><inkscape:path-effect
       effect="mirror_symmetry"
       start_point="46.307867,-1.4638249"
       end_point="46.307867,100.13618"
       center_point="46.307867,49.336175"
       id="path-effect6"
       is_visible="true"
       lpeversion="1.2"
       lpesatellites=""
       mode="vertical"
       discard_orig_path="false"
       fuse_paths="false"
       oposite_fuse="false"
       split_items="false"
       split_open="false"
       link_styles="false" /><inkscape:path-effect
       effect="mirror_symmetry"
       start_point="49.827284,-2.4317903"
       end_point="49.827284,99.16821"
       center_point="49.827284,48.36821"
       id="path-effect5"
       is_visible="true"
       lpeversion="1.2"
       lpesatellites=""
       mode="vertical"
       discard_orig_path="false"
       fuse_paths="false"
       oposite_fuse="false"
       split_items="false"
       split_open="false"
       link_styles="false" /><inkscape:path-effect
       effect="mirror_symmetry"
       start_point="50.8,0"
       end_point="50.8,101.6"
       center_point="50.8,50.8"
       id="path-effect4"
       is_visible="true"
       lpeversion="1.2"
       lpesatellites=""
       mode="vertical"
       discard_orig_path="false"
       fuse_paths="false"
       oposite_fuse="false"
       split_items="false"
       split_open="false"
       link_styles="false" /><inkscape:path-effect
       effect="mirror_symmetry"
       start_point="50.8,0"
       end_point="50.8,101.6"
       center_point="50.8,50.8"
       id="path-effect3"
       is_visible="true"
       lpeversion="1.2"
       lpesatellites=""
       mode="vertical"
       discard_orig_path="false"
       fuse_paths="false"
       oposite_fuse="false"
       split_items="false"
       split_open="false"
       link_styles="false" /><inkscape:path-effect
       effect="mirror_symmetry"
       start_point="53.633396,10.68638"
       end_point="53.633396,95.00827"
       center_point="53.633396,52.847325"
       id="path-effect5871"
       is_visible="true"
       lpeversion="1.1"
       mode="vertical"
       discard_orig_path="false"
       fuse_paths="false"
       oposite_fuse="false"
       split_items="false"
       split_open="false" /></defs><g
     inkscape:groupmode="layer"
     id="layer2"
     inkscape:label="Layer 2"><g
       id="g5"
       inkscape:path-effect="#path-effect6"
       transform="translate(4.4921327,1.4638249)"><path
         style="fill:#000000;fill-opacity:1;stroke:none;stroke-width:1.18818;stroke-linecap:round;stroke-linejoin:round;stop-color:#000000"
         id="path4106"
         d="m 25.012386,64.617058 c 0,0.690356 -0.559644,1.25 -1.25,1.25 -0.690356,0 -1.25,-0.559644 -1.25,-1.25 0,-0.690356 0.559644,-1.25 1.25,-1.25 0.690356,0 1.25,0.559644 1.25,1.25 z m 42.590962,0 c 0,0.690356 0.559644,1.25 1.25,1.25 0.690356,0 1.25,-0.559644 1.25,-1.25 0,-0.690356 -0.559644,-1.25 -1.25,-1.25 -0.690356,0 -1.25,0.559644 -1.25,1.25 z"
         sodipodi:type="arc"
         sodipodi:cx="23.762386"
         sodipodi:cy="64.617058"
         sodipodi:rx="1.25"
         sodipodi:ry="1.25" /><path
         style="fill:#000000;fill-opacity:1;stroke:none;stroke-width:1.18818;stroke-linecap:round;stroke-linejoin:round;stop-color:#000000"
         id="path4106-5"
         d="m 24.263081,69.868813 c 0,0.690355 -0.559644,1.25 -1.25,1.25 -0.690356,0 -1.25,-0.559645 -1.25,-1.25 0,-0.690356 0.559644,-1.25 1.25,-1.25 0.690356,0 1.25,0.559644 1.25,1.25 z m 44.089573,0 c 0,0.690355 0.559644,1.25 1.25,1.25 0.690356,0 1.25,-0.559645 1.25,-1.25 0,-0.690356 -0.559644,-1.25 -1.25,-1.25 -0.690356,0 -1.25,0.559644 -1.25,1.25 z"
         sodipodi:type="arc"
         sodipodi:cx="23.013081"
         sodipodi:cy="69.868813"
         sodipodi:rx="1.25"
         sodipodi:ry="1.25" /></g><path
       style="opacity:1;fill:none;stroke:#000000;stroke-width:2.5;stroke-linecap:round;stroke-linejoin:round"
       id="path1"
       inkscape:path-effect="#path-effect5"
       sodipodi:type="arc"
       sodipodi:cx="34.652588"
       sodipodi:cy="12.870961"
       sodipodi:rx="3.2530999"
       sodipodi:ry="3.2530999"
       d="m 37.905688,12.870961 c 0,1.796638 -1.456463,3.2531 -3.2531,3.2531 -1.796638,0 -3.2531,-1.456462 -3.2531,-3.2531 0,-1.796637 1.456462,-3.2530997 3.2531,-3.2530997 1.796637,0 3.2531,1.4564627 3.2531,3.2530997 z m 23.843192,0 c 0,1.796638 1.456462,3.2531 3.2531,3.2531 1.796637,0 3.2531,-1.456462 3.2531,-3.2531 0,-1.796637 -1.456463,-3.2530997 -3.2531,-3.2530997 -1.796638,0 -3.2531,1.4564627 -3.2531,3.2530997 z"
       transform="translate(0.97271613,2.4317903)" /><circle
       style="fill:none;stroke:#000000;stroke-width:2.5;stroke-linecap:round;stroke-linejoin:round"
       id="path1-7"
       cx="50.799999"
       cy="7.1982098"
       r="3.2530999" /><path
       style="opacity:1;fill:none;stroke:#000000;stroke-width:2.5;stroke-linecap:round;stroke-linejoin:round"
       id="path2"
       inkscape:path-effect="#path-effect3"
       sodipodi:type="arc"
       sodipodi:cx="26.166241"
       sodipodi:cy="35.7841"
       sodipodi:rx="9.7593002"
       sodipodi:ry="9.7593002"
       d="m 35.925541,35.7841 c 0,5.389912 -4.369388,9.7593 -9.7593,9.7593 -5.389913,0 -9.759301,-4.369388 -9.759301,-9.7593 0,-5.389913 4.369388,-9.759301 9.759301,-9.759301 5.389912,0 9.7593,4.369388 9.7593,9.759301 z m 29.748918,0 c 0,5.389912 4.369388,9.7593 9.7593,9.7593 5.389913,0 9.759301,-4.369388 9.759301,-9.7593 0,-5.389913 -4.369388,-9.759301 -9.759301,-9.759301 -5.389912,0 -9.7593,4.369388 -9.7593,9.759301 z" /><path
       style="opacity:1;fill:none;stroke:#000000;stroke-width:2.5;stroke-linecap:round;stroke-linejoin:round"
       d="m 6.8376146,38.144115 c 8.9296824,1.065583 -1.9917013,27.0956 33.6138684,10.420611 -8.290613,6.32395 -4.448496,10.035714 -6.362469,28.365796 -1.93426,18.524381 -22.12505,19.773122 -23.797096,6.544996 M 94.762385,38.144115 c -8.929682,1.065583 1.991702,27.0956 -33.613868,10.420611 8.290613,6.32395 4.448496,10.035714 6.362469,28.365796 1.93426,18.524381 22.12505,19.773122 23.797096,6.544996"
       id="path3"
       sodipodi:nodetypes="ccsc"
       inkscape:path-effect="#path-effect4"
       inkscape:original-d="m 6.8376146,38.144115 c 8.9296824,1.065583 -1.9917013,27.0956 33.6138684,10.420611 -8.290613,6.32395 -4.448496,10.035714 -6.362469,28.365796 -1.93426,18.524381 -22.12505,19.773122 -23.797096,6.544996" /><path
       style="opacity:1;fill:none;stroke:#000000;stroke-width:2.5;stroke-linecap:round;stroke-linejoin:round"
       d="m 34.628594,67.84695 c 0,0 6.687009,4.377223 16.171406,4.377223 9.484397,0 16.171406,-4.377223 16.171406,-4.377223"
       id="path6"
       sodipodi:nodetypes="czc" /></g></svg>
