<?xml version="1.0" encoding="UTF-8" standalone="no"?>
<!-- Created with Inkscape (http://www.inkscape.org/) -->

<svg
   width="4in"
   height="4in"
   viewBox="0 0 101.6 101.6"
   version="1.1"
   id="svg5"
   sodipodi:docname="should.svg"
   inkscape:version="1.3.2 (091e20e, 2023-11-25)"
   xml:space="preserve"
   xmlns:inkscape="http://www.inkscape.org/namespaces/inkscape"
   xmlns:sodipodi="http://sodipodi.sourceforge.net/DTD/sodipodi-0.dtd"
   xmlns="http://www.w3.org/2000/svg"
   xmlns:svg="http://www.w3.org/2000/svg"><sodipodi:namedview
     id="namedview7"
     pagecolor="#ffffff"
     bordercolor="#666666"
     borderopacity="1.0"
     inkscape:pageshadow="2"
     inkscape:pageopacity="0.0"
     inkscape:pagecheckerboard="0"
     inkscape:document-units="mm"
     showgrid="false"
     units="in"
     inkscape:zoom="1.0202753"
     inkscape:cx="147.99927"
     inkscape:cy="208.27711"
     inkscape:window-width="1280"
     inkscape:window-height="694"
     inkscape:window-x="0"
     inkscape:window-y="25"
     inkscape:window-maximized="0"
     inkscape:current-layer="layer2"
     inkscape:object-nodes="false"
     inkscape:showpageshadow="2"
     inkscape:deskcolor="#d1d1d1" /><defs
     id="defs2"><inkscape:path-effect
       effect="mirror_symmetry"
       start_point="50.8,0"
       end_point="50.8,101.6"
       center_point="50.8,50.8"
       id="path-effect8"
       is_visible="true"
       lpeversion="1.2"
       lpesatellites=""
       mode="vertical"
       discard_orig_path="false"
       fuse_paths="false"
       oposite_fuse="false"
       split_items="false"
       split_open="false"
       link_styles="false" /><inkscape:path-effect
       effect="mirror_symmetry"
       start_point="50.8,0"
       end_point="50.8,101.6"
       center_point="50.8,50.8"
       id="path-effect7"
       is_visible="true"
       lpeversion="1.2"
       lpesatellites=""
       mode="vertical"
       discard_orig_path="false"
       fuse_paths="false"
       oposite_fuse="false"
       split_items="false"
       split_open="false"
       link_styles="false" /><inkscape:path-effect
       effect="mirror_symmetry"
       start_point="50.8,0"
       end_point="50.8,101.6"
       center_point="50.8,50.8"
       id="path-effect6"
       is_visible="true"
       lpeversion="1.2"
       lpesatellites=""
       mode="vertical"
       discard_orig_path="false"
       fuse_paths="false"
       oposite_fuse="false"
       split_items="false"
       split_open="false"
       link_styles="false" /><inkscape:path-effect
       effect="mirror_symmetry"
       start_point="50.799999,40.053998"
       end_point="50.799999,64.836414"
       center_point="50.799999,52.445206"
       id="path-effect2"
       is_visible="true"
       lpeversion="1.2"
       lpesatellites=""
       mode="free"
       discard_orig_path="false"
       fuse_paths="true"
       oposite_fuse="false"
       split_items="false"
       split_open="false"
       link_styles="false" /><inkscape:path-effect
       effect="mirror_symmetry"
       start_point="40.100468,8.1059272"
       end_point="40.100468,109.70593"
       center_point="40.100468,58.905927"
       id="path-effect4"
       is_visible="true"
       lpeversion="1.2"
       lpesatellites=""
       mode="vertical"
       discard_orig_path="false"
       fuse_paths="false"
       oposite_fuse="false"
       split_items="false"
       split_open="false"
       link_styles="false" /><inkscape:path-effect
       effect="mirror_symmetry"
       start_point="46.211083,-2.4494207"
       end_point="46.211083,99.150579"
       center_point="46.211083,48.350579"
       id="path-effect3"
       is_visible="true"
       lpeversion="1.2"
       lpesatellites=""
       mode="vertical"
       discard_orig_path="false"
       fuse_paths="false"
       oposite_fuse="false"
       split_items="false"
       split_open="false"
       link_styles="false" /><inkscape:path-effect
       effect="mirror_symmetry"
       start_point="53.633396,10.68638"
       end_point="53.633396,95.00827"
       center_point="53.633396,52.847325"
       id="path-effect5871"
       is_visible="true"
       lpeversion="1.1"
       mode="vertical"
       discard_orig_path="false"
       fuse_paths="false"
       oposite_fuse="false"
       split_items="false"
       split_open="false" /></defs><g
     inkscape:groupmode="layer"
     id="layer2"
     inkscape:label="Layer 2"><path
       id="path2"
       style="opacity:1;fill:none;stroke:#000000;stroke-width:2.5;stroke-linecap:round;stroke-linejoin:round"
       d="M 90.487002,58.129517 C 89.455348,46.686354 83.562036,40.104848 71.13807,40.053998 c 0.755698,1.908368 1.166007,3.956486 1.166007,6.087916 0,10.324687 -9.627704,18.6945 -21.504078,18.6945 -11.876374,0 -21.504078,-8.369813 -21.504078,-18.6945 0,-2.13143 0.410309,-4.179548 1.166007,-6.087916 -12.423966,0.05085 -18.317278,6.632356 -19.348932,18.075519"
       sodipodi:nodetypes="cscc"
       inkscape:path-effect="#path-effect2"
       inkscape:original-d="m 50.799999,64.836414 c -11.876374,0 -21.504078,-8.369813 -21.504078,-18.6945 0,-2.13143 0.410309,-4.179548 1.166007,-6.087916 -12.423966,0.05085 -18.317278,6.632356 -19.348932,18.075519" /><circle
       style="opacity:1;fill:none;stroke:#000000;stroke-width:2.5;stroke-linecap:round;stroke-linejoin:round"
       id="path1"
       cx="50.799999"
       cy="34.195446"
       r="14.047151" /><path
       style="fill:none;stroke:#000000;stroke-width:2.5;stroke-linecap:round;stroke-linejoin:round"
       id="path4"
       inkscape:path-effect="#path-effect4"
       sodipodi:type="arc"
       sodipodi:cx="22.698502"
       sodipodi:cy="24.153534"
       sodipodi:rx="4.6561031"
       sodipodi:ry="4.6561031"
       d="m 27.354605,24.153534 c 0,2.571495 -2.084609,4.656103 -4.656103,4.656103 -2.571495,0 -4.656104,-2.084608 -4.656104,-4.656103 0,-2.571495 2.084609,-4.656103 4.656104,-4.656103 2.571494,0 4.656103,2.084608 4.656103,4.656103 z m 25.491726,0 c 0,2.571495 2.084609,4.656103 4.656103,4.656103 2.571495,0 4.656104,-2.084608 4.656104,-4.656103 0,-2.571495 -2.084609,-4.656103 -4.656104,-4.656103 -2.571494,0 -4.656103,2.084608 -4.656103,4.656103 z"
       transform="translate(10.699532,-8.1059272)" /><circle
       style="fill:none;stroke:#000000;stroke-width:2.5;stroke-linecap:round;stroke-linejoin:round"
       id="path4-1"
       cx="50.799999"
       cy="10.085532"
       r="4.6561031" /><path
       style="opacity:1;fill:none;stroke:#000000;stroke-width:2.5;stroke-linecap:round;stroke-linejoin:round"
       d="M 59.989593,57.987043 50.8,51.860648 41.610407,57.987043 Z"
       id="path3"
       sodipodi:nodetypes="ccc" /><path
       style="opacity:1;fill:none;stroke:#000000;stroke-width:2.5;stroke-linecap:round;stroke-linejoin:round"
       d="m 23.656235,49.920401 c -1.294458,8.182808 -3.508212,13.377903 -6.314491,16.647292 M 77.943765,49.920401 c 1.294458,8.182808 3.508212,13.377903 6.314491,16.647292"
       id="path5"
       sodipodi:nodetypes="cc"
       inkscape:path-effect="#path-effect6"
       inkscape:original-d="m 23.656235,49.920401 c -1.294458,8.182808 -3.508212,13.377903 -6.314491,16.647292" /><path
       style="opacity:1;fill:none;stroke:#000000;stroke-width:2.5;stroke-linecap:round;stroke-linejoin:round"
       d="m 21.90642,57.404462 c 0,0 10.596913,13.585723 28.893579,13.585723 18.296667,0 28.89358,-13.585723 28.89358,-13.585723"
       id="path6"
       sodipodi:nodetypes="czc" /><path
       style="fill:#000000;fill-opacity:1;stroke:none;stroke-width:1.18818;stroke-linecap:round;stroke-linejoin:round;stop-color:#000000"
       id="path4106-6"
       inkscape:path-effect="#path-effect7"
       sodipodi:type="arc"
       sodipodi:cx="24.403055"
       sodipodi:cy="45.093102"
       sodipodi:rx="1.25"
       sodipodi:ry="1.25"
       d="m 25.653055,45.093102 c 0,0.690355 -0.559644,1.25 -1.25,1.25 -0.690356,0 -1.25,-0.559645 -1.25,-1.25 0,-0.690356 0.559644,-1.25 1.25,-1.25 0.690356,0 1.25,0.559644 1.25,1.25 z m 50.29389,0 c 0,0.690355 0.559644,1.25 1.25,1.25 0.690356,0 1.25,-0.559645 1.25,-1.25 0,-0.690356 -0.559644,-1.25 -1.25,-1.25 -0.690356,0 -1.25,0.559644 -1.25,1.25 z" /><path
       style="fill:#000000;fill-opacity:1;stroke:none;stroke-width:1.18818;stroke-linecap:round;stroke-linejoin:round;stop-color:#000000"
       id="path4106-6-3"
       inkscape:path-effect="#path-effect8"
       sodipodi:type="arc"
       sodipodi:cx="14.298802"
       sodipodi:cy="69.36293"
       sodipodi:rx="1.25"
       sodipodi:ry="1.25"
       d="m 15.548802,69.36293 c 0,0.690356 -0.559644,1.25 -1.25,1.25 -0.690356,0 -1.25,-0.559644 -1.25,-1.25 0,-0.690356 0.559644,-1.25 1.25,-1.25 0.690356,0 1.25,0.559644 1.25,1.25 z m 70.502396,0 c 0,0.690356 0.559644,1.25 1.25,1.25 0.690356,0 1.25,-0.559644 1.25,-1.25 0,-0.690356 -0.559644,-1.25 -1.25,-1.25 -0.690356,0 -1.25,0.559644 -1.25,1.25 z" /><path
       style="opacity:1;fill:none;stroke:#000000;stroke-width:2.5;stroke-linecap:round;stroke-linejoin:round"
       d="m 39.619729,74.111643 c 0,0 3.054775,2.033585 11.180271,2.033585 8.125495,0 11.18027,-2.033585 11.18027,-2.033585"
       id="path8"
       sodipodi:nodetypes="czc" /><path
       style="fill:none;stroke:#000000;stroke-width:2.5;stroke-linecap:round;stroke-linejoin:round"
       d="m 32.335613,78.838258 c 0,0 5.045007,3.727566 18.464387,3.727566 13.419379,0 18.464386,-3.727566 18.464386,-3.727566"
       id="path8-1"
       sodipodi:nodetypes="czc" /><path
       style="opacity:1;fill:none;stroke:#000000;stroke-width:2.5;stroke-linecap:round;stroke-linejoin:round"
       d="M 50.8,82.666244 V 96.980376"
       id="path9" /></g></svg>
