<?xml version="1.0" encoding="UTF-8" standalone="no"?>
<!-- Created with Inkscape (http://www.inkscape.org/) -->

<svg
   width="4in"
   height="4in"
   viewBox="0 0 101.6 101.6"
   version="1.1"
   id="svg5"
   sodipodi:docname="stars.svg"
   inkscape:version="1.3.2 (091e20e, 2023-11-25)"
   xml:space="preserve"
   xmlns:inkscape="http://www.inkscape.org/namespaces/inkscape"
   xmlns:sodipodi="http://sodipodi.sourceforge.net/DTD/sodipodi-0.dtd"
   xmlns="http://www.w3.org/2000/svg"
   xmlns:svg="http://www.w3.org/2000/svg"><sodipodi:namedview
     id="namedview7"
     pagecolor="#ffffff"
     bordercolor="#666666"
     borderopacity="1.0"
     inkscape:pageshadow="2"
     inkscape:pageopacity="0.0"
     inkscape:pagecheckerboard="0"
     inkscape:document-units="mm"
     showgrid="false"
     units="in"
     inkscape:zoom="0.77803646"
     inkscape:cx="146.5227"
     inkscape:cy="203.07532"
     inkscape:window-width="1280"
     inkscape:window-height="693"
     inkscape:window-x="0"
     inkscape:window-y="25"
     inkscape:window-maximized="0"
     inkscape:current-layer="layer2"
     inkscape:object-nodes="false"
     inkscape:showpageshadow="2"
     inkscape:deskcolor="#d1d1d1" /><defs
     id="defs2"><inkscape:path-effect
       effect="mirror_symmetry"
       start_point="50.8,0"
       end_point="50.8,101.6"
       center_point="50.8,50.8"
       id="path-effect10"
       is_visible="true"
       lpeversion="1.2"
       lpesatellites=""
       mode="vertical"
       discard_orig_path="false"
       fuse_paths="false"
       oposite_fuse="false"
       split_items="false"
       split_open="false"
       link_styles="false" /><inkscape:path-effect
       effect="mirror_symmetry"
       start_point="34.799864,37.008235"
       end_point="-39.216606,106.60796"
       center_point="-2.208371,71.808099"
       id="path-effect9"
       is_visible="true"
       lpeversion="1.2"
       lpesatellites=""
       mode="vertical"
       discard_orig_path="false"
       fuse_paths="false"
       oposite_fuse="false"
       split_items="false"
       split_open="false"
       link_styles="false" /><inkscape:path-effect
       effect="mirror_symmetry"
       start_point="41.654262,-29.078557"
       end_point="99.811375,54.229967"
       center_point="70.732819,12.575705"
       id="path-effect8"
       is_visible="true"
       lpeversion="1.2"
       lpesatellites=""
       mode="vertical"
       discard_orig_path="false"
       fuse_paths="false"
       oposite_fuse="false"
       split_items="false"
       split_open="false"
       link_styles="false" /><inkscape:path-effect
       effect="mirror_symmetry"
       start_point="47.790962,26.623277"
       end_point="47.790962,45.390503"
       center_point="47.790962,36.00689"
       id="path-effect7"
       is_visible="true"
       lpeversion="1.2"
       lpesatellites=""
       mode="free"
       discard_orig_path="false"
       fuse_paths="true"
       oposite_fuse="false"
       split_items="false"
       split_open="false"
       link_styles="false" /><inkscape:path-effect
       effect="mirror_symmetry"
       start_point="47.136293,21.822358"
       end_point="47.136293,33.388207"
       center_point="47.136293,27.605283"
       id="path-effect6"
       is_visible="true"
       lpeversion="1.2"
       lpesatellites=""
       mode="free"
       discard_orig_path="false"
       fuse_paths="true"
       oposite_fuse="false"
       split_items="false"
       split_open="false"
       link_styles="false" /><inkscape:path-effect
       effect="mirror_symmetry"
       start_point="50.8,0"
       end_point="50.8,101.6"
       center_point="50.8,50.8"
       id="path-effect5"
       is_visible="true"
       lpeversion="1.2"
       lpesatellites=""
       mode="vertical"
       discard_orig_path="false"
       fuse_paths="false"
       oposite_fuse="false"
       split_items="false"
       split_open="false"
       link_styles="false" /><inkscape:path-effect
       effect="mirror_symmetry"
       start_point="53.633396,10.68638"
       end_point="53.633396,95.00827"
       center_point="53.633396,52.847325"
       id="path-effect5871"
       is_visible="true"
       lpeversion="1.1"
       mode="vertical"
       discard_orig_path="false"
       fuse_paths="false"
       oposite_fuse="false"
       split_items="false"
       split_open="false" /></defs><g
     inkscape:groupmode="layer"
     id="layer2"
     inkscape:label="Layer 2"><path
       id="path1"
       style="fill:none;stroke:#000000;stroke-width:2.5;stroke-linecap:round;stroke-linejoin:round"
       d="m 54.291576,10.005502 a 3.4915771,3.4915771 0 0 1 -3.491577,3.491577 3.4915771,3.4915771 0 0 1 -3.491577,-3.491577 3.4915771,3.4915771 0 0 1 3.491577,-3.4915774 3.4915771,3.4915771 0 0 1 3.491577,3.4915774 z" /><path
       id="path1-2"
       d="m 35.517002,17.253832 c 0,1.928344 -1.563232,3.491577 -3.491577,3.491577 -1.928345,0 -3.491577,-1.563233 -3.491577,-3.491577 0,-1.928345 1.563232,-3.491578 3.491577,-3.491578 1.928345,0 3.491577,1.563233 3.491577,3.491578 z m 30.565996,0 c 0,1.928344 1.563232,3.491577 3.491577,3.491577 1.928345,0 3.491577,-1.563233 3.491577,-3.491577 0,-1.928345 -1.563232,-3.491578 -3.491577,-3.491578 -1.928345,0 -3.491577,1.563233 -3.491577,3.491578 z"
       style="fill:none;stroke:#000000;stroke-width:2.5;stroke-linecap:round;stroke-linejoin:round" /><path
       id="path2"
       d="m 32.613159,55.546488 c -1.897171,2.717647 -7.240467,2.264257 -11.934585,-1.012675 -4.694119,-3.276932 -6.961492,-8.136499 -5.064322,-10.854146 1.897172,-2.717648 7.240468,-2.264259 11.934587,1.012674 4.694118,3.276931 6.961492,8.136499 5.06432,10.854147 z m 36.373681,0 c 1.897172,2.717647 7.240468,2.264257 11.934587,-1.012675 4.694118,-3.276932 6.961491,-8.136499 5.06432,-10.854147 -1.897171,-2.717647 -7.240467,-2.264258 -11.934586,1.012675 -4.694118,3.276932 -6.961492,8.136499 -5.064321,10.854147 z"
       style="fill:none;stroke:#000000;stroke-width:2.5;stroke-linecap:round;stroke-linejoin:round" /><path
       id="path2-7"
       d="m 28.211189,75.449901 c 2.414527,2.270446 1.192738,7.491902 -2.728942,11.662449 -3.92168,4.170546 -9.05819,5.710882 -11.472717,3.440436 -2.414527,-2.270446 -1.192738,-7.491903 2.728941,-11.662449 3.921681,-4.170547 9.058192,-5.710882 11.472718,-3.440436 z m 45.177621,0 c -2.414523,2.270449 -1.192736,7.491903 2.72894,11.662446 3.921683,4.170551 9.058195,5.710888 11.472719,3.440438 2.414531,-2.270443 1.192737,-7.491904 -2.728939,-11.662447 -3.921684,-4.17055 -9.058189,-5.71088 -11.47272,-3.440437 z"
       style="fill:none;stroke:#000000;stroke-width:2.5;stroke-linecap:round;stroke-linejoin:round" /><path
       id="path2-3"
       style="fill:none;stroke:#000000;stroke-width:2.5;stroke-linecap:round;stroke-linejoin:round"
       d="m 50.799999,93.366962 a 6.0011482,10.36562 0 0 1 -6.001148,-10.36562 6.0011482,10.36562 0 0 1 6.001148,-10.365619 6.0011482,10.36562 0 0 1 6.001148,10.365619 6.0011482,10.36562 0 0 1 -6.001148,10.36562 z" /><path
       style="fill:none;stroke:#000000;stroke-width:2.5;stroke-linecap:round;stroke-linejoin:round"
       d="M 25.922513,27.681611 50.8,46.448837 75.677487,27.681611"
       id="path3"
       sodipodi:nodetypes="ccc" /><path
       style="fill:none;stroke:#000000;stroke-width:2.5;stroke-linecap:round;stroke-linejoin:round"
       d="M 36.615468,34.446541 50.8,22.880692 64.984532,34.446541"
       id="path4"
       sodipodi:nodetypes="ccc" /><path
       style="fill:none;stroke:#000000;stroke-width:2.5;stroke-linecap:round;stroke-linejoin:round"
       d="m 39.05491,61.942713 c 0,0 5.167573,4.926423 11.745089,4.926423 6.577517,0 11.74509,-4.926423 11.74509,-4.926423"
       id="path5"
       sodipodi:nodetypes="czc" /><path
       style="fill:none;stroke:#000000;stroke-width:2.5;stroke-linecap:round;stroke-linejoin:round"
       d="m 11.769225,58.028208 c 33.943128,20.638786 26.608682,-4.434782 26.608682,-4.434782 m 51.452868,4.434782 C 55.887647,78.666994 63.222093,53.593426 63.222093,53.593426"
       id="path9"
       sodipodi:nodetypes="cc" /></g></svg>
