<?xml version="1.0" encoding="UTF-8" standalone="no"?>
<!-- Created with Inkscape (http://www.inkscape.org/) -->

<svg
   width="4in"
   height="4in"
   viewBox="0 0 101.6 101.6"
   version="1.1"
   id="svg5"
   sodipodi:docname="sun.svg"
   inkscape:version="1.3.2 (091e20e, 2023-11-25)"
   xml:space="preserve"
   xmlns:inkscape="http://www.inkscape.org/namespaces/inkscape"
   xmlns:sodipodi="http://sodipodi.sourceforge.net/DTD/sodipodi-0.dtd"
   xmlns="http://www.w3.org/2000/svg"
   xmlns:svg="http://www.w3.org/2000/svg"><sodipodi:namedview
     id="namedview7"
     pagecolor="#ffffff"
     bordercolor="#666666"
     borderopacity="1.0"
     inkscape:pageshadow="2"
     inkscape:pageopacity="0.0"
     inkscape:pagecheckerboard="0"
     inkscape:document-units="mm"
     showgrid="false"
     units="in"
     inkscape:zoom="1.2859834"
     inkscape:cx="236.39496"
     inkscape:cy="177.29622"
     inkscape:window-width="1280"
     inkscape:window-height="693"
     inkscape:window-x="0"
     inkscape:window-y="25"
     inkscape:window-maximized="0"
     inkscape:current-layer="layer2"
     inkscape:object-nodes="false"
     inkscape:showpageshadow="2"
     inkscape:deskcolor="#d1d1d1" /><defs
     id="defs2"><inkscape:path-effect
       effect="mirror_symmetry"
       start_point="50.8,0"
       end_point="50.8,101.6"
       center_point="50.8,50.8"
       id="path-effect5"
       is_visible="true"
       lpeversion="1.2"
       lpesatellites=""
       mode="vertical"
       discard_orig_path="false"
       fuse_paths="false"
       oposite_fuse="false"
       split_items="false"
       split_open="false"
       link_styles="false" /><inkscape:path-effect
       effect="mirror_symmetry"
       start_point="52.525515,-6.3890922"
       end_point="52.525515,95.210908"
       center_point="52.525515,44.410908"
       id="path-effect4"
       is_visible="true"
       lpeversion="1.2"
       lpesatellites=""
       mode="vertical"
       discard_orig_path="false"
       fuse_paths="false"
       oposite_fuse="false"
       split_items="false"
       split_open="false"
       link_styles="false" /><inkscape:path-effect
       effect="mirror_symmetry"
       start_point="50.799999,34.75238"
       end_point="50.799999,54.762701"
       center_point="50.799999,44.757541"
       id="path-effect3"
       is_visible="true"
       lpeversion="1.2"
       lpesatellites=""
       mode="free"
       discard_orig_path="false"
       fuse_paths="false"
       oposite_fuse="false"
       split_items="false"
       split_open="false"
       link_styles="false" /><inkscape:path-effect
       effect="mirror_symmetry"
       start_point="51.573566,0"
       end_point="51.573566,101.6"
       center_point="51.573566,50.8"
       id="path-effect2"
       is_visible="true"
       lpeversion="1.2"
       lpesatellites=""
       mode="vertical"
       discard_orig_path="false"
       fuse_paths="false"
       oposite_fuse="false"
       split_items="false"
       split_open="false"
       link_styles="false" /><inkscape:path-effect
       effect="mirror_symmetry"
       start_point="53.633396,10.68638"
       end_point="53.633396,95.00827"
       center_point="53.633396,52.847325"
       id="path-effect5871"
       is_visible="true"
       lpeversion="1.1"
       mode="vertical"
       discard_orig_path="false"
       fuse_paths="false"
       oposite_fuse="false"
       split_items="false"
       split_open="false" /></defs><g
     inkscape:groupmode="layer"
     id="layer2"
     inkscape:label="Layer 2"><circle
       style="fill:#000000;fill-opacity:1;stroke:none;stroke-width:1.18818;stroke-linecap:round;stroke-linejoin:round;stop-color:#000000"
       id="path4106"
       cx="15.20584"
       cy="88.618927"
       r="1.25" /><circle
       style="fill:#000000;fill-opacity:1;stroke:none;stroke-width:1.18818;stroke-linecap:round;stroke-linejoin:round;stop-color:#000000"
       id="path4106-7"
       cx="20.091629"
       cy="88.618927"
       r="1.25" /><circle
       style="fill:#000000;fill-opacity:1;stroke:none;stroke-width:1.18818;stroke-linecap:round;stroke-linejoin:round;stop-color:#000000"
       id="path4106-5"
       cx="81.508369"
       cy="88.618927"
       r="1.25" /><circle
       style="fill:#000000;fill-opacity:1;stroke:none;stroke-width:1.18818;stroke-linecap:round;stroke-linejoin:round;stop-color:#000000"
       id="path4106-7-0"
       cx="86.394157"
       cy="88.618927"
       r="1.25" /><circle
       style="fill:none;stroke:#000000;stroke-width:2.5;stroke-linecap:round;stroke-linejoin:round"
       id="path1"
       cx="50.799999"
       cy="14.657262"
       r="8.0462646" /><path
       style="fill:none;stroke:#000000;stroke-width:2.5;stroke-linecap:round;stroke-linejoin:round"
       id="path1-6"
       inkscape:path-effect="#path-effect4"
       sodipodi:type="arc"
       sodipodi:cx="19.597685"
       sodipodi:cy="42.175011"
       sodipodi:rx="8.0462646"
       sodipodi:ry="8.0462646"
       d="m 27.64395,42.175011 c 0,4.443829 -3.602436,8.046264 -8.046265,8.046264 -4.443829,0 -8.046265,-3.602435 -8.046265,-8.046264 0,-4.44383 3.602436,-8.046265 8.046265,-8.046265 4.443829,0 8.046265,3.602435 8.046265,8.046265 z m 49.76313,0 c 0,4.443829 3.602436,8.046264 8.046265,8.046264 4.443829,0 8.046265,-3.602435 8.046265,-8.046264 0,-4.44383 -3.602436,-8.046265 -8.046265,-8.046265 -4.443829,0 -8.046265,3.602435 -8.046265,8.046265 z"
       transform="translate(-1.725515,6.3890922)" /><path
       id="path2"
       style="fill:none;stroke:#000000;stroke-width:2.00768;stroke-linecap:round;stroke-linejoin:round"
       d="m 33.277164,37.797452 c 3.388649,-2.697239 6.452346,-3.951634 9.479403,-2.309769 -2.023067,2.04433 -3.272331,4.855902 -3.272331,7.959255 10e-7,6.249523 5.06624,11.315763 11.315763,11.315763 6.249523,0 11.315762,-5.06624 11.315763,-11.315763 0,-3.103353 -1.249264,-5.914925 -3.272331,-7.959255 3.027057,-1.641865 6.090754,-0.38747 9.479403,2.309769"
       sodipodi:nodetypes="ccscscc"
       transform="matrix(1.2392517,0,0,1.2512083,-12.153985,-12.950187)" /><path
       style="fill:none;stroke:#000000;stroke-width:2.5;stroke-linecap:round;stroke-linejoin:round"
       d="m 11.758199,66.681362 c 0,0 -1.394541,17.792012 6.518736,17.792012 7.913277,0 3.853523,-21.495676 16.26785,-21.495676 3.746225,0 9.129741,1.331346 9.129741,6.507174 0,7.088602 -0.200133,14.988502 -0.200133,14.988502 M 89.841801,66.681362 c 0,0 1.394541,17.792012 -6.518736,17.792012 -7.913277,0 -3.853523,-21.495676 -16.26785,-21.495676 -3.746225,0 -9.129741,1.331346 -9.129741,6.507174 0,7.088602 0.200133,14.988502 0.200133,14.988502"
       id="path3"
       sodipodi:nodetypes="csssc" /></g></svg>
