<?xml version="1.0" encoding="UTF-8" standalone="no"?>
<!-- Created with Inkscape (http://www.inkscape.org/) -->

<svg
   width="4in"
   height="4in"
   viewBox="0 0 101.6 101.6"
   version="1.1"
   id="svg5"
   sodipodi:docname="their.svg"
   inkscape:version="1.3.2 (091e20e, 2023-11-25)"
   xml:space="preserve"
   xmlns:inkscape="http://www.inkscape.org/namespaces/inkscape"
   xmlns:sodipodi="http://sodipodi.sourceforge.net/DTD/sodipodi-0.dtd"
   xmlns="http://www.w3.org/2000/svg"
   xmlns:svg="http://www.w3.org/2000/svg"><sodipodi:namedview
     id="namedview7"
     pagecolor="#ffffff"
     bordercolor="#666666"
     borderopacity="1.0"
     inkscape:pageshadow="2"
     inkscape:pageopacity="0.0"
     inkscape:pagecheckerboard="0"
     inkscape:document-units="mm"
     showgrid="false"
     units="in"
     inkscape:zoom="0.57026551"
     inkscape:cx="150.80695"
     inkscape:cy="216.56579"
     inkscape:window-width="1280"
     inkscape:window-height="800"
     inkscape:window-x="0"
     inkscape:window-y="0"
     inkscape:window-maximized="0"
     inkscape:current-layer="layer2"
     inkscape:object-nodes="false"
     inkscape:showpageshadow="2"
     inkscape:deskcolor="#d1d1d1" /><defs
     id="defs2"><inkscape:path-effect
       effect="mirror_symmetry"
       start_point="50.8,0"
       end_point="50.8,101.6"
       center_point="50.8,50.8"
       id="path-effect11"
       is_visible="true"
       lpeversion="1.2"
       lpesatellites=""
       mode="vertical"
       discard_orig_path="false"
       fuse_paths="false"
       oposite_fuse="false"
       split_items="false"
       split_open="false"
       link_styles="false" /><inkscape:path-effect
       effect="mirror_symmetry"
       start_point="50.8,0"
       end_point="50.8,101.6"
       center_point="50.8,50.8"
       id="path-effect10"
       is_visible="true"
       lpeversion="1.2"
       lpesatellites=""
       mode="vertical"
       discard_orig_path="false"
       fuse_paths="false"
       oposite_fuse="false"
       split_items="false"
       split_open="false"
       link_styles="false" /><inkscape:path-effect
       effect="mirror_symmetry"
       start_point="53.633396,10.68638"
       end_point="53.633396,95.00827"
       center_point="53.633396,52.847325"
       id="path-effect5871"
       is_visible="true"
       lpeversion="1.1"
       mode="vertical"
       discard_orig_path="false"
       fuse_paths="false"
       oposite_fuse="false"
       split_items="false"
       split_open="false" /></defs><g
     inkscape:groupmode="layer"
     id="layer2"
     inkscape:label="Layer 2"><path
       style="fill:none;stroke:#000000;stroke-width:2.5;stroke-linecap:round;stroke-linejoin:round"
       d="m 31.347409,14.389627 c 7.939692,2.831424 13.765992,9.466958 19.452592,16.353945 m 19.45259,-16.353945 c -7.9397,2.831424 -13.76599,9.466958 -19.45259,16.353945"
       id="path1"
       sodipodi:nodetypes="cc" /><path
       style="fill:none;stroke:#000000;stroke-width:2.5;stroke-linecap:round;stroke-linejoin:round"
       d="M 40.64334,18.381614 50.8,4.9541657 M 60.95666,18.381614 50.8,4.9541657"
       id="path2" /><path
       style="fill:none;stroke:#000000;stroke-width:2.5;stroke-linecap:round;stroke-linejoin:round"
       d="M 8.440308,41.98163 C 20.607545,43.254232 25.654222,34.736064 30.647246,26.144124 33.93634,46.077999 25.716618,52.036883 16.359061,56.614111 Z m 84.719384,0 c -12.16723,1.272602 -17.21391,-7.245566 -22.20693,-15.837506 -3.2891,19.933875 4.93062,25.892759 14.28818,30.469987 z"
       id="path4"
       sodipodi:nodetypes="cccccccc" /><path
       id="path7"
       style="fill:none;stroke:#000000;stroke-width:2.5;stroke-linecap:round;stroke-linejoin:round"
       d="m 60.762345,44.430472 a 9.9623423,9.9623423 0 0 1 -9.96234,9.962342 9.9623423,9.9623423 0 0 1 -9.96235,-9.962342 9.9623423,9.9623423 0 0 1 9.96235,-9.962342 9.9623423,9.9623423 0 0 1 9.96234,9.962342 z" /><path
       id="path8"
       style="fill:none;stroke:#000000;stroke-width:2.5;stroke-linecap:round;stroke-linejoin:round"
       inkscape:transform-center-y="-1.8294799"
       d="M 57.1375,68.952808 H 44.4625 L 50.8,57.97593 Z" /><path
       style="fill:none;stroke:#000000;stroke-width:2.5;stroke-linecap:round;stroke-linejoin:round"
       d="M 32.514196,76.37794 C 30.068795,87.084083 22.452543,93.218039 10.001962,95.077369 M 69.085804,76.37794 c 2.445401,10.706143 10.061653,16.840099 22.512234,18.699429"
       id="path3-6"
       sodipodi:nodetypes="cc" /><g
       id="g10"
       transform="translate(0,-1.0583333)"><path
         style="opacity:1;fill:none;stroke:#000000;stroke-width:2.5;stroke-linecap:round;stroke-linejoin:round"
         d="M 31.580656,53.3679 C 29.682953,61.318474 23.772519,65.87366 14.110505,67.254432 M 70.019344,53.3679 c 1.897703,7.950574 7.808137,12.50576 17.470151,13.886532"
         id="path3"
         sodipodi:nodetypes="cc" /><path
         style="opacity:1;fill:none;stroke:#000000;stroke-width:2.5;stroke-linecap:round;stroke-linejoin:round"
         d="M 25.757272,63.833239 V 79.51158 M 75.842728,63.833239 V 79.51158"
         id="path5" /></g><path
       style="opacity:1;fill:none;stroke:#000000;stroke-width:2.5;stroke-linecap:round;stroke-linejoin:round"
       d="M 43.968724,73.993388 H 57.631276"
       id="path6" /><path
       style="opacity:1;fill:none;stroke:#000000;stroke-width:2.5;stroke-linecap:round;stroke-linejoin:round"
       d="m 50.8,74.970504 v 9.5301"
       id="path9"
       sodipodi:nodetypes="cc" /><path
       style="opacity:1;fill:none;stroke:#000000;stroke-width:2.5;stroke-linecap:round;stroke-linejoin:round"
       d="m 29.298277,84.052652 c 0,0 4.339084,6.943265 21.501723,6.943265 17.162639,0 21.501723,-6.943265 21.501723,-6.943265"
       id="path10"
       sodipodi:nodetypes="czc" /></g></svg>
