<?xml version="1.0" encoding="UTF-8" standalone="no"?>
<!-- Created with Inkscape (http://www.inkscape.org/) -->

<svg
   width="4in"
   height="4in"
   viewBox="0 0 101.6 101.6"
   version="1.1"
   id="svg5"
   sodipodi:docname="they.svg"
   inkscape:version="1.3.2 (091e20e, 2023-11-25)"
   xml:space="preserve"
   xmlns:inkscape="http://www.inkscape.org/namespaces/inkscape"
   xmlns:sodipodi="http://sodipodi.sourceforge.net/DTD/sodipodi-0.dtd"
   xmlns="http://www.w3.org/2000/svg"
   xmlns:svg="http://www.w3.org/2000/svg"><sodipodi:namedview
     id="namedview7"
     pagecolor="#ffffff"
     bordercolor="#666666"
     borderopacity="1.0"
     inkscape:pageshadow="2"
     inkscape:pageopacity="0.0"
     inkscape:pagecheckerboard="0"
     inkscape:document-units="mm"
     showgrid="false"
     units="in"
     inkscape:zoom="0.4994427"
     inkscape:cx="-74.082573"
     inkscape:cy="120.1339"
     inkscape:window-width="1280"
     inkscape:window-height="693"
     inkscape:window-x="0"
     inkscape:window-y="25"
     inkscape:window-maximized="0"
     inkscape:current-layer="layer2"
     inkscape:object-nodes="false"
     inkscape:showpageshadow="2"
     inkscape:deskcolor="#d1d1d1" /><defs
     id="defs2"><inkscape:path-effect
       effect="mirror_symmetry"
       start_point="50.8,0"
       end_point="50.8,101.6"
       center_point="50.8,50.8"
       id="path-effect10"
       is_visible="true"
       lpeversion="1.2"
       lpesatellites=""
       mode="vertical"
       discard_orig_path="false"
       fuse_paths="false"
       oposite_fuse="false"
       split_items="false"
       split_open="false"
       link_styles="false" /><inkscape:path-effect
       effect="mirror_symmetry"
       start_point="50.42987,78.85685"
       end_point="50.42987,84.851579"
       center_point="50.42987,81.854214"
       id="path-effect9"
       is_visible="true"
       lpeversion="1.2"
       lpesatellites=""
       mode="free"
       discard_orig_path="false"
       fuse_paths="false"
       oposite_fuse="false"
       split_items="false"
       split_open="false"
       link_styles="false" /><inkscape:path-effect
       effect="mirror_symmetry"
       start_point="52.558625,1.1724167"
       end_point="52.558625,102.77242"
       center_point="52.558625,51.972417"
       id="path-effect7"
       is_visible="true"
       lpeversion="1.2"
       lpesatellites=""
       mode="vertical"
       discard_orig_path="false"
       fuse_paths="false"
       oposite_fuse="false"
       split_items="false"
       split_open="false"
       link_styles="false" /><inkscape:path-effect
       effect="mirror_symmetry"
       start_point="54.024146,3.224146"
       end_point="54.024146,104.82415"
       center_point="54.024146,54.024146"
       id="path-effect6"
       is_visible="true"
       lpeversion="1.2"
       lpesatellites=""
       mode="vertical"
       discard_orig_path="false"
       fuse_paths="false"
       oposite_fuse="false"
       split_items="false"
       split_open="false"
       link_styles="false" /><inkscape:path-effect
       effect="mirror_symmetry"
       start_point="50.955455,12.911011"
       end_point="50.955455,29.264956"
       center_point="50.955455,21.087983"
       id="path-effect5"
       is_visible="true"
       lpeversion="1.2"
       lpesatellites=""
       mode="free"
       discard_orig_path="false"
       fuse_paths="false"
       oposite_fuse="false"
       split_items="false"
       split_open="false"
       link_styles="false" /><inkscape:path-effect
       effect="mirror_symmetry"
       start_point="51.127601,4.6479639"
       end_point="51.127601,18.075415"
       center_point="51.127601,11.361689"
       id="path-effect4"
       is_visible="true"
       lpeversion="1.2"
       lpesatellites=""
       mode="free"
       discard_orig_path="false"
       fuse_paths="false"
       oposite_fuse="false"
       split_items="false"
       split_open="false"
       link_styles="false" /><inkscape:path-effect
       effect="mirror_symmetry"
       start_point="53.633396,10.68638"
       end_point="53.633396,95.00827"
       center_point="53.633396,52.847325"
       id="path-effect5871"
       is_visible="true"
       lpeversion="1.1"
       mode="vertical"
       discard_orig_path="false"
       fuse_paths="false"
       oposite_fuse="false"
       split_items="false"
       split_open="false" /></defs><g
     inkscape:groupmode="layer"
     id="layer2"
     inkscape:label="Layer 2"><g
       id="g9"><path
         id="path4106"
         d="m 25.68442,77.692543 c 0,0.690356 -0.559644,1.25 -1.25,1.25 -0.690356,0 -1.25,-0.559644 -1.25,-1.25 0,-0.690356 0.559644,-1.25 1.25,-1.25 0.690356,0 1.25,0.559644 1.25,1.25 z m 50.23116,0 c 0,0.690356 0.559644,1.25 1.25,1.25 0.690356,0 1.25,-0.559644 1.25,-1.25 0,-0.690356 -0.559644,-1.25 -1.25,-1.25 -0.690356,0 -1.25,0.559644 -1.25,1.25 z"
         style="fill:#000000;fill-opacity:1;stroke:none;stroke-width:1.18818;stroke-linecap:round;stroke-linejoin:round;stop-color:#000000" /><path
         id="path4106-3"
         d="m 24.719162,82.625214 c 0,0.690356 -0.559644,1.25 -1.25,1.25 -0.690356,0 -1.25,-0.559644 -1.25,-1.25 0,-0.690356 0.559644,-1.25 1.25,-1.25 0.690356,0 1.25,0.559644 1.25,1.25 z m 52.161676,0 c 0,0.690356 0.559644,1.25 1.25,1.25 0.690356,0 1.25,-0.559644 1.25,-1.25 0,-0.690356 -0.559644,-1.25 -1.25,-1.25 -0.690356,0 -1.25,0.559644 -1.25,1.25 z"
         style="fill:#000000;fill-opacity:1;stroke:none;stroke-width:1.18818;stroke-linecap:round;stroke-linejoin:round;stop-color:#000000" /></g><path
       style="opacity:1;fill:none;stroke:#000000;stroke-width:2.5;stroke-linecap:round;stroke-linejoin:round"
       d="m 31.502866,12.911011 c 7.939692,2.831424 13.765988,9.466958 19.452589,16.353945 M 70.408044,12.911011 c -7.939692,2.831424 -13.765988,9.466958 -19.452589,16.353945"
       id="path1"
       sodipodi:nodetypes="cc"
       transform="translate(-0.155455,2.6379377)" /><path
       style="opacity:1;fill:none;stroke:#000000;stroke-width:2.5;stroke-linecap:round;stroke-linejoin:round"
       d="M 40.97094,18.075415 51.127601,4.6479639 M 61.284262,18.075415 51.127601,4.6479639"
       id="path2"
       transform="translate(-0.327601,1.4655209)" /><path
       style="opacity:1;fill:none;stroke:#000000;stroke-width:2.5;stroke-linecap:round;stroke-linejoin:round"
       d="m 22.206938,71.957366 c 7.879793,-2.129637 9.823288,-5.248657 12.394571,-8.263046 -7.578992,6.749149 3.174399,38.34462 -18.075415,31.158573 M 82.910312,71.957366 c -7.879793,-2.129637 -9.823288,-5.248657 -12.394571,-8.263046 7.578992,6.749149 -3.174399,38.34462 18.075415,31.158573"
       id="path3"
       sodipodi:nodetypes="ccc"
       transform="translate(-1.7586251,-1.1724167)" /><path
       style="opacity:1;fill:none;stroke:#000000;stroke-width:2.5;stroke-linecap:round;stroke-linejoin:round"
       d="M 9.8123681,51.127601 C 21.979605,52.400203 27.026282,43.882035 32.019306,35.290095 35.3084,55.22397 27.088678,61.182854 17.731121,65.760082 Z m 88.4235559,0 C 86.068687,52.400203 81.02201,43.882035 76.028986,35.290095 72.739892,55.22397 80.959614,61.182854 90.317171,65.760082 Z"
       id="path4"
       sodipodi:nodetypes="cccc"
       transform="translate(-3.224146,-3.224146)" /><path
       id="path7"
       style="opacity:1;fill:none;stroke:#000000;stroke-width:2.5;stroke-linecap:round;stroke-linejoin:round"
       d="m 60.762341,45.589794 a 9.9623423,9.9623423 0 0 1 -9.962342,9.962342 9.9623423,9.9623423 0 0 1 -9.962342,-9.962342 9.9623423,9.9623423 0 0 1 9.962342,-9.962342 9.9623423,9.9623423 0 0 1 9.962342,9.962342 z" /><path
       id="path8"
       style="opacity:1;fill:none;stroke:#000000;stroke-width:2.5;stroke-linecap:round;stroke-linejoin:round"
       inkscape:transform-center-y="-1.8294799"
       transform="translate(37.049161,44.620068)"
       d="m 20.088342,29.196231 -12.6750059,0 6.3375029,-10.976878 z" /><path
       style="opacity:1;fill:none;stroke:#000000;stroke-width:2.5;stroke-linecap:round;stroke-linejoin:round"
       d="m 29.941606,79.124801 c 0,0 8.091968,4.112923 20.858394,4.112923 12.766427,0 20.858394,-4.112923 20.858394,-4.112923"
       id="path9"
       sodipodi:nodetypes="czc" /></g></svg>
