<?xml version="1.0" encoding="UTF-8" standalone="no"?>
<!-- Created with Inkscape (http://www.inkscape.org/) -->

<svg
   width="4in"
   height="4in"
   viewBox="0 0 101.6 101.6"
   version="1.1"
   id="svg5"
   sodipodi:docname="this.svg"
   inkscape:version="1.3.2 (091e20e, 2023-11-25)"
   xml:space="preserve"
   xmlns:inkscape="http://www.inkscape.org/namespaces/inkscape"
   xmlns:sodipodi="http://sodipodi.sourceforge.net/DTD/sodipodi-0.dtd"
   xmlns="http://www.w3.org/2000/svg"
   xmlns:svg="http://www.w3.org/2000/svg"><sodipodi:namedview
     id="namedview7"
     pagecolor="#ffffff"
     bordercolor="#666666"
     borderopacity="1.0"
     inkscape:pageshadow="2"
     inkscape:pageopacity="0.0"
     inkscape:pagecheckerboard="0"
     inkscape:document-units="mm"
     showgrid="false"
     units="in"
     inkscape:zoom="0.46246043"
     inkscape:cx="162.17604"
     inkscape:cy="194.61125"
     inkscape:window-width="1280"
     inkscape:window-height="693"
     inkscape:window-x="0"
     inkscape:window-y="25"
     inkscape:window-maximized="0"
     inkscape:current-layer="layer2"
     inkscape:object-nodes="false"
     inkscape:showpageshadow="2"
     inkscape:deskcolor="#d1d1d1" /><defs
     id="defs2"><inkscape:path-effect
       effect="mirror_symmetry"
       start_point="50.8,1.0583333"
       end_point="50.8,102.65833"
       center_point="50.8,51.858333"
       id="path-effect7"
       is_visible="true"
       lpeversion="1.2"
       lpesatellites=""
       mode="vertical"
       discard_orig_path="false"
       fuse_paths="false"
       oposite_fuse="false"
       split_items="false"
       split_open="false"
       link_styles="false" /><inkscape:path-effect
       effect="mirror_symmetry"
       start_point="50.668906,27.53242"
       end_point="50.668906,41.182946"
       center_point="50.668906,34.357683"
       id="path-effect6"
       is_visible="true"
       lpeversion="1.2"
       lpesatellites=""
       mode="free"
       discard_orig_path="false"
       fuse_paths="false"
       oposite_fuse="false"
       split_items="false"
       split_open="false"
       link_styles="false" /><inkscape:path-effect
       effect="mirror_symmetry"
       start_point="47.661163,6.4782162"
       end_point="47.661163,32.391082"
       center_point="47.661163,19.434649"
       id="path-effect5"
       is_visible="true"
       lpeversion="1.2"
       lpesatellites=""
       mode="free"
       discard_orig_path="false"
       fuse_paths="false"
       oposite_fuse="false"
       split_items="false"
       split_open="false"
       link_styles="false" /><inkscape:path-effect
       effect="mirror_symmetry"
       start_point="53.633396,10.68638"
       end_point="53.633396,95.00827"
       center_point="53.633396,52.847325"
       id="path-effect5871"
       is_visible="true"
       lpeversion="1.1"
       mode="vertical"
       discard_orig_path="false"
       fuse_paths="false"
       oposite_fuse="false"
       split_items="false"
       split_open="false" /></defs><g
     inkscape:groupmode="layer"
     id="layer2"
     inkscape:label="Layer 2"><path
       style="opacity:1;fill:none;stroke:#000000;stroke-width:2.5;stroke-linecap:round;stroke-linejoin:round"
       d="M 25.912865,27.53242 50.668906,41.182946 75.424947,27.53242"
       id="path1"
       transform="translate(0.131094,-1.0583333)"
       sodipodi:nodetypes="ccc" /><path
       style="opacity:1;fill:none;stroke:#000000;stroke-width:2.5;stroke-linecap:round;stroke-linejoin:round"
       d="M 59.46077,32.391082 C 57.405482,23.75346 54.595998,15.115838 47.661163,6.4782162 40.726328,15.115838 37.916844,23.75346 35.861556,32.391082"
       id="path2"
       sodipodi:nodetypes="ccc"
       transform="translate(3.138837,0.52916663)" /><path
       style="opacity:1;fill:none;stroke:#000000;stroke-width:2.5;stroke-linecap:round;stroke-linejoin:round"
       d="M 9.9486893,36.555648 C 7.4036757,43.033864 31.002893,48.586622 31.002893,48.586622 19.434649,49.974811 21.748298,65.446262 21.748298,80.744362 M 91.651311,36.555648 c 2.545013,6.478216 -21.054204,12.030974 -21.054204,12.030974 11.568244,1.388189 9.254595,16.85964 9.254595,32.15774"
       id="path3"
       sodipodi:nodetypes="cccccc"
       transform="translate(0,-1.0583333)" /><path
       id="path4"
       style="opacity:1;fill:none;stroke:#000000;stroke-width:2.5;stroke-linecap:round;stroke-linejoin:round"
       d="m 59.360498,53.081043 a 8.5604992,8.5604992 0 0 1 -8.560499,8.560499 8.5604992,8.5604992 0 0 1 -8.560499,-8.560499 8.5604992,8.5604992 0 0 1 8.560499,-8.560499 8.5604992,8.5604992 0 0 1 8.560499,8.560499 z" /><g
       id="g7"
       transform="translate(-0.24504204,-1.0583333)"><path
         id="path5"
         style="opacity:1;fill:none;stroke:#000000;stroke-width:2.5;stroke-linecap:round;stroke-linejoin:round"
         d="m 26.144231,90.695023 a 4.1645675,4.1645675 0 0 1 -4.164567,4.164567 4.1645675,4.1645675 0 0 1 -4.164568,-4.164567 4.1645675,4.1645675 0 0 1 4.164568,-4.164568 4.1645675,4.1645675 0 0 1 4.164567,4.164568 z" /><path
         id="path5-7"
         style="fill:none;stroke:#000000;stroke-width:2.5;stroke-linecap:round;stroke-linejoin:round"
         d="m 55.209608,90.695023 a 4.1645675,4.1645675 0 0 1 -4.164568,4.164567 4.1645675,4.1645675 0 0 1 -4.164567,-4.164567 4.1645675,4.1645675 0 0 1 4.164567,-4.164568 4.1645675,4.1645675 0 0 1 4.164568,4.164568 z" /><path
         id="path5-0"
         style="fill:none;stroke:#000000;stroke-width:2.5;stroke-linecap:round;stroke-linejoin:round"
         d="m 84.274988,90.695023 a 4.1645675,4.1645675 0 0 1 -4.164568,4.164567 4.1645675,4.1645675 0 0 1 -4.164567,-4.164567 4.1645675,4.1645675 0 0 1 4.164567,-4.164568 4.1645675,4.1645675 0 0 1 4.164568,4.164568 z" /></g><path
       style="opacity:1;fill:none;stroke:#000000;stroke-width:2.5;stroke-linecap:round;stroke-linejoin:round"
       d="m 41.198357,65.806112 c 0,0 3.737162,1.785164 9.601643,1.785164 5.864481,0 9.601643,-1.785164 9.601643,-1.785164"
       id="path7"
       sodipodi:nodetypes="czc" /><path
       style="opacity:1;fill:none;stroke:#000000;stroke-width:2.5;stroke-linecap:round;stroke-linejoin:round"
       d="m 50.8,67.670499 v 12.01553"
       id="path8"
       sodipodi:nodetypes="cc" /></g></svg>
