<?xml version="1.0" encoding="UTF-8" standalone="no"?>
<!-- Created with Inkscape (http://www.inkscape.org/) -->

<svg
   width="4in"
   height="4in"
   viewBox="0 0 101.6 101.6"
   version="1.1"
   id="svg5"
   sodipodi:docname="what.svg"
   inkscape:version="1.1 (c4e8f9e, 2021-05-24)"
   xmlns:inkscape="http://www.inkscape.org/namespaces/inkscape"
   xmlns:sodipodi="http://sodipodi.sourceforge.net/DTD/sodipodi-0.dtd"
   xmlns="http://www.w3.org/2000/svg"
   xmlns:svg="http://www.w3.org/2000/svg">
  <sodipodi:namedview
     id="namedview7"
     pagecolor="#ffffff"
     bordercolor="#666666"
     borderopacity="1.0"
     inkscape:pageshadow="2"
     inkscape:pageopacity="0.0"
     inkscape:pagecheckerboard="0"
     inkscape:document-units="mm"
     showgrid="false"
     units="in"
     inkscape:zoom="1.4819524"
     inkscape:cx="229.08968"
     inkscape:cy="201.76087"
     inkscape:window-width="1920"
     inkscape:window-height="974"
     inkscape:window-x="0"
     inkscape:window-y="25"
     inkscape:window-maximized="1"
     inkscape:current-layer="layer2"
     inkscape:object-nodes="false" />
  <defs
     id="defs2">
    <inkscape:path-effect
       effect="mirror_symmetry"
       start_point="51.418656,3.8516498"
       end_point="51.418656,93.910461"
       center_point="51.418656,48.881055"
       id="path-effect2105"
       is_visible="true"
       lpeversion="1.1"
       mode="vertical"
       discard_orig_path="false"
       fuse_paths="false"
       oposite_fuse="false"
       split_items="false"
       split_open="false" />
    <inkscape:path-effect
       effect="mirror_symmetry"
       start_point="53.633396,10.68638"
       end_point="53.633396,95.00827"
       center_point="53.633396,52.847325"
       id="path-effect5871"
       is_visible="true"
       lpeversion="1.1"
       mode="vertical"
       discard_orig_path="false"
       fuse_paths="false"
       oposite_fuse="false"
       split_items="false"
       split_open="false" />
  </defs>
  <g
     inkscape:groupmode="layer"
     id="layer2"
     inkscape:label="Layer 2">
    <g
       id="g2103">
      <path
         style="fill:none;stroke:#000000;stroke-width:2.5;stroke-linecap:round;stroke-linejoin:round;stroke-miterlimit:4;stroke-dasharray:none;stroke-opacity:1"
         d="M 22.138588,24.102494 C -0.95119584,17.014819 25.085161,-13.62094 50.8,17.675163 76.514839,-13.62094 102.5512,17.014819 79.461412,24.102494"
         id="path1099"
         sodipodi:nodetypes="ccc" />
      <path
         style="opacity:1;fill:none;stroke:#000000;stroke-width:2.5;stroke-linecap:round;stroke-linejoin:round;stroke-miterlimit:4;stroke-dasharray:none"
         d="M 16.246867,31.065438 C 24.566215,30.81501 29.99637,27.675389 30.708364,19.817607 M 85.353133,31.065438 C 77.033785,30.81501 71.60363,27.675389 70.891636,19.817607"
         id="path1799"
         sodipodi:nodetypes="cc" />
      <path
         style="opacity:1;fill:none;stroke:#000000;stroke-width:2.5;stroke-linecap:round;stroke-linejoin:round;stroke-miterlimit:4;stroke-dasharray:none"
         d="M 9.4624608,63.916244 50.8,93.910461 92.137539,63.916244"
         id="path1990"
         sodipodi:nodetypes="ccc" />
      <path
         style="opacity:1;fill:none;stroke:#000000;stroke-width:2.5;stroke-linecap:round;stroke-linejoin:round;stroke-miterlimit:4;stroke-dasharray:none"
         d="M 34.62329,81.419315 50.8,58.61169 66.97671,81.419315"
         id="path1992"
         sodipodi:nodetypes="ccc" />
      <path
         id="path2016"
         style="opacity:1;fill:none;stroke:#000000;stroke-width:2.5;stroke-linecap:round;stroke-linejoin:round"
         d="m 34.636177,59.751896 c 0,2.563685 -2.078277,4.641962 -4.641962,4.641962 -2.563685,0 -4.641962,-2.078277 -4.641962,-4.641962 0,-2.563685 2.078277,-4.641962 4.641962,-4.641962 2.563685,0 4.641962,2.078277 4.641962,4.641962 z m 32.327646,0 c 0,2.563685 2.078277,4.641962 4.641962,4.641962 2.563685,0 4.641962,-2.078277 4.641962,-4.641962 0,-2.563685 -2.078277,-4.641962 -4.641962,-4.641962 -2.563685,0 -4.641962,2.078277 -4.641962,4.641962 z" />
    </g>
    <path
       id="path2542"
       style="opacity:1;fill:none;stroke:#000000;stroke-width:2.5;stroke-linecap:round;stroke-linejoin:round"
       d="M 65.797108,37.314232 A 14.997108,14.997108 0 0 1 50.799999,52.31134 14.997108,14.997108 0 0 1 35.802891,37.314232 14.997108,14.997108 0 0 1 50.799999,22.317123 14.997108,14.997108 0 0 1 65.797108,37.314232 Z" />
  </g>
</svg>
