<?xml version="1.0" encoding="UTF-8" standalone="no"?>
<!-- Created with Inkscape (http://www.inkscape.org/) -->

<svg
   width="4in"
   height="4in"
   viewBox="0 0 101.6 101.6"
   version="1.1"
   id="svg5"
   sodipodi:docname="would.svg"
   inkscape:version="1.3.2 (091e20e, 2023-11-25)"
   xmlns:inkscape="http://www.inkscape.org/namespaces/inkscape"
   xmlns:sodipodi="http://sodipodi.sourceforge.net/DTD/sodipodi-0.dtd"
   xmlns="http://www.w3.org/2000/svg"
   xmlns:svg="http://www.w3.org/2000/svg">
  <sodipodi:namedview
     id="namedview7"
     pagecolor="#ffffff"
     bordercolor="#666666"
     borderopacity="1.0"
     inkscape:pageshadow="2"
     inkscape:pageopacity="0.0"
     inkscape:pagecheckerboard="0"
     inkscape:document-units="mm"
     showgrid="false"
     units="in"
     inkscape:zoom="0.68535878"
     inkscape:cx="147.36807"
     inkscape:cy="135.69535"
     inkscape:window-width="1280"
     inkscape:window-height="693"
     inkscape:window-x="0"
     inkscape:window-y="25"
     inkscape:window-maximized="0"
     inkscape:current-layer="layer2"
     inkscape:object-nodes="false"
     inkscape:showpageshadow="2"
     inkscape:deskcolor="#d1d1d1" />
  <defs
     id="defs2">
    <inkscape:path-effect
       effect="mirror_symmetry"
       start_point="50.8,0"
       end_point="50.8,101.6"
       center_point="50.8,50.8"
       id="path-effect11"
       is_visible="true"
       lpeversion="1.2"
       lpesatellites=""
       mode="vertical"
       discard_orig_path="false"
       fuse_paths="false"
       oposite_fuse="false"
       split_items="false"
       split_open="false"
       link_styles="false" />
    <inkscape:path-effect
       effect="mirror_symmetry"
       start_point="47.365891,1.0254611"
       end_point="47.365891,102.62546"
       center_point="47.365891,51.825461"
       id="path-effect8"
       is_visible="true"
       lpeversion="1.2"
       lpesatellites=""
       mode="vertical"
       discard_orig_path="false"
       fuse_paths="false"
       oposite_fuse="false"
       split_items="false"
       split_open="false"
       link_styles="false" />
    <inkscape:path-effect
       effect="mirror_symmetry"
       start_point="45.269385,38.709111"
       end_point="45.269385,47.610905"
       center_point="45.269385,43.160008"
       id="path-effect7"
       is_visible="true"
       lpeversion="1.2"
       lpesatellites=""
       mode="free"
       discard_orig_path="false"
       fuse_paths="true"
       oposite_fuse="false"
       split_items="false"
       split_open="false"
       link_styles="false" />
    <inkscape:path-effect
       effect="mirror_symmetry"
       start_point="43.591102,-0.12784313"
       end_point="43.591102,101.47216"
       center_point="43.591102,50.672157"
       id="path-effect6"
       is_visible="true"
       lpeversion="1.2"
       lpesatellites=""
       mode="vertical"
       discard_orig_path="false"
       fuse_paths="false"
       oposite_fuse="false"
       split_items="false"
       split_open="false"
       link_styles="false" />
    <inkscape:path-effect
       effect="mirror_symmetry"
       start_point="44.786093,11.863809"
       end_point="44.786093,27.017699"
       center_point="44.786093,19.440754"
       id="path-effect5"
       is_visible="true"
       lpeversion="1.2"
       lpesatellites=""
       mode="free"
       discard_orig_path="false"
       fuse_paths="true"
       oposite_fuse="false"
       split_items="false"
       split_open="false"
       link_styles="false" />
    <inkscape:path-effect
       effect="mirror_symmetry"
       start_point="53.633396,10.68638"
       end_point="53.633396,95.00827"
       center_point="53.633396,52.847325"
       id="path-effect5871"
       is_visible="true"
       lpeversion="1.1"
       mode="vertical"
       discard_orig_path="false"
       fuse_paths="false"
       oposite_fuse="false"
       split_items="false"
       split_open="false" />
  </defs>
  <g
     inkscape:groupmode="layer"
     id="layer2"
     inkscape:label="Layer 2">
    <g
       id="g11">
      <path
         id="path4106"
         d="m 27.122705,46.50713 c 0,0.690356 -0.559644,1.25 -1.25,1.25 -0.690355,0 -1.25,-0.559644 -1.25,-1.25 0,-0.690356 0.559645,-1.25 1.25,-1.25 0.690356,0 1.25,0.559644 1.25,1.25 z m 47.35459,0 c 0,0.690356 0.559644,1.25 1.25,1.25 0.690355,0 1.25,-0.559644 1.25,-1.25 0,-0.690356 -0.559645,-1.25 -1.25,-1.25 -0.690356,0 -1.25,0.559644 -1.25,1.25 z"
         style="fill:#000000;fill-opacity:1;stroke:none;stroke-width:1.18818;stroke-linecap:round;stroke-linejoin:round;stop-color:#000000" />
      <path
         id="path4106-9"
         d="m 17.535845,88.747284 c 0,0.690356 -0.559644,1.25 -1.25,1.25 -0.690356,0 -1.25,-0.559644 -1.25,-1.25 0,-0.690356 0.559644,-1.25 1.25,-1.25 0.690356,0 1.25,0.559644 1.25,1.25 z m 66.52831,0 c 0,0.690356 0.559644,1.25 1.25,1.25 0.690356,0 1.25,-0.559644 1.25,-1.25 0,-0.690356 -0.559644,-1.25 -1.25,-1.25 -0.690356,0 -1.25,0.559644 -1.25,1.25 z"
         style="fill:#000000;fill-opacity:1;stroke:none;stroke-width:1.18818;stroke-linecap:round;stroke-linejoin:round;stop-color:#000000" />
    </g>
    <path
       style="fill:none;stroke:#000000;stroke-width:2.5;stroke-linecap:round;stroke-linejoin:round"
       d="M 28.234711,27.017699 C 14.152782,20.765794 28.355357,-0.208775 44.786093,21.419435 61.216829,-0.208775 75.419404,20.765794 61.337475,27.017699"
       id="path1"
       sodipodi:nodetypes="ccc"
       transform="translate(6.013907)" />
    <path
       style="fill:none;stroke:#000000;stroke-width:2.5;stroke-linecap:round;stroke-linejoin:round"
       d="m 33.346167,22.879852 c 0.03388,10.247093 -5.789415,10.081412 -11.439926,10.222912 M 53.836037,22.879852 c -0.03388,10.247093 5.789415,10.081412 11.439926,10.222912"
       id="path2"
       sodipodi:nodetypes="cc"
       transform="translate(7.208898,0.12784313)" />
    <path
       style="fill:none;stroke:#000000;stroke-width:2.5;stroke-linecap:round;stroke-linejoin:round"
       d="M 61.388017,40.426375 50.8,26.287489 40.211984,40.426375 Z"
       id="path3"
       sodipodi:nodetypes="cccc" />
    <path
       style="fill:none;stroke:#000000;stroke-width:2.5;stroke-linecap:round;stroke-linejoin:round"
       d="M 4.4009126,50.629857 C 8.4561016,45.330878 19.843092,38.972252 26.808745,39.078423 c -0.264866,5.076393 2.963739,8.532482 18.46064,8.532482 15.496901,0 18.725506,-3.456089 18.46064,-8.532482 6.965653,-0.106171 18.352643,6.252455 22.407832,11.551434"
       id="path4"
       sodipodi:nodetypes="ccccc"
       transform="translate(5.530615)" />
    <path
       style="fill:none;stroke:#000000;stroke-width:2.5;stroke-linecap:round;stroke-linejoin:round"
       d="m 25.198574,50.89613 c 0,0 4.989817,4.424005 4.989817,13.721996 0,9.297991 -13.677575,21.87501 -13.677575,21.87501 M 69.533208,50.89613 c 0,0 -4.989817,4.424005 -4.989817,13.721996 0,9.297991 13.677575,21.87501 13.677575,21.87501"
       id="path5"
       sodipodi:nodetypes="czc"
       transform="translate(3.4341092,-1.0254611)" />
    <path
       style="fill:none;stroke:#000000;stroke-width:2.5;stroke-linecap:round;stroke-linejoin:round"
       d="M 33.455568,56.110099 H 68.144432"
       id="path8"
       sodipodi:nodetypes="cc" />
    <path
       style="fill:none;stroke:#000000;stroke-width:2.5;stroke-linecap:round;stroke-linejoin:round"
       d="M 44.47115,63.026511 H 57.128849"
       id="path9" />
    <path
       style="fill:none;stroke:#000000;stroke-width:2.5;stroke-linecap:round;stroke-linejoin:round"
       d="M 39.16857,69.26865 H 62.43143"
       id="path10"
       sodipodi:nodetypes="cc" />
    <path
       style="fill:none;stroke:#000000;stroke-width:2.5;stroke-linecap:round;stroke-linejoin:round"
       d="M 50.8,70.420744 V 84.799386"
       id="path11"
       sodipodi:nodetypes="cc" />
  </g>
</svg>
