<?xml version="1.0" encoding="UTF-8" standalone="no"?>
<!-- Created with Inkscape (http://www.inkscape.org/) -->

<svg
   width="4in"
   height="4in"
   viewBox="0 0 101.6 101.6"
   version="1.1"
   id="svg5"
   sodipodi:docname="yesterday.svg"
   inkscape:version="1.3.2 (091e20e, 2023-11-25)"
   xml:space="preserve"
   xmlns:inkscape="http://www.inkscape.org/namespaces/inkscape"
   xmlns:sodipodi="http://sodipodi.sourceforge.net/DTD/sodipodi-0.dtd"
   xmlns="http://www.w3.org/2000/svg"
   xmlns:svg="http://www.w3.org/2000/svg"><sodipodi:namedview
     id="namedview7"
     pagecolor="#ffffff"
     bordercolor="#666666"
     borderopacity="1.0"
     inkscape:pageshadow="2"
     inkscape:pageopacity="0.0"
     inkscape:pagecheckerboard="0"
     inkscape:document-units="mm"
     showgrid="false"
     units="in"
     inkscape:zoom="0.58485434"
     inkscape:cx="145.33533"
     inkscape:cy="136.7862"
     inkscape:window-width="1280"
     inkscape:window-height="693"
     inkscape:window-x="0"
     inkscape:window-y="25"
     inkscape:window-maximized="0"
     inkscape:current-layer="layer2"
     inkscape:object-nodes="false"
     inkscape:showpageshadow="2"
     inkscape:deskcolor="#d1d1d1" /><defs
     id="defs2"><inkscape:path-effect
       effect="mirror_symmetry"
       start_point="51.702355,-0.13882379"
       end_point="51.702355,101.46118"
       center_point="51.702355,50.661176"
       id="path-effect16"
       is_visible="true"
       lpeversion="1.2"
       lpesatellites=""
       mode="vertical"
       discard_orig_path="false"
       fuse_paths="false"
       oposite_fuse="false"
       split_items="false"
       split_open="false"
       link_styles="false" /><inkscape:path-effect
       effect="mirror_symmetry"
       start_point="55.280879,3.4890025"
       end_point="29.283128,101.7065"
       center_point="42.282003,52.597751"
       id="path-effect12"
       is_visible="true"
       lpeversion="1.2"
       lpesatellites=""
       mode="vertical"
       discard_orig_path="false"
       fuse_paths="false"
       oposite_fuse="false"
       split_items="false"
       split_open="false"
       link_styles="false" /><inkscape:path-effect
       effect="mirror_symmetry"
       start_point="52.31875,-0.12656252"
       end_point="52.31875,101.47344"
       center_point="52.31875,50.673437"
       id="path-effect11"
       is_visible="true"
       lpeversion="1.2"
       lpesatellites=""
       mode="vertical"
       discard_orig_path="false"
       fuse_paths="false"
       oposite_fuse="false"
       split_items="false"
       split_open="false"
       link_styles="false" /><inkscape:path-effect
       effect="mirror_symmetry"
       start_point="50.8,0"
       end_point="50.8,101.6"
       center_point="50.8,50.8"
       id="path-effect10"
       is_visible="true"
       lpeversion="1.2"
       lpesatellites=""
       mode="vertical"
       discard_orig_path="false"
       fuse_paths="false"
       oposite_fuse="false"
       split_items="false"
       split_open="false"
       link_styles="false" /><inkscape:path-effect
       effect="mirror_symmetry"
       start_point="50.624866,72.363779"
       end_point="50.624866,92.415197"
       center_point="50.624866,82.389488"
       id="path-effect9"
       is_visible="true"
       lpeversion="1.2"
       lpesatellites=""
       mode="free"
       discard_orig_path="false"
       fuse_paths="true"
       oposite_fuse="false"
       split_items="false"
       split_open="false"
       link_styles="false" /><inkscape:path-effect
       effect="mirror_symmetry"
       start_point="50.681194,57.932153"
       end_point="50.681194,62.237412"
       center_point="50.681194,60.084783"
       id="path-effect8"
       is_visible="true"
       lpeversion="1.2"
       lpesatellites=""
       mode="free"
       discard_orig_path="false"
       fuse_paths="false"
       oposite_fuse="false"
       split_items="false"
       split_open="false"
       link_styles="false" /><inkscape:path-effect
       effect="mirror_symmetry"
       start_point="50.594513,52.885077"
       end_point="50.594513,68.514808"
       center_point="50.594513,60.699943"
       id="path-effect7"
       is_visible="true"
       lpeversion="1.2"
       lpesatellites=""
       mode="free"
       discard_orig_path="false"
       fuse_paths="false"
       oposite_fuse="false"
       split_items="false"
       split_open="false"
       link_styles="false" /><inkscape:path-effect
       effect="mirror_symmetry"
       start_point="52.165101,2.1366806"
       end_point="52.165101,103.73668"
       center_point="52.165101,52.936681"
       id="path-effect6"
       is_visible="true"
       lpeversion="1.2"
       lpesatellites=""
       mode="vertical"
       discard_orig_path="false"
       fuse_paths="false"
       oposite_fuse="false"
       split_items="false"
       split_open="false"
       link_styles="false" /><inkscape:path-effect
       effect="mirror_symmetry"
       start_point="50.8,0"
       end_point="50.8,101.6"
       center_point="50.8,50.8"
       id="path-effect5"
       is_visible="true"
       lpeversion="1.2"
       lpesatellites=""
       mode="vertical"
       discard_orig_path="false"
       fuse_paths="false"
       oposite_fuse="false"
       split_items="false"
       split_open="false"
       link_styles="false" /><inkscape:path-effect
       effect="mirror_symmetry"
       start_point="51.476463,32.91692"
       end_point="51.476463,43.509866"
       center_point="51.476463,38.213393"
       id="path-effect4"
       is_visible="true"
       lpeversion="1.2"
       lpesatellites=""
       mode="free"
       discard_orig_path="false"
       fuse_paths="false"
       oposite_fuse="false"
       split_items="false"
       split_open="false"
       link_styles="false" /><inkscape:path-effect
       effect="mirror_symmetry"
       start_point="50.8,0"
       end_point="50.8,101.6"
       center_point="50.8,50.8"
       id="path-effect3"
       is_visible="true"
       lpeversion="1.2"
       lpesatellites=""
       mode="vertical"
       discard_orig_path="false"
       fuse_paths="false"
       oposite_fuse="false"
       split_items="false"
       split_open="false"
       link_styles="false" /><inkscape:path-effect
       effect="mirror_symmetry"
       start_point="51.828336,0"
       end_point="51.828336,101.6"
       center_point="51.828336,50.8"
       id="path-effect2"
       is_visible="true"
       lpeversion="1.2"
       lpesatellites=""
       mode="vertical"
       discard_orig_path="false"
       fuse_paths="false"
       oposite_fuse="false"
       split_items="false"
       split_open="false"
       link_styles="false" /><inkscape:path-effect
       effect="mirror_symmetry"
       start_point="30.236858,11.540786"
       end_point="30.236858,34.135608"
       center_point="30.236858,22.838197"
       id="path-effect1"
       is_visible="true"
       lpeversion="1.2"
       lpesatellites=""
       mode="free"
       discard_orig_path="false"
       fuse_paths="false"
       oposite_fuse="false"
       split_items="false"
       split_open="false"
       link_styles="false" /><inkscape:path-effect
       effect="mirror_symmetry"
       start_point="53.633396,10.68638"
       end_point="53.633396,95.00827"
       center_point="53.633396,52.847325"
       id="path-effect5871"
       is_visible="true"
       lpeversion="1.1"
       mode="vertical"
       discard_orig_path="false"
       fuse_paths="false"
       oposite_fuse="false"
       split_items="false"
       split_open="false" /><inkscape:path-effect
       effect="mirror_symmetry"
       start_point="59.942686,2.8934599"
       end_point="59.942686,104.49346"
       center_point="59.942686,53.69346"
       id="path-effect6-2"
       is_visible="true"
       lpeversion="1.2"
       lpesatellites=""
       mode="vertical"
       discard_orig_path="false"
       fuse_paths="false"
       oposite_fuse="false"
       split_items="false"
       split_open="false"
       link_styles="false" /></defs><g
     inkscape:groupmode="layer"
     id="layer2"
     inkscape:label="Layer 2"
     style="display:inline"><g
       id="g2"
       transform="translate(-19.363317,-2.4299839)"><path
         id="path4106"
         d="m 40.43766,21.189562 c 0,0.690356 -0.559644,1.25 -1.25,1.25 -0.690356,0 -1.25,-0.559644 -1.25,-1.25 0,-0.690356 0.559644,-1.25 1.25,-1.25 0.690356,0 1.25,0.559644 1.25,1.25 z m 20.72468,0 c 0,0.690356 0.559644,1.25 1.25,1.25 0.690356,0 1.25,-0.559644 1.25,-1.25 0,-0.690356 -0.559644,-1.25 -1.25,-1.25 -0.690356,0 -1.25,0.559644 -1.25,1.25 z"
         style="fill:#000000;fill-opacity:1;stroke:none;stroke-width:1.18818;stroke-linecap:round;stroke-linejoin:round;stop-color:#000000" /><path
         id="path4106-8"
         d="m 39.171246,26.420372 c 0,0.690356 -0.559644,1.25 -1.25,1.25 -0.690356,0 -1.25,-0.559644 -1.25,-1.25 0,-0.690356 0.559644,-1.25 1.25,-1.25 0.690356,0 1.25,0.559644 1.25,1.25 z m 23.257508,0 c 0,0.690356 0.559644,1.25 1.25,1.25 0.690356,0 1.25,-0.559644 1.25,-1.25 0,-0.690356 -0.559644,-1.25 -1.25,-1.25 -0.690356,0 -1.25,0.559644 -1.25,1.25 z"
         style="fill:#000000;fill-opacity:1;stroke:none;stroke-width:1.18818;stroke-linecap:round;stroke-linejoin:round;stop-color:#000000" /></g><path
       style="fill:none;stroke:#000000;stroke-width:2.5;stroke-linecap:round;stroke-linejoin:round"
       d="m 16.406956,9.0948936 c 1.769006,3.7779674 4.98268,5.6598054 11.656193,3.0006054 -11.52501,3.853086 3.696589,23.424819 -11.194561,18.92689 M 46.466408,9.0948936 c -1.769006,3.7779674 -4.98268,5.6598054 -11.656193,3.0006054 11.52501,3.853086 -3.696589,23.424819 11.194561,18.92689"
       id="path1"
       sodipodi:nodetypes="ccc" /><path
       style="fill:none;stroke:#000000;stroke-width:2.5;stroke-linecap:round;stroke-linejoin:round"
       d="m 23.358132,20.289457 c 0,0 2.576548,4.71206 8.07855,4.71206 5.502002,0 8.07855,-4.71206 8.07855,-4.71206"
       id="path2"
       sodipodi:nodetypes="czc" /><path
       style="fill:none;stroke:#000000;stroke-width:2.5;stroke-linecap:round;stroke-linejoin:round"
       d="m 31.436618,30.486937 c -0.999131,3.740811 -1.973517,6.655156 -4.986168,10.592946 h 9.972336 c -3.012651,-3.93779 -3.987037,-6.852135 -4.986168,-10.592946 z"
       id="path3"
       sodipodi:nodetypes="cccc" /><path
       style="fill:none;stroke:#000000;stroke-width:2.5;stroke-linecap:round;stroke-linejoin:round"
       d="m 21.088766,37.207888 c -3.414724,1.825265 -6.208892,3.104115 -11.1427567,3.593239 l 6.8112667,7.283827 c 0.818486,-4.890024 2.281612,-7.592263 4.33149,-10.877066 z m 20.695832,0 c 3.414724,1.825265 6.208892,3.104115 11.142756,3.593239 l -6.811266,7.283827 C 45.297602,43.19493 43.834476,40.492691 41.784598,37.207888 Z"
       id="path3-5"
       sodipodi:nodetypes="cccccccc" /><path
       id="path5"
       d="m 15.198453,54.941808 c 0,1.498308 -1.214618,2.712927 -2.712927,2.712927 -1.498308,0 -2.7129267,-1.214619 -2.7129267,-2.712927 0,-1.498309 1.2146187,-2.712928 2.7129267,-2.712928 1.498309,0 2.712927,1.214619 2.712927,2.712928 z m 32.476458,0 c 0,1.498308 1.214618,2.712927 2.712927,2.712927 1.498308,0 2.712927,-1.214619 2.712927,-2.712927 0,-1.498309 -1.214619,-2.712928 -2.712927,-2.712928 -1.498309,0 -2.712927,1.214619 -2.712927,2.712928 z"
       style="fill:none;stroke:#000000;stroke-width:2.5;stroke-linecap:round;stroke-linejoin:round"
       sodipodi:nodetypes="ssssssssss" /><path
       id="path5-2"
       style="fill:none;stroke:#000000;stroke-width:2.5;stroke-linecap:round;stroke-linejoin:round"
       d="m 34.149608,47.799029 a 2.7129271,2.7129271 0 0 1 -2.712927,2.712927 2.7129271,2.7129271 0 0 1 -2.712927,-2.712927 2.7129271,2.7129271 0 0 1 2.712927,-2.712928 2.7129271,2.7129271 0 0 1 2.712927,2.712928 z" /><path
       style="fill:none;stroke:#000000;stroke-width:2.5;stroke-linecap:round;stroke-linejoin:round"
       d="m 21.870212,50.455094 c 2.500299,6.86237 6.097261,11.092747 9.56647,15.629731 3.469209,-4.536984 7.066171,-8.767361 9.56647,-15.629731"
       id="path6"
       sodipodi:nodetypes="ccc" /><path
       style="fill:none;stroke:#000000;stroke-width:2.5;stroke-linecap:round;stroke-linejoin:round"
       d="m 27.206955,59.807429 c 1.793241,-2.452699 3.035807,-3.850297 4.229727,-4.305259 1.19392,0.454962 2.436486,1.85256 4.229727,4.305259"
       id="path7"
       sodipodi:nodetypes="ccc" /><path
       style="fill:none;stroke:#000000;stroke-width:2.5;stroke-linecap:round;stroke-linejoin:round"
       d="m 17.563056,58.915443 6.749981,9.13233 c -8.9338,8.238949 -10.819824,24.518315 -10.819824,24.518315 0,0 -4.6654282,-24.319787 4.069843,-33.650645 z m 27.747252,0 -6.749981,9.13233 c 8.9338,8.238949 10.819824,24.518315 10.819824,24.518315 0,0 4.665428,-24.319787 -4.069843,-33.650645 z"
       id="path8"
       sodipodi:nodetypes="cccc" /><path
       style="fill:none;stroke:#000000;stroke-width:2.5;stroke-linecap:round;stroke-linejoin:round"
       d="M 39.179308,89.985214 C 31.903617,81.932087 32.806236,76.2643 31.436682,69.933796 30.067128,76.2643 30.969747,81.932087 23.694056,89.985214 Z"
       id="path9"
       sodipodi:nodetypes="cc" /></g><g
     inkscape:groupmode="layer"
     id="layer3"
     inkscape:label="Layer 3"><path
       id="path4106-5"
       d="m 62.349343,76.241542 c 0,0.690356 -0.559644,1.25 -1.25,1.25 -0.690356,0 -1.25,-0.559644 -1.25,-1.25 0,-0.690356 0.559644,-1.25 1.25,-1.25 0.690356,0 1.25,0.559644 1.25,1.25 z m 23.89968,0 c 0,0.690356 0.559644,1.25 1.25,1.25 0.690356,0 1.25,-0.559644 1.25,-1.25 0,-0.690356 -0.559644,-1.25 -1.25,-1.25 -0.690356,0 -1.25,0.559644 -1.25,1.25 z"
       style="fill:#000000;fill-opacity:1;stroke:none;stroke-width:1.18818;stroke-linecap:round;stroke-linejoin:round;stop-color:#000000"
       sodipodi:nodetypes="ssssssssss" /><path
       id="path4106-8-6"
       d="m 61.082929,81.472352 c 0,0.690356 -0.559644,1.25 -1.25,1.25 -0.690356,0 -1.25,-0.559644 -1.25,-1.25 0,-0.690356 0.559644,-1.25 1.25,-1.25 0.690356,0 1.25,0.559644 1.25,1.25 z m 26.432508,0 c 0,0.690356 0.559644,1.25 1.25,1.25 0.690356,0 1.25,-0.559644 1.25,-1.25 0,-0.690356 -0.559644,-1.25 -1.25,-1.25 -0.690356,0 -1.25,0.559644 -1.25,1.25 z"
       style="fill:#000000;fill-opacity:1;stroke:none;stroke-width:1.18818;stroke-linecap:round;stroke-linejoin:round;stop-color:#000000"
       sodipodi:nodetypes="ssssssssss" /><path
       style="display:inline;fill:none;stroke:#000000;stroke-width:2.5;stroke-linecap:round;stroke-linejoin:round"
       d="m 57.851163,61.64092 c 1.769006,3.777966 5.109243,6.545742 11.656193,3.000604 -7.733393,4.686826 -0.0073,38.412926 -11.194561,25.586785 M 90.7472,61.64092 c -1.769006,3.777966 -5.109243,6.545742 -11.656193,3.000604 7.733394,4.686826 0.0073,38.412926 11.194561,25.586785"
       id="path1-3"
       sodipodi:nodetypes="cccccc" /><path
       style="display:inline;fill:none;stroke:#000000;stroke-width:2.49999;stroke-linecap:round;stroke-linejoin:round"
       d="m 65.962041,76.379229 c 0,0 2.625308,5.344872 8.231431,5.344872 5.606124,0 8.231433,-5.344872 8.231433,-5.344872"
       id="path2-6"
       sodipodi:nodetypes="czc" /><path
       style="fill:none;stroke:#000000;stroke-width:2.5;stroke-linecap:round;stroke-linejoin:round"
       d="m 57.947075,12.602596 c 0,0 2.548367,1.086119 5.853071,0.211378 3.304704,-0.874741 3.934845,-3.8605314 3.934845,-3.8605314 m 22.916297,3.6491534 c 0,0 -2.548366,1.086119 -5.853071,0.211378 -3.304704,-0.874741 -3.934845,-3.8605314 -3.934845,-3.8605314"
       id="path11"
       sodipodi:nodetypes="czccsc" /><path
       style="fill:none;stroke:#000000;stroke-width:2.5;stroke-linecap:round;stroke-linejoin:round"
       d="m 64.755047,13.395929 c 0,0 0.398353,15.340029 9.544134,15.340029 9.145782,0 9.544135,-15.340029 9.544135,-15.340029"
       id="path12"
       sodipodi:nodetypes="czc" /><path
       style="fill:none;stroke:#000000;stroke-width:2.5;stroke-linecap:round;stroke-linejoin:round"
       d="m 68.295053,32.293119 c 0,0 1.846229,1.978635 6.004129,1.978635 4.157901,0 6.004128,-1.978635 6.004128,-1.978635"
       id="path13"
       sodipodi:nodetypes="czc" /><path
       style="fill:none;stroke:#000000;stroke-width:2.50001;stroke-linecap:round;stroke-linejoin:round"
       d="m 60.510324,32.468642 c 0,0 3.94763,7.72925 13.788857,7.72925 9.841228,0 13.788859,-7.72925 13.788859,-7.72925"
       id="path14"
       sodipodi:nodetypes="czc" /><path
       style="fill:none;stroke:#000000;stroke-width:2.5;stroke-linecap:round;stroke-linejoin:round"
       d="M 74.299182,40.509852 V 75.299196"
       id="path15"
       sodipodi:nodetypes="cc" /><path
       id="path16"
       d="m 67.584707,52.414388 c 0,3.296821 -1.553838,5.969423 -3.470594,5.969423 -1.916756,0 -3.470594,-2.672602 -3.470594,-5.969423 0,-3.296821 1.553838,-5.969423 3.470594,-5.969423 1.916756,0 3.470594,2.672602 3.470594,5.969423 z m 13.428949,0 c 0,3.296821 1.553838,5.969423 3.470594,5.969423 1.916757,0 3.470595,-2.672602 3.470595,-5.969423 0,-3.296821 -1.553838,-5.969423 -3.470595,-5.969423 -1.916756,0 -3.470594,2.672602 -3.470594,5.969423 z"
       style="fill:none;stroke:#000000;stroke-width:2.5;stroke-linecap:round;stroke-linejoin:round"
       sodipodi:nodetypes="ssssssssss" /></g></svg>
