<?xml version="1.0" encoding="UTF-8" standalone="no"?>
<!-- Created with Inkscape (http://www.inkscape.org/) -->

<svg
   width="4in"
   height="4in"
   viewBox="0 0 101.6 101.6"
   version="1.1"
   id="svg5"
   sodipodi:docname="you.svg"
   inkscape:version="1.1 (c4e8f9e, 2021-05-24)"
   xmlns:inkscape="http://www.inkscape.org/namespaces/inkscape"
   xmlns:sodipodi="http://sodipodi.sourceforge.net/DTD/sodipodi-0.dtd"
   xmlns="http://www.w3.org/2000/svg"
   xmlns:svg="http://www.w3.org/2000/svg">
  <sodipodi:namedview
     id="namedview7"
     pagecolor="#ffffff"
     bordercolor="#666666"
     borderopacity="1.0"
     inkscape:pageshadow="2"
     inkscape:pageopacity="0.0"
     inkscape:pagecheckerboard="0"
     inkscape:document-units="mm"
     showgrid="false"
     units="in"
     inkscape:zoom="1.4819524"
     inkscape:cx="9.7843898"
     inkscape:cy="209.85829"
     inkscape:window-width="1920"
     inkscape:window-height="974"
     inkscape:window-x="0"
     inkscape:window-y="25"
     inkscape:window-maximized="1"
     inkscape:current-layer="layer2"
     inkscape:object-nodes="false" />
  <defs
     id="defs2">
    <inkscape:path-effect
       effect="mirror_symmetry"
       start_point="51.061582,43.027415"
       end_point="51.061582,91.232406"
       center_point="51.061582,67.12991"
       id="path-effect4685"
       is_visible="true"
       lpeversion="1.1"
       mode="vertical"
       discard_orig_path="false"
       fuse_paths="false"
       oposite_fuse="false"
       split_items="false"
       split_open="false" />
    <inkscape:path-effect
       effect="mirror_symmetry"
       start_point="44.098638,12.299721"
       end_point="44.098638,65.880151"
       center_point="44.098638,39.089936"
       id="path-effect2517"
       is_visible="true"
       lpeversion="1.1"
       mode="vertical"
       discard_orig_path="false"
       fuse_paths="false"
       oposite_fuse="false"
       split_items="false"
       split_open="false" />
    <inkscape:path-effect
       effect="mirror_symmetry"
       start_point="53.633396,10.68638"
       end_point="53.633396,95.00827"
       center_point="53.633396,52.847325"
       id="path-effect5871"
       is_visible="true"
       lpeversion="1.1"
       mode="vertical"
       discard_orig_path="false"
       fuse_paths="false"
       oposite_fuse="false"
       split_items="false"
       split_open="false" />
  </defs>
  <g
     inkscape:groupmode="layer"
     id="layer2"
     inkscape:label="Layer 2">
    <g
       id="g2515">
      <path
         style="opacity:1;fill:none;stroke:#000000;stroke-width:2.5;stroke-linecap:round;stroke-linejoin:round"
         d="m 22.852735,31.601049 c 3.50387,2.355915 10.412491,1.435372 13.406765,-8.349636 1.110924,-3.630395 2.016801,-6.142514 5.518158,-8.968453 M 78.747265,31.601049 C 75.243395,33.956964 68.334774,33.036421 65.3405,23.251413 64.229576,19.621018 63.323699,17.108899 59.822342,14.28296"
         id="path1122"
         sodipodi:nodetypes="csc" />
      <path
         style="opacity:1;fill:none;stroke:#000000;stroke-width:2.5;stroke-linecap:round;stroke-linejoin:round"
         d="m 28.030307,12.299721 c 6.495778,5.983254 11.459275,3.922038 16.068331,0 m 29.471055,0 c -6.495778,5.983254 -11.459275,3.922038 -16.068331,0"
         id="path1594"
         sodipodi:nodetypes="cc" />
      <path
         style="opacity:1;fill:none;stroke:#000000;stroke-width:2.5;stroke-linecap:round;stroke-linejoin:round"
         d="M 38.742527,42.491805 C 9.9223755,45.327499 16.66749,62.265203 7.1414798,65.880151 M 62.857473,42.491805 C 91.677624,45.327499 84.93251,62.265203 94.45852,65.880151"
         id="path1979"
         sodipodi:nodetypes="cc" />
      <path
         id="path2282"
         d="m 31.780067,19.639311 c 0,0.690356 -0.559644,1.25 -1.25,1.25 -0.690355,0 -1.25,-0.559644 -1.25,-1.25 0,-0.690356 0.559645,-1.25 1.25,-1.25 0.690356,0 1.25,0.559644 1.25,1.25 z m 38.039866,0 c 0,0.690356 0.559644,1.25 1.25,1.25 0.690355,0 1.25,-0.559644 1.25,-1.25 0,-0.690356 -0.559645,-1.25 -1.25,-1.25 -0.690356,0 -1.25,0.559644 -1.25,1.25 z"
         style="opacity:1;fill:#000000;fill-opacity:1;stroke:none;stroke-width:1.40027;stroke-linecap:round;stroke-linejoin:round" />
      <path
         id="path2282-2"
         d="m 30.708605,22.674198 c 0,0.690356 -0.559644,1.25 -1.25,1.25 -0.690356,0 -1.25,-0.559644 -1.25,-1.25 0,-0.690356 0.559644,-1.25 1.25,-1.25 0.690356,0 1.25,0.559644 1.25,1.25 z m 40.18279,0 c 0,0.690356 0.559644,1.25 1.25,1.25 0.690356,0 1.25,-0.559644 1.25,-1.25 0,-0.690356 -0.559644,-1.25 -1.25,-1.25 -0.690356,0 -1.25,0.559644 -1.25,1.25 z"
         style="fill:#000000;fill-opacity:1;stroke:none;stroke-width:1.40027;stroke-linecap:round;stroke-linejoin:round" />
    </g>
    <path
       style="opacity:1;fill:none;fill-opacity:1;stroke:#000000;stroke-width:2.5;stroke-linecap:round;stroke-linejoin:round;stroke-opacity:1"
       d="m 37.224744,20.908162 c 0,0 5.94776,4.265555 13.575255,4.265555 7.627495,0 13.575256,-4.265555 13.575256,-4.265555"
       id="path2552"
       sodipodi:nodetypes="czc" />
    <path
       style="opacity:1;fill:none;fill-opacity:1;stroke:#000000;stroke-width:2.5;stroke-linecap:round;stroke-linejoin:round;stroke-opacity:1"
       d="M 38.921065,43.027415 C 20.353217,74.628464 40.163961,91.232406 50.8,91.232406 c 10.636039,0 30.446783,-16.603942 11.878935,-48.204991"
       id="path4423"
       sodipodi:nodetypes="czc" />
    <path
       style="fill:none;stroke:#000000;stroke-width:2.5;stroke-linecap:round;stroke-linejoin:round"
       d="M 62.226369,72.339703 50.8,31.276193 39.373632,72.339703 Z"
       id="path970"
       sodipodi:nodetypes="ccc" />
  </g>
</svg>
