<?xml version="1.0" encoding="UTF-8" standalone="no"?>
<!-- Created with Inkscape (http://www.inkscape.org/) -->

<svg
   width="4in"
   height="4in"
   viewBox="0 0 101.6 101.6"
   version="1.1"
   id="svg5"
   sodipodi:docname="your.svg"
   inkscape:version="1.3.2 (091e20e, 2023-11-25)"
   xml:space="preserve"
   xmlns:inkscape="http://www.inkscape.org/namespaces/inkscape"
   xmlns:sodipodi="http://sodipodi.sourceforge.net/DTD/sodipodi-0.dtd"
   xmlns="http://www.w3.org/2000/svg"
   xmlns:svg="http://www.w3.org/2000/svg"><sodipodi:namedview
     id="namedview7"
     pagecolor="#ffffff"
     bordercolor="#666666"
     borderopacity="1.0"
     inkscape:pageshadow="2"
     inkscape:pageopacity="0.0"
     inkscape:pagecheckerboard="0"
     inkscape:document-units="mm"
     showgrid="false"
     units="in"
     inkscape:zoom="0.58824127"
     inkscape:cx="122.39876"
     inkscape:cy="297.49698"
     inkscape:window-width="1280"
     inkscape:window-height="693"
     inkscape:window-x="0"
     inkscape:window-y="25"
     inkscape:window-maximized="0"
     inkscape:current-layer="layer2"
     inkscape:object-nodes="false"
     inkscape:showpageshadow="2"
     inkscape:deskcolor="#d1d1d1" /><defs
     id="defs2"><inkscape:path-effect
       effect="mirror_symmetry"
       start_point="50.8,-2.5892788"
       end_point="50.8,99.010721"
       center_point="50.8,48.210721"
       id="path-effect4"
       is_visible="true"
       lpeversion="1.2"
       lpesatellites=""
       mode="vertical"
       discard_orig_path="false"
       fuse_paths="false"
       oposite_fuse="false"
       split_items="false"
       split_open="false"
       link_styles="false" /><inkscape:path-effect
       effect="mirror_symmetry"
       start_point="50.8,68.431536"
       end_point="50.8,94.175885"
       center_point="50.8,81.30371"
       id="path-effect3"
       is_visible="true"
       lpeversion="1.2"
       lpesatellites=""
       mode="free"
       discard_orig_path="false"
       fuse_paths="true"
       oposite_fuse="false"
       split_items="false"
       split_open="false"
       link_styles="false" /><inkscape:path-effect
       effect="mirror_symmetry"
       start_point="50.8,3.7607208"
       end_point="50.8,105.36072"
       center_point="50.8,54.560721"
       id="path-effect2"
       is_visible="true"
       lpeversion="1.2"
       lpesatellites=""
       mode="vertical"
       discard_orig_path="false"
       fuse_paths="false"
       oposite_fuse="false"
       split_items="false"
       split_open="false"
       link_styles="false" /><inkscape:path-effect
       effect="mirror_symmetry"
       start_point="50.8,43.024549"
       end_point="50.8,81.981926"
       center_point="50.8,62.503237"
       id="path-effect1"
       is_visible="true"
       lpeversion="1.2"
       lpesatellites=""
       mode="free"
       discard_orig_path="false"
       fuse_paths="true"
       oposite_fuse="false"
       split_items="false"
       split_open="false"
       link_styles="false" /><inkscape:path-effect
       effect="mirror_symmetry"
       start_point="51.061582,43.027415"
       end_point="51.061582,91.232406"
       center_point="51.061582,67.12991"
       id="path-effect4685"
       is_visible="true"
       lpeversion="1.1"
       mode="vertical"
       discard_orig_path="false"
       fuse_paths="false"
       oposite_fuse="false"
       split_items="false"
       split_open="false" /><inkscape:path-effect
       effect="mirror_symmetry"
       start_point="44.098638,12.299721"
       end_point="44.098638,65.880151"
       center_point="44.098638,39.089936"
       id="path-effect2517"
       is_visible="true"
       lpeversion="1.1"
       mode="vertical"
       discard_orig_path="false"
       fuse_paths="false"
       oposite_fuse="false"
       split_items="false"
       split_open="false" /><inkscape:path-effect
       effect="mirror_symmetry"
       start_point="53.633396,10.68638"
       end_point="53.633396,95.00827"
       center_point="53.633396,52.847325"
       id="path-effect5871"
       is_visible="true"
       lpeversion="1.1"
       mode="vertical"
       discard_orig_path="false"
       fuse_paths="false"
       oposite_fuse="false"
       split_items="false"
       split_open="false" /></defs><g
     inkscape:groupmode="layer"
     id="layer2"
     inkscape:label="Layer 2"><path
       style="fill:none;stroke:#000000;stroke-width:2.5;stroke-linecap:round;stroke-linejoin:round"
       d="m 22.852735,34.190329 c 3.50387,2.355915 10.412491,1.435372 13.406765,-8.349636 1.110924,-3.630395 2.016801,-6.142514 5.518158,-8.968453 M 78.747265,34.190329 C 75.243395,36.546244 68.334774,35.625701 65.3405,25.840693 64.229576,22.210298 63.323699,19.698179 59.822342,16.87224"
       id="path1122"
       sodipodi:nodetypes="csc" /><path
       style="fill:none;stroke:#000000;stroke-width:2.5;stroke-linecap:round;stroke-linejoin:round"
       d="m 28.030307,14.889001 c 6.495778,5.983254 11.459275,3.922038 16.068331,0 m 29.471055,0 c -6.495778,5.983254 -11.459275,3.922038 -16.068331,0"
       id="path1594"
       sodipodi:nodetypes="cc" /><path
       style="fill:none;stroke:#000000;stroke-width:2.5;stroke-linecap:round;stroke-linejoin:round"
       d="M 38.742527,42.491805 C 31.757794,43.179052 22.075802,50.564508 20.879085,58.116952 M 62.857473,42.491805 c 6.984733,0.687247 16.666725,8.072703 17.863442,15.625147"
       id="path1979"
       sodipodi:nodetypes="cc"
       inkscape:path-effect="#path-effect2"
       inkscape:original-d="M 38.742527,42.491805 C 31.757794,43.179052 22.075802,50.564508 20.879085,58.116952"
       transform="translate(0,-3.7607208)" /><path
       id="path2282"
       d="m 31.780067,22.228591 c 0,0.690356 -0.559644,1.25 -1.25,1.25 -0.690355,0 -1.25,-0.559644 -1.25,-1.25 0,-0.690356 0.559645,-1.25 1.25,-1.25 0.690356,0 1.25,0.559644 1.25,1.25 z m 38.039866,0 c 0,0.690356 0.559644,1.25 1.25,1.25 0.690355,0 1.25,-0.559644 1.25,-1.25 0,-0.690356 -0.559645,-1.25 -1.25,-1.25 -0.690356,0 -1.25,0.559644 -1.25,1.25 z"
       style="fill:#000000;fill-opacity:1;stroke:none;stroke-width:1.40027;stroke-linecap:round;stroke-linejoin:round" /><path
       id="path2282-2"
       d="m 30.708605,25.263478 c 0,0.690356 -0.559644,1.25 -1.25,1.25 -0.690356,0 -1.25,-0.559644 -1.25,-1.25 0,-0.690356 0.559644,-1.25 1.25,-1.25 0.690356,0 1.25,0.559644 1.25,1.25 z m 40.18279,0 c 0,0.690356 0.559644,1.25 1.25,1.25 0.690356,0 1.25,-0.559644 1.25,-1.25 0,-0.690356 -0.559644,-1.25 -1.25,-1.25 -0.690356,0 -1.25,0.559644 -1.25,1.25 z"
       style="fill:#000000;fill-opacity:1;stroke:none;stroke-width:1.40027;stroke-linecap:round;stroke-linejoin:round" /><path
       style="fill:none;fill-opacity:1;stroke:#000000;stroke-width:2.5;stroke-linecap:round;stroke-linejoin:round;stroke-opacity:1"
       d="m 37.224744,23.497442 c 0,0 5.94776,4.265555 13.575255,4.265555 7.627495,0 13.575256,-4.265555 13.575256,-4.265555"
       id="path2552"
       sodipodi:nodetypes="czc" /><path
       style="fill:none;fill-opacity:1;stroke:#000000;stroke-width:2.5;stroke-linecap:round;stroke-linejoin:round;stroke-opacity:1"
       d="M 38.921065,39.263828 C 20.353217,64.802552 40.163961,78.221205 50.8,78.221205 c 10.636039,0 30.446783,-13.418653 11.878935,-38.957377"
       id="path4423"
       sodipodi:nodetypes="ccc" /><path
       style="fill:none;fill-opacity:1;stroke:#000000;stroke-width:2.5;stroke-linecap:round;stroke-linejoin:round;stroke-opacity:1"
       d="M 20.989716,63.083317 C 23.447535,80.062268 40.120332,88.827666 50.8,88.827666 c 10.679668,0 27.352465,-8.765398 29.810284,-25.744349"
       id="path4423-3"
       sodipodi:nodetypes="ccc" /><path
       style="fill:none;stroke:#000000;stroke-width:2.5;stroke-linecap:round;stroke-linejoin:round"
       d="M 62.226369,59.058037 50.8,33.865503 39.373632,59.058037 Z"
       id="path970"
       sodipodi:nodetypes="cccc" /><path
       style="fill:none;stroke:#000000;stroke-width:2.5;stroke-linecap:round;stroke-linejoin:round"
       d="M 26.650945,52.662854 C 24.794016,63.552251 8.1316097,61.730691 6.6156147,41.492357 M 74.949055,52.662854 c 1.856929,10.889397 18.519335,9.067837 20.03533,-11.170497"
       id="path3"
       sodipodi:nodetypes="cc"
       inkscape:path-effect="#path-effect4"
       inkscape:original-d="M 26.650945,52.662854 C 24.794016,63.552251 8.1316097,61.730691 6.6156147,41.492357"
       transform="translate(0,2.5892788)" /></g></svg>
